M48
;GenerationSoftware,Autodesk,EAGLE,9.2.1*%
;CreationDate,2019-05-27T03:36:10Z*%
FMAT,2
ICI,OFF
METRIC,TZ,000.000
T5C0.350
T4C0.700
T3C1.016
T2C1.100
T1C1.500
%
G90
M71
T1
X21580Y50300
X21580Y15700
T2
X10940Y8680
X2680Y8680
X11300Y2730
X2320Y2730
T3
X25273Y46609
X25273Y44069
X25273Y41529
X25273Y49149
X25273Y38989
X25273Y36449
T4
X23380Y24000
X23380Y25500
X23380Y28500
X23380Y30000
X23380Y31500
X23380Y33000
X23380Y34500
X23380Y36000
X23380Y39000
X23380Y40500
X23380Y42000
X23380Y43500
X23380Y45000
X23380Y37500
X23380Y27000
X23380Y21000
X23380Y22500
T5
X5080Y12700
X21921Y38100
X3810Y38100
X3810Y27940
X3810Y15240
X2540Y15240
X15240Y7620
X17211Y19370
X17145Y21463
X17272Y23495
X17272Y25273
X6350Y12700
X17780Y36830
X2540Y12700
X5080Y53340
X19050Y38100
X2540Y19050
X6350Y52075
X13970Y17780
X10160Y41910
X6350Y13970
X2540Y13970
X11430Y15240
M30