G04 EAGLE Gerber RS-274X export*
G75*
%MOMM*%
%FSLAX34Y34*%
%LPD*%
%INBottom Copper*%
%IPPOS*%
%AMOC8*
5,1,8,0,0,1.08239X$1,22.5*%
G01*
%ADD10C,1.650000*%
%ADD11R,1.500000X0.700000*%
%ADD12R,0.700000X1.500000*%
%ADD13R,1.300000X1.500000*%
%ADD14R,1.500000X1.300000*%
%ADD15C,2.250000*%
%ADD16C,1.208000*%
%ADD17C,1.879600*%
%ADD18R,1.500000X0.600000*%
%ADD19R,0.500000X0.800000*%
%ADD20C,0.508000*%
%ADD21C,0.812800*%
%ADD22C,0.609600*%
%ADD23C,0.756400*%
%ADD24C,0.152400*%

G36*
X106929Y17792D02*
X106929Y17792D01*
X107000Y17794D01*
X107049Y17812D01*
X107101Y17820D01*
X107164Y17854D01*
X107231Y17879D01*
X107272Y17911D01*
X107318Y17936D01*
X107367Y17988D01*
X107423Y18032D01*
X107452Y18076D01*
X107487Y18114D01*
X107518Y18179D01*
X107556Y18239D01*
X107569Y18290D01*
X107591Y18337D01*
X107599Y18408D01*
X107616Y18478D01*
X107612Y18530D01*
X107618Y18581D01*
X107603Y18652D01*
X107597Y18723D01*
X107577Y18771D01*
X107566Y18822D01*
X107529Y18883D01*
X107501Y18949D01*
X107456Y19005D01*
X107440Y19033D01*
X107422Y19048D01*
X107396Y19080D01*
X104713Y21763D01*
X103225Y25356D01*
X103225Y29244D01*
X104713Y32837D01*
X107463Y35587D01*
X111056Y37075D01*
X114944Y37075D01*
X118537Y35587D01*
X121287Y32837D01*
X122775Y29244D01*
X122775Y25356D01*
X121287Y21763D01*
X118604Y19080D01*
X118562Y19022D01*
X118513Y18970D01*
X118491Y18923D01*
X118460Y18881D01*
X118439Y18812D01*
X118409Y18747D01*
X118403Y18695D01*
X118388Y18645D01*
X118390Y18574D01*
X118382Y18503D01*
X118393Y18452D01*
X118394Y18400D01*
X118419Y18332D01*
X118434Y18262D01*
X118461Y18217D01*
X118479Y18169D01*
X118524Y18113D01*
X118560Y18051D01*
X118600Y18017D01*
X118632Y17977D01*
X118693Y17938D01*
X118747Y17891D01*
X118796Y17872D01*
X118839Y17844D01*
X118909Y17826D01*
X118975Y17799D01*
X119047Y17791D01*
X119078Y17783D01*
X119101Y17785D01*
X119142Y17781D01*
X268278Y17781D01*
X268298Y17784D01*
X268317Y17782D01*
X268419Y17804D01*
X268521Y17820D01*
X268538Y17830D01*
X268558Y17834D01*
X268647Y17887D01*
X268738Y17936D01*
X268752Y17950D01*
X268769Y17960D01*
X268836Y18039D01*
X268908Y18114D01*
X268916Y18132D01*
X268929Y18147D01*
X268968Y18243D01*
X269011Y18337D01*
X269013Y18357D01*
X269021Y18375D01*
X269039Y18542D01*
X269039Y540768D01*
X269037Y540784D01*
X269038Y540799D01*
X269038Y540802D01*
X269038Y540807D01*
X269016Y540909D01*
X269000Y541011D01*
X268990Y541028D01*
X268986Y541048D01*
X268933Y541137D01*
X268884Y541228D01*
X268870Y541242D01*
X268860Y541259D01*
X268781Y541326D01*
X268706Y541398D01*
X268688Y541406D01*
X268673Y541419D01*
X268577Y541458D01*
X268483Y541501D01*
X268463Y541503D01*
X268445Y541511D01*
X268278Y541529D01*
X172386Y541529D01*
X172366Y541526D01*
X172347Y541528D01*
X172245Y541506D01*
X172143Y541490D01*
X172126Y541480D01*
X172106Y541476D01*
X172017Y541423D01*
X171926Y541374D01*
X171912Y541360D01*
X171895Y541350D01*
X171828Y541271D01*
X171756Y541196D01*
X171748Y541178D01*
X171735Y541163D01*
X171696Y541067D01*
X171653Y540973D01*
X171651Y540953D01*
X171643Y540935D01*
X171625Y540768D01*
X171625Y532768D01*
X170859Y532002D01*
X170790Y531907D01*
X170719Y531810D01*
X170717Y531806D01*
X170715Y531803D01*
X170680Y531690D01*
X170644Y531576D01*
X170644Y531571D01*
X170643Y531567D01*
X170646Y531449D01*
X170648Y531330D01*
X170649Y531326D01*
X170649Y531322D01*
X170690Y531210D01*
X170729Y531098D01*
X170732Y531094D01*
X170733Y531091D01*
X170808Y530998D01*
X170881Y530904D01*
X170885Y530901D01*
X170887Y530899D01*
X170899Y530891D01*
X171016Y530805D01*
X171660Y530433D01*
X172133Y529960D01*
X172468Y529381D01*
X172641Y528734D01*
X172641Y526423D01*
X163362Y526423D01*
X163342Y526420D01*
X163323Y526422D01*
X163221Y526400D01*
X163119Y526383D01*
X163102Y526374D01*
X163082Y526370D01*
X162993Y526317D01*
X162902Y526268D01*
X162888Y526254D01*
X162871Y526244D01*
X162804Y526165D01*
X162733Y526090D01*
X162724Y526072D01*
X162711Y526057D01*
X162672Y525961D01*
X162629Y525867D01*
X162627Y525847D01*
X162619Y525829D01*
X162601Y525662D01*
X162601Y524138D01*
X162604Y524118D01*
X162602Y524099D01*
X162624Y523997D01*
X162641Y523895D01*
X162650Y523878D01*
X162654Y523858D01*
X162707Y523769D01*
X162756Y523678D01*
X162770Y523664D01*
X162780Y523647D01*
X162859Y523580D01*
X162934Y523509D01*
X162952Y523500D01*
X162967Y523487D01*
X163063Y523448D01*
X163157Y523405D01*
X163177Y523403D01*
X163195Y523395D01*
X163362Y523377D01*
X172641Y523377D01*
X172641Y521065D01*
X172468Y520419D01*
X172133Y519840D01*
X171660Y519367D01*
X171016Y518995D01*
X170924Y518920D01*
X170831Y518846D01*
X170829Y518842D01*
X170826Y518839D01*
X170763Y518740D01*
X170698Y518639D01*
X170697Y518635D01*
X170695Y518631D01*
X170667Y518516D01*
X170638Y518400D01*
X170639Y518396D01*
X170638Y518392D01*
X170648Y518273D01*
X170657Y518155D01*
X170659Y518151D01*
X170659Y518147D01*
X170707Y518038D01*
X170754Y517929D01*
X170757Y517925D01*
X170758Y517922D01*
X170767Y517912D01*
X170859Y517798D01*
X171625Y517032D01*
X171625Y508768D01*
X170732Y507875D01*
X154468Y507875D01*
X153575Y508768D01*
X153575Y513080D01*
X153572Y513100D01*
X153574Y513119D01*
X153552Y513221D01*
X153536Y513323D01*
X153526Y513340D01*
X153522Y513360D01*
X153469Y513449D01*
X153420Y513540D01*
X153406Y513554D01*
X153396Y513571D01*
X153317Y513638D01*
X153242Y513710D01*
X153224Y513718D01*
X153209Y513731D01*
X153113Y513770D01*
X153019Y513813D01*
X152999Y513815D01*
X152981Y513823D01*
X152814Y513841D01*
X132841Y513841D01*
X132841Y540768D01*
X132839Y540784D01*
X132840Y540799D01*
X132840Y540802D01*
X132840Y540807D01*
X132818Y540909D01*
X132802Y541011D01*
X132792Y541028D01*
X132788Y541048D01*
X132735Y541137D01*
X132686Y541228D01*
X132672Y541242D01*
X132662Y541259D01*
X132583Y541326D01*
X132508Y541398D01*
X132490Y541406D01*
X132475Y541419D01*
X132379Y541458D01*
X132285Y541501D01*
X132265Y541503D01*
X132247Y541511D01*
X132080Y541529D01*
X125730Y541529D01*
X125710Y541526D01*
X125691Y541528D01*
X125589Y541506D01*
X125487Y541490D01*
X125470Y541480D01*
X125450Y541476D01*
X125361Y541423D01*
X125270Y541374D01*
X125256Y541360D01*
X125239Y541350D01*
X125172Y541271D01*
X125101Y541196D01*
X125092Y541178D01*
X125079Y541163D01*
X125040Y541067D01*
X124997Y540973D01*
X124995Y540953D01*
X124987Y540935D01*
X124969Y540768D01*
X124969Y482186D01*
X124972Y482166D01*
X124970Y482147D01*
X124992Y482045D01*
X125009Y481943D01*
X125018Y481926D01*
X125022Y481906D01*
X125075Y481817D01*
X125124Y481726D01*
X125138Y481712D01*
X125148Y481695D01*
X125227Y481628D01*
X125302Y481556D01*
X125320Y481548D01*
X125335Y481535D01*
X125431Y481496D01*
X125525Y481453D01*
X125545Y481451D01*
X125563Y481443D01*
X125730Y481425D01*
X130232Y481425D01*
X131125Y480532D01*
X131125Y464268D01*
X130388Y463531D01*
X130335Y463457D01*
X130275Y463388D01*
X130263Y463358D01*
X130244Y463332D01*
X130217Y463245D01*
X130183Y463160D01*
X130179Y463119D01*
X130172Y463097D01*
X130173Y463064D01*
X130165Y462993D01*
X130165Y434699D01*
X130179Y434609D01*
X130187Y434518D01*
X130199Y434488D01*
X130204Y434456D01*
X130247Y434376D01*
X130283Y434292D01*
X130309Y434259D01*
X130320Y434239D01*
X130343Y434217D01*
X130388Y434161D01*
X132736Y431813D01*
X132794Y431771D01*
X132846Y431721D01*
X132893Y431699D01*
X132935Y431669D01*
X133004Y431648D01*
X133069Y431618D01*
X133121Y431612D01*
X133171Y431597D01*
X133242Y431599D01*
X133313Y431591D01*
X133364Y431602D01*
X133416Y431603D01*
X133484Y431628D01*
X133554Y431643D01*
X133599Y431670D01*
X133647Y431688D01*
X133703Y431732D01*
X133765Y431769D01*
X133799Y431809D01*
X133839Y431841D01*
X133878Y431902D01*
X133925Y431956D01*
X133944Y432004D01*
X133972Y432048D01*
X133990Y432118D01*
X134017Y432184D01*
X134025Y432256D01*
X134033Y432287D01*
X134031Y432310D01*
X134035Y432351D01*
X134035Y462993D01*
X134021Y463083D01*
X134013Y463174D01*
X134001Y463204D01*
X133996Y463236D01*
X133953Y463317D01*
X133917Y463400D01*
X133891Y463433D01*
X133880Y463453D01*
X133857Y463475D01*
X133812Y463531D01*
X133075Y464268D01*
X133075Y480532D01*
X133968Y481425D01*
X142232Y481425D01*
X143125Y480532D01*
X143125Y464268D01*
X142388Y463531D01*
X142335Y463457D01*
X142275Y463388D01*
X142263Y463358D01*
X142244Y463332D01*
X142217Y463245D01*
X142183Y463160D01*
X142179Y463119D01*
X142172Y463097D01*
X142173Y463064D01*
X142165Y462993D01*
X142165Y448759D01*
X142176Y448688D01*
X142178Y448616D01*
X142196Y448567D01*
X142204Y448516D01*
X142238Y448453D01*
X142263Y448385D01*
X142295Y448345D01*
X142320Y448299D01*
X142372Y448249D01*
X142416Y448193D01*
X142460Y448165D01*
X142498Y448129D01*
X142563Y448099D01*
X142623Y448060D01*
X142674Y448048D01*
X142721Y448026D01*
X142792Y448018D01*
X142862Y448000D01*
X142914Y448004D01*
X142965Y447999D01*
X143036Y448014D01*
X143107Y448019D01*
X143155Y448040D01*
X143206Y448051D01*
X143267Y448088D01*
X143333Y448116D01*
X143389Y448161D01*
X143417Y448177D01*
X143432Y448195D01*
X143464Y448221D01*
X144268Y449025D01*
X145274Y449025D01*
X145294Y449028D01*
X145313Y449026D01*
X145415Y449048D01*
X145517Y449064D01*
X145534Y449074D01*
X145554Y449078D01*
X145643Y449131D01*
X145734Y449180D01*
X145748Y449194D01*
X145765Y449204D01*
X145832Y449283D01*
X145904Y449358D01*
X145912Y449376D01*
X145925Y449391D01*
X145964Y449487D01*
X146007Y449581D01*
X146009Y449601D01*
X146017Y449619D01*
X146035Y449786D01*
X146035Y462993D01*
X146021Y463083D01*
X146013Y463174D01*
X146001Y463204D01*
X145996Y463236D01*
X145953Y463317D01*
X145917Y463400D01*
X145891Y463433D01*
X145880Y463453D01*
X145857Y463475D01*
X145812Y463531D01*
X145075Y464268D01*
X145075Y480532D01*
X145968Y481425D01*
X154232Y481425D01*
X155125Y480532D01*
X155125Y464268D01*
X154388Y463531D01*
X154335Y463457D01*
X154275Y463388D01*
X154263Y463358D01*
X154244Y463332D01*
X154217Y463245D01*
X154183Y463160D01*
X154179Y463119D01*
X154172Y463097D01*
X154173Y463064D01*
X154165Y462993D01*
X154165Y449786D01*
X154168Y449766D01*
X154166Y449747D01*
X154188Y449645D01*
X154204Y449543D01*
X154214Y449526D01*
X154218Y449506D01*
X154271Y449417D01*
X154320Y449326D01*
X154334Y449312D01*
X154344Y449295D01*
X154423Y449228D01*
X154498Y449156D01*
X154516Y449148D01*
X154531Y449135D01*
X154627Y449096D01*
X154721Y449053D01*
X154741Y449051D01*
X154759Y449043D01*
X154926Y449025D01*
X160532Y449025D01*
X161425Y448132D01*
X161425Y440868D01*
X160532Y439975D01*
X144268Y439975D01*
X143464Y440779D01*
X143406Y440821D01*
X143354Y440871D01*
X143307Y440893D01*
X143265Y440923D01*
X143196Y440944D01*
X143131Y440974D01*
X143079Y440980D01*
X143029Y440995D01*
X142958Y440993D01*
X142887Y441001D01*
X142836Y440990D01*
X142784Y440989D01*
X142716Y440964D01*
X142646Y440949D01*
X142601Y440922D01*
X142553Y440905D01*
X142497Y440860D01*
X142435Y440823D01*
X142401Y440783D01*
X142361Y440751D01*
X142322Y440691D01*
X142275Y440636D01*
X142256Y440588D01*
X142228Y440544D01*
X142210Y440474D01*
X142183Y440408D01*
X142175Y440337D01*
X142167Y440305D01*
X142169Y440282D01*
X142165Y440241D01*
X142165Y436626D01*
X142168Y436606D01*
X142166Y436587D01*
X142188Y436485D01*
X142204Y436383D01*
X142214Y436366D01*
X142218Y436346D01*
X142271Y436257D01*
X142320Y436166D01*
X142334Y436152D01*
X142344Y436135D01*
X142423Y436068D01*
X142498Y435996D01*
X142516Y435988D01*
X142531Y435975D01*
X142627Y435936D01*
X142721Y435893D01*
X142741Y435891D01*
X142759Y435883D01*
X142926Y435865D01*
X143493Y435865D01*
X143583Y435879D01*
X143674Y435887D01*
X143704Y435899D01*
X143736Y435904D01*
X143817Y435947D01*
X143900Y435983D01*
X143933Y436009D01*
X143953Y436020D01*
X143975Y436043D01*
X144031Y436088D01*
X144268Y436325D01*
X160532Y436325D01*
X161425Y435432D01*
X161425Y428168D01*
X160532Y427275D01*
X144268Y427275D01*
X144031Y427512D01*
X143957Y427565D01*
X143888Y427625D01*
X143858Y427637D01*
X143832Y427656D01*
X143745Y427683D01*
X143660Y427717D01*
X143619Y427721D01*
X143597Y427728D01*
X143564Y427727D01*
X143493Y427735D01*
X138651Y427735D01*
X138580Y427724D01*
X138508Y427722D01*
X138460Y427704D01*
X138408Y427696D01*
X138345Y427662D01*
X138277Y427637D01*
X138237Y427605D01*
X138191Y427580D01*
X138141Y427528D01*
X138085Y427484D01*
X138057Y427440D01*
X138021Y427402D01*
X137991Y427337D01*
X137952Y427277D01*
X137940Y427226D01*
X137918Y427179D01*
X137910Y427108D01*
X137892Y427038D01*
X137896Y426986D01*
X137891Y426935D01*
X137906Y426864D01*
X137912Y426793D01*
X137932Y426745D01*
X137943Y426694D01*
X137980Y426633D01*
X138008Y426567D01*
X138053Y426511D01*
X138069Y426483D01*
X138087Y426468D01*
X138113Y426436D01*
X141161Y423388D01*
X141235Y423335D01*
X141304Y423275D01*
X141334Y423263D01*
X141360Y423244D01*
X141448Y423217D01*
X141532Y423183D01*
X141573Y423179D01*
X141596Y423172D01*
X141628Y423173D01*
X141699Y423165D01*
X143493Y423165D01*
X143583Y423179D01*
X143674Y423187D01*
X143704Y423199D01*
X143736Y423204D01*
X143817Y423247D01*
X143900Y423283D01*
X143933Y423309D01*
X143953Y423320D01*
X143975Y423343D01*
X144031Y423388D01*
X144268Y423625D01*
X160532Y423625D01*
X161425Y422732D01*
X161425Y415468D01*
X160532Y414575D01*
X144268Y414575D01*
X144031Y414812D01*
X143957Y414865D01*
X143888Y414925D01*
X143858Y414937D01*
X143832Y414956D01*
X143745Y414983D01*
X143660Y415017D01*
X143619Y415021D01*
X143597Y415028D01*
X143564Y415027D01*
X143493Y415035D01*
X138016Y415035D01*
X122035Y431016D01*
X122035Y462993D01*
X122021Y463083D01*
X122013Y463174D01*
X122001Y463204D01*
X121996Y463236D01*
X121953Y463317D01*
X121917Y463400D01*
X121891Y463433D01*
X121880Y463453D01*
X121857Y463475D01*
X121812Y463531D01*
X121075Y464268D01*
X121075Y480532D01*
X121335Y480792D01*
X121377Y480850D01*
X121427Y480902D01*
X121449Y480949D01*
X121479Y480991D01*
X121500Y481060D01*
X121530Y481125D01*
X121536Y481177D01*
X121551Y481227D01*
X121549Y481298D01*
X121557Y481369D01*
X121546Y481420D01*
X121545Y481472D01*
X121520Y481540D01*
X121505Y481610D01*
X121478Y481654D01*
X121461Y481703D01*
X121416Y481759D01*
X121379Y481821D01*
X121339Y481855D01*
X121307Y481895D01*
X121247Y481934D01*
X121192Y481981D01*
X121144Y482000D01*
X121100Y482028D01*
X121030Y482046D01*
X120964Y482073D01*
X120893Y482081D01*
X120861Y482089D01*
X120838Y482087D01*
X120797Y482091D01*
X119403Y482091D01*
X119332Y482080D01*
X119260Y482078D01*
X119211Y482060D01*
X119160Y482052D01*
X119097Y482018D01*
X119029Y481993D01*
X118989Y481961D01*
X118943Y481936D01*
X118893Y481885D01*
X118837Y481840D01*
X118809Y481796D01*
X118773Y481758D01*
X118743Y481693D01*
X118704Y481633D01*
X118692Y481582D01*
X118670Y481535D01*
X118662Y481464D01*
X118644Y481394D01*
X118648Y481342D01*
X118643Y481291D01*
X118658Y481220D01*
X118663Y481149D01*
X118684Y481101D01*
X118695Y481050D01*
X118732Y480989D01*
X118760Y480923D01*
X118805Y480867D01*
X118821Y480839D01*
X118839Y480824D01*
X118865Y480792D01*
X119125Y480532D01*
X119125Y464268D01*
X118588Y463731D01*
X118535Y463657D01*
X118475Y463588D01*
X118463Y463558D01*
X118444Y463532D01*
X118417Y463445D01*
X118383Y463360D01*
X118379Y463319D01*
X118372Y463297D01*
X118373Y463264D01*
X118365Y463193D01*
X118365Y421099D01*
X118379Y421009D01*
X118387Y420918D01*
X118399Y420888D01*
X118404Y420856D01*
X118447Y420776D01*
X118483Y420692D01*
X118509Y420660D01*
X118520Y420639D01*
X118543Y420617D01*
X118588Y420561D01*
X141161Y397988D01*
X141235Y397935D01*
X141304Y397875D01*
X141334Y397863D01*
X141360Y397844D01*
X141447Y397817D01*
X141532Y397783D01*
X141573Y397779D01*
X141596Y397772D01*
X141628Y397773D01*
X141699Y397765D01*
X143493Y397765D01*
X143583Y397779D01*
X143674Y397787D01*
X143704Y397799D01*
X143736Y397804D01*
X143816Y397847D01*
X143900Y397883D01*
X143933Y397909D01*
X143953Y397920D01*
X143975Y397943D01*
X144031Y397988D01*
X144268Y398225D01*
X160532Y398225D01*
X161425Y397332D01*
X161425Y390068D01*
X160532Y389175D01*
X144268Y389175D01*
X144031Y389412D01*
X143957Y389466D01*
X143888Y389525D01*
X143858Y389537D01*
X143832Y389556D01*
X143745Y389583D01*
X143660Y389617D01*
X143619Y389621D01*
X143597Y389628D01*
X143564Y389627D01*
X143493Y389635D01*
X138016Y389635D01*
X110235Y417416D01*
X110235Y462793D01*
X110221Y462883D01*
X110213Y462974D01*
X110201Y463004D01*
X110196Y463036D01*
X110153Y463117D01*
X110117Y463200D01*
X110091Y463233D01*
X110080Y463253D01*
X110057Y463275D01*
X110012Y463331D01*
X109075Y464268D01*
X109075Y480532D01*
X109335Y480792D01*
X109377Y480850D01*
X109427Y480902D01*
X109449Y480949D01*
X109479Y480991D01*
X109500Y481060D01*
X109530Y481125D01*
X109536Y481177D01*
X109551Y481227D01*
X109549Y481298D01*
X109557Y481369D01*
X109546Y481420D01*
X109545Y481472D01*
X109520Y481540D01*
X109505Y481610D01*
X109478Y481654D01*
X109461Y481703D01*
X109416Y481759D01*
X109379Y481821D01*
X109339Y481855D01*
X109307Y481895D01*
X109247Y481934D01*
X109192Y481981D01*
X109144Y482000D01*
X109100Y482028D01*
X109030Y482046D01*
X108964Y482073D01*
X108893Y482081D01*
X108861Y482089D01*
X108838Y482087D01*
X108797Y482091D01*
X107403Y482091D01*
X107332Y482080D01*
X107260Y482078D01*
X107211Y482060D01*
X107160Y482052D01*
X107097Y482018D01*
X107029Y481993D01*
X106989Y481961D01*
X106943Y481936D01*
X106893Y481885D01*
X106837Y481840D01*
X106809Y481796D01*
X106773Y481758D01*
X106743Y481693D01*
X106704Y481633D01*
X106692Y481582D01*
X106670Y481535D01*
X106662Y481464D01*
X106644Y481394D01*
X106648Y481342D01*
X106643Y481291D01*
X106658Y481220D01*
X106663Y481149D01*
X106684Y481101D01*
X106695Y481050D01*
X106732Y480989D01*
X106760Y480923D01*
X106805Y480867D01*
X106821Y480839D01*
X106839Y480824D01*
X106865Y480792D01*
X107125Y480532D01*
X107125Y464268D01*
X106388Y463531D01*
X106335Y463457D01*
X106275Y463388D01*
X106263Y463358D01*
X106244Y463332D01*
X106217Y463245D01*
X106183Y463160D01*
X106179Y463119D01*
X106172Y463097D01*
X106173Y463064D01*
X106165Y462993D01*
X106165Y422355D01*
X106179Y422265D01*
X106187Y422174D01*
X106199Y422145D01*
X106204Y422113D01*
X106247Y422032D01*
X106283Y421948D01*
X106309Y421916D01*
X106320Y421895D01*
X106343Y421873D01*
X106388Y421817D01*
X106907Y421298D01*
X106907Y416902D01*
X103798Y413793D01*
X101793Y413793D01*
X101722Y413782D01*
X101650Y413780D01*
X101602Y413762D01*
X101550Y413754D01*
X101487Y413720D01*
X101419Y413695D01*
X101379Y413663D01*
X101333Y413638D01*
X101283Y413586D01*
X101227Y413542D01*
X101199Y413498D01*
X101163Y413460D01*
X101133Y413395D01*
X101094Y413335D01*
X101082Y413284D01*
X101060Y413237D01*
X101052Y413166D01*
X101034Y413096D01*
X101038Y413044D01*
X101033Y412993D01*
X101048Y412922D01*
X101054Y412851D01*
X101074Y412803D01*
X101085Y412752D01*
X101122Y412691D01*
X101150Y412625D01*
X101195Y412569D01*
X101211Y412541D01*
X101229Y412526D01*
X101255Y412494D01*
X128461Y385288D01*
X128535Y385235D01*
X128604Y385175D01*
X128634Y385163D01*
X128660Y385144D01*
X128747Y385117D01*
X128832Y385083D01*
X128873Y385079D01*
X128896Y385072D01*
X128928Y385073D01*
X128999Y385065D01*
X143493Y385065D01*
X143583Y385079D01*
X143674Y385087D01*
X143704Y385099D01*
X143736Y385104D01*
X143816Y385147D01*
X143900Y385183D01*
X143933Y385209D01*
X143953Y385220D01*
X143975Y385243D01*
X144031Y385288D01*
X144268Y385525D01*
X160532Y385525D01*
X161425Y384632D01*
X161425Y381000D01*
X161428Y380980D01*
X161426Y380961D01*
X161448Y380859D01*
X161464Y380757D01*
X161474Y380740D01*
X161478Y380720D01*
X161531Y380631D01*
X161580Y380540D01*
X161594Y380526D01*
X161604Y380509D01*
X161683Y380442D01*
X161758Y380371D01*
X161776Y380362D01*
X161791Y380349D01*
X161887Y380310D01*
X161981Y380267D01*
X162001Y380265D01*
X162019Y380257D01*
X162186Y380239D01*
X172974Y380239D01*
X172994Y380242D01*
X173013Y380240D01*
X173115Y380262D01*
X173217Y380279D01*
X173234Y380288D01*
X173254Y380292D01*
X173343Y380345D01*
X173434Y380394D01*
X173448Y380408D01*
X173465Y380418D01*
X173532Y380497D01*
X173604Y380572D01*
X173612Y380590D01*
X173625Y380605D01*
X173664Y380701D01*
X173707Y380795D01*
X173709Y380815D01*
X173717Y380833D01*
X173735Y381000D01*
X173735Y407449D01*
X173724Y407520D01*
X173722Y407592D01*
X173704Y407640D01*
X173696Y407692D01*
X173662Y407755D01*
X173637Y407823D01*
X173605Y407863D01*
X173580Y407909D01*
X173528Y407959D01*
X173484Y408015D01*
X173440Y408043D01*
X173402Y408079D01*
X173337Y408109D01*
X173277Y408148D01*
X173226Y408160D01*
X173179Y408182D01*
X173108Y408190D01*
X173038Y408208D01*
X172986Y408204D01*
X172935Y408209D01*
X172864Y408194D01*
X172793Y408188D01*
X172745Y408168D01*
X172694Y408157D01*
X172633Y408120D01*
X172567Y408092D01*
X172511Y408047D01*
X172483Y408031D01*
X172468Y408013D01*
X172436Y407987D01*
X169388Y404939D01*
X166784Y402335D01*
X161307Y402335D01*
X161217Y402321D01*
X161126Y402313D01*
X161096Y402301D01*
X161064Y402296D01*
X160983Y402253D01*
X160900Y402217D01*
X160867Y402191D01*
X160847Y402180D01*
X160825Y402157D01*
X160769Y402112D01*
X160532Y401875D01*
X144268Y401875D01*
X143375Y402768D01*
X143375Y410032D01*
X144268Y410925D01*
X160532Y410925D01*
X160769Y410688D01*
X160843Y410635D01*
X160912Y410575D01*
X160942Y410563D01*
X160968Y410544D01*
X161055Y410517D01*
X161140Y410483D01*
X161181Y410479D01*
X161203Y410472D01*
X161236Y410473D01*
X161307Y410465D01*
X163101Y410465D01*
X163191Y410479D01*
X163282Y410487D01*
X163312Y410499D01*
X163344Y410504D01*
X163424Y410547D01*
X163508Y410583D01*
X163540Y410609D01*
X163561Y410620D01*
X163583Y410643D01*
X163639Y410688D01*
X166908Y413957D01*
X166961Y414031D01*
X167021Y414100D01*
X167033Y414130D01*
X167052Y414156D01*
X167079Y414243D01*
X167113Y414328D01*
X167117Y414369D01*
X167124Y414392D01*
X167123Y414424D01*
X167131Y414495D01*
X167131Y448919D01*
X194971Y476759D01*
X229395Y476759D01*
X229485Y476773D01*
X229576Y476781D01*
X229606Y476793D01*
X229638Y476798D01*
X229718Y476841D01*
X229802Y476877D01*
X229834Y476903D01*
X229855Y476914D01*
X229877Y476937D01*
X229933Y476982D01*
X241584Y488633D01*
X241637Y488707D01*
X241697Y488776D01*
X241709Y488806D01*
X241728Y488832D01*
X241755Y488919D01*
X241789Y489004D01*
X241793Y489045D01*
X241800Y489067D01*
X241799Y489100D01*
X241807Y489171D01*
X241807Y493663D01*
X243470Y497677D01*
X246543Y500750D01*
X250557Y502413D01*
X254903Y502413D01*
X258917Y500750D01*
X261990Y497677D01*
X263653Y493663D01*
X263653Y489317D01*
X261990Y485303D01*
X258917Y482230D01*
X254903Y480567D01*
X250557Y480567D01*
X247109Y481996D01*
X246995Y482022D01*
X246882Y482051D01*
X246875Y482050D01*
X246869Y482052D01*
X246753Y482041D01*
X246636Y482032D01*
X246631Y482029D01*
X246624Y482029D01*
X246517Y481981D01*
X246410Y481936D01*
X246404Y481931D01*
X246400Y481929D01*
X246386Y481916D01*
X246279Y481831D01*
X235903Y471454D01*
X235861Y471396D01*
X235811Y471344D01*
X235789Y471297D01*
X235759Y471255D01*
X235738Y471186D01*
X235708Y471121D01*
X235702Y471069D01*
X235687Y471019D01*
X235689Y470948D01*
X235681Y470877D01*
X235692Y470826D01*
X235693Y470774D01*
X235718Y470706D01*
X235733Y470636D01*
X235760Y470592D01*
X235778Y470543D01*
X235822Y470487D01*
X235859Y470425D01*
X235899Y470391D01*
X235931Y470351D01*
X235992Y470312D01*
X236046Y470265D01*
X236094Y470246D01*
X236138Y470218D01*
X236208Y470200D01*
X236274Y470173D01*
X236346Y470165D01*
X236377Y470157D01*
X236400Y470159D01*
X236441Y470155D01*
X242082Y470155D01*
X242197Y470174D01*
X242313Y470191D01*
X242319Y470193D01*
X242325Y470194D01*
X242428Y470249D01*
X242533Y470302D01*
X242537Y470307D01*
X242542Y470310D01*
X242622Y470394D01*
X242705Y470478D01*
X242708Y470484D01*
X242712Y470488D01*
X242720Y470505D01*
X242786Y470625D01*
X243470Y472277D01*
X246543Y475350D01*
X250557Y477013D01*
X254903Y477013D01*
X258917Y475350D01*
X261990Y472277D01*
X263653Y468263D01*
X263653Y463917D01*
X261990Y459903D01*
X258917Y456830D01*
X254903Y455167D01*
X250557Y455167D01*
X246543Y456830D01*
X243470Y459903D01*
X242786Y461555D01*
X242724Y461655D01*
X242664Y461755D01*
X242659Y461759D01*
X242656Y461764D01*
X242566Y461839D01*
X242477Y461915D01*
X242471Y461917D01*
X242467Y461921D01*
X242358Y461963D01*
X242249Y462007D01*
X242241Y462008D01*
X242237Y462009D01*
X242219Y462010D01*
X242082Y462025D01*
X201389Y462025D01*
X201299Y462011D01*
X201208Y462003D01*
X201178Y461991D01*
X201146Y461986D01*
X201066Y461943D01*
X200982Y461907D01*
X200950Y461881D01*
X200929Y461870D01*
X200907Y461847D01*
X200851Y461802D01*
X182088Y443039D01*
X182035Y442965D01*
X181975Y442896D01*
X181963Y442866D01*
X181944Y442840D01*
X181917Y442753D01*
X181883Y442668D01*
X181879Y442627D01*
X181872Y442604D01*
X181873Y442572D01*
X181865Y442501D01*
X181865Y372055D01*
X181879Y371965D01*
X181887Y371874D01*
X181899Y371845D01*
X181904Y371813D01*
X181947Y371732D01*
X181983Y371648D01*
X182009Y371616D01*
X182020Y371595D01*
X182043Y371573D01*
X182088Y371517D01*
X183107Y370498D01*
X183107Y366102D01*
X180135Y363130D01*
X180093Y363072D01*
X180044Y363020D01*
X180022Y362973D01*
X179992Y362931D01*
X179970Y362862D01*
X179940Y362797D01*
X179935Y362745D01*
X179919Y362695D01*
X179921Y362624D01*
X179913Y362553D01*
X179924Y362502D01*
X179926Y362450D01*
X179950Y362382D01*
X179965Y362312D01*
X179992Y362267D01*
X180010Y362219D01*
X180055Y362163D01*
X180092Y362101D01*
X180131Y362067D01*
X180164Y362027D01*
X180224Y361988D01*
X180279Y361941D01*
X180327Y361922D01*
X180371Y361894D01*
X180440Y361876D01*
X180507Y361849D01*
X180578Y361841D01*
X180609Y361833D01*
X180632Y361835D01*
X180673Y361831D01*
X185777Y361831D01*
X185777Y352552D01*
X185780Y352532D01*
X185778Y352513D01*
X185800Y352411D01*
X185817Y352309D01*
X185826Y352292D01*
X185830Y352272D01*
X185883Y352183D01*
X185932Y352092D01*
X185946Y352078D01*
X185956Y352061D01*
X186035Y351994D01*
X186110Y351923D01*
X186128Y351914D01*
X186143Y351901D01*
X186239Y351862D01*
X186333Y351819D01*
X186353Y351817D01*
X186371Y351809D01*
X186538Y351791D01*
X187301Y351791D01*
X187301Y351789D01*
X186538Y351789D01*
X186518Y351786D01*
X186499Y351788D01*
X186397Y351766D01*
X186295Y351749D01*
X186278Y351740D01*
X186258Y351736D01*
X186169Y351683D01*
X186078Y351634D01*
X186064Y351620D01*
X186047Y351610D01*
X185980Y351531D01*
X185909Y351456D01*
X185900Y351438D01*
X185887Y351423D01*
X185848Y351327D01*
X185805Y351233D01*
X185803Y351213D01*
X185795Y351195D01*
X185777Y351028D01*
X185777Y342272D01*
X185780Y342252D01*
X185778Y342233D01*
X185800Y342131D01*
X185817Y342029D01*
X185826Y342012D01*
X185827Y342007D01*
X185827Y332232D01*
X185830Y332212D01*
X185828Y332193D01*
X185850Y332091D01*
X185867Y331989D01*
X185876Y331972D01*
X185880Y331952D01*
X185933Y331863D01*
X185982Y331772D01*
X185996Y331758D01*
X186006Y331741D01*
X186085Y331674D01*
X186160Y331603D01*
X186178Y331594D01*
X186193Y331581D01*
X186289Y331542D01*
X186383Y331499D01*
X186403Y331497D01*
X186421Y331489D01*
X186588Y331471D01*
X187351Y331471D01*
X187351Y331469D01*
X186588Y331469D01*
X186568Y331466D01*
X186549Y331468D01*
X186447Y331446D01*
X186345Y331429D01*
X186328Y331420D01*
X186308Y331416D01*
X186219Y331363D01*
X186128Y331314D01*
X186114Y331300D01*
X186097Y331290D01*
X186030Y331211D01*
X185959Y331136D01*
X185950Y331118D01*
X185937Y331103D01*
X185898Y331007D01*
X185855Y330913D01*
X185853Y330893D01*
X185845Y330875D01*
X185827Y330708D01*
X185827Y321429D01*
X180516Y321429D01*
X179869Y321602D01*
X179290Y321937D01*
X178817Y322410D01*
X178459Y323029D01*
X178429Y323067D01*
X178406Y323109D01*
X178352Y323161D01*
X178304Y323220D01*
X178263Y323245D01*
X178228Y323278D01*
X178159Y323310D01*
X178095Y323351D01*
X178049Y323362D01*
X178005Y323382D01*
X177930Y323390D01*
X177856Y323408D01*
X177808Y323404D01*
X177761Y323409D01*
X177686Y323393D01*
X177611Y323386D01*
X177567Y323367D01*
X177520Y323357D01*
X177455Y323318D01*
X177386Y323287D01*
X177350Y323255D01*
X177309Y323231D01*
X177260Y323173D01*
X177204Y323122D01*
X177180Y323080D01*
X177149Y323044D01*
X177121Y322973D01*
X177084Y322907D01*
X177075Y322860D01*
X177057Y322816D01*
X177043Y322687D01*
X177039Y322665D01*
X177040Y322659D01*
X177039Y322649D01*
X177039Y264091D01*
X177047Y264044D01*
X177045Y263996D01*
X177066Y263923D01*
X177079Y263848D01*
X177101Y263806D01*
X177115Y263760D01*
X177158Y263698D01*
X177194Y263631D01*
X177228Y263598D01*
X177256Y263559D01*
X177317Y263514D01*
X177372Y263462D01*
X177415Y263441D01*
X177454Y263413D01*
X177526Y263390D01*
X177595Y263358D01*
X177643Y263353D01*
X177688Y263338D01*
X177764Y263339D01*
X177839Y263331D01*
X177886Y263341D01*
X177934Y263342D01*
X178006Y263367D01*
X178080Y263383D01*
X178121Y263408D01*
X178166Y263424D01*
X178226Y263471D01*
X178291Y263509D01*
X178322Y263546D01*
X178360Y263575D01*
X178436Y263679D01*
X178451Y263696D01*
X178453Y263703D01*
X178459Y263711D01*
X178817Y264330D01*
X179290Y264803D01*
X179869Y265138D01*
X179997Y265172D01*
X180084Y265211D01*
X180173Y265244D01*
X180195Y265261D01*
X180221Y265273D01*
X180291Y265338D01*
X180366Y265397D01*
X180381Y265421D01*
X180401Y265440D01*
X180447Y265524D01*
X180499Y265604D01*
X180505Y265632D01*
X180519Y265657D01*
X180535Y265750D01*
X180559Y265843D01*
X180556Y265871D01*
X180561Y265899D01*
X180547Y265993D01*
X180539Y266088D01*
X180528Y266114D01*
X180524Y266142D01*
X180480Y266227D01*
X180443Y266314D01*
X180421Y266342D01*
X180411Y266361D01*
X180388Y266383D01*
X180338Y266445D01*
X179325Y267458D01*
X179325Y283722D01*
X180218Y284615D01*
X189651Y284615D01*
X189741Y284629D01*
X189832Y284637D01*
X189862Y284649D01*
X189894Y284654D01*
X189974Y284697D01*
X190058Y284733D01*
X190090Y284759D01*
X190111Y284770D01*
X190133Y284793D01*
X190189Y284838D01*
X191498Y286147D01*
X191551Y286221D01*
X191611Y286290D01*
X191623Y286320D01*
X191642Y286346D01*
X191656Y286391D01*
X196483Y291219D01*
X218955Y291219D01*
X219045Y291233D01*
X219136Y291241D01*
X219166Y291253D01*
X219198Y291258D01*
X219278Y291301D01*
X219362Y291337D01*
X219394Y291363D01*
X219415Y291374D01*
X219437Y291397D01*
X219493Y291442D01*
X226012Y297961D01*
X226065Y298035D01*
X226125Y298104D01*
X226137Y298134D01*
X226156Y298160D01*
X226183Y298247D01*
X226217Y298332D01*
X226221Y298373D01*
X226228Y298396D01*
X226227Y298428D01*
X226235Y298499D01*
X226235Y299849D01*
X226224Y299920D01*
X226222Y299992D01*
X226204Y300040D01*
X226196Y300092D01*
X226162Y300155D01*
X226137Y300223D01*
X226105Y300263D01*
X226080Y300309D01*
X226028Y300359D01*
X225984Y300415D01*
X225940Y300443D01*
X225902Y300479D01*
X225837Y300509D01*
X225777Y300548D01*
X225726Y300560D01*
X225679Y300582D01*
X225608Y300590D01*
X225538Y300608D01*
X225486Y300604D01*
X225435Y300609D01*
X225364Y300594D01*
X225293Y300588D01*
X225245Y300568D01*
X225194Y300557D01*
X225133Y300520D01*
X225067Y300492D01*
X225011Y300447D01*
X224983Y300431D01*
X224968Y300413D01*
X224936Y300387D01*
X224014Y299465D01*
X215136Y299465D01*
X215116Y299462D01*
X215097Y299464D01*
X214995Y299442D01*
X214893Y299426D01*
X214876Y299416D01*
X214856Y299412D01*
X214767Y299359D01*
X214676Y299310D01*
X214662Y299296D01*
X214645Y299286D01*
X214578Y299207D01*
X214506Y299132D01*
X214498Y299114D01*
X214485Y299099D01*
X214446Y299003D01*
X214403Y298909D01*
X214401Y298889D01*
X214393Y298871D01*
X214375Y298704D01*
X214375Y295398D01*
X213482Y294505D01*
X199218Y294505D01*
X198325Y295398D01*
X198325Y311662D01*
X198799Y312136D01*
X198841Y312194D01*
X198891Y312246D01*
X198913Y312293D01*
X198943Y312335D01*
X198964Y312404D01*
X198994Y312469D01*
X199000Y312521D01*
X199015Y312571D01*
X199013Y312642D01*
X199021Y312713D01*
X199010Y312764D01*
X199009Y312816D01*
X198984Y312884D01*
X198969Y312954D01*
X198942Y312999D01*
X198925Y313047D01*
X198880Y313103D01*
X198843Y313165D01*
X198803Y313199D01*
X198771Y313239D01*
X198711Y313278D01*
X198656Y313325D01*
X198608Y313344D01*
X198564Y313372D01*
X198494Y313390D01*
X198428Y313417D01*
X198357Y313425D01*
X198325Y313433D01*
X198302Y313431D01*
X198261Y313435D01*
X195439Y313435D01*
X195368Y313424D01*
X195296Y313422D01*
X195247Y313404D01*
X195196Y313396D01*
X195133Y313362D01*
X195065Y313337D01*
X195025Y313305D01*
X194979Y313280D01*
X194929Y313228D01*
X194873Y313184D01*
X194845Y313140D01*
X194809Y313102D01*
X194779Y313037D01*
X194740Y312977D01*
X194728Y312926D01*
X194706Y312879D01*
X194698Y312808D01*
X194680Y312738D01*
X194684Y312686D01*
X194679Y312635D01*
X194694Y312564D01*
X194699Y312493D01*
X194720Y312445D01*
X194731Y312394D01*
X194768Y312333D01*
X194796Y312267D01*
X194841Y312211D01*
X194857Y312183D01*
X194875Y312168D01*
X194901Y312136D01*
X195375Y311662D01*
X195375Y295398D01*
X194482Y294505D01*
X180218Y294505D01*
X179325Y295398D01*
X179325Y311662D01*
X180218Y312555D01*
X182524Y312555D01*
X182544Y312558D01*
X182563Y312556D01*
X182665Y312578D01*
X182767Y312594D01*
X182784Y312604D01*
X182804Y312608D01*
X182893Y312661D01*
X182984Y312710D01*
X182998Y312724D01*
X183015Y312734D01*
X183082Y312813D01*
X183154Y312888D01*
X183162Y312906D01*
X183175Y312921D01*
X183214Y313017D01*
X183257Y313111D01*
X183259Y313131D01*
X183267Y313149D01*
X183285Y313316D01*
X183285Y316034D01*
X188650Y321399D01*
X188703Y321473D01*
X188763Y321542D01*
X188775Y321572D01*
X188794Y321598D01*
X188821Y321685D01*
X188855Y321770D01*
X188859Y321811D01*
X188866Y321833D01*
X188865Y321866D01*
X188873Y321937D01*
X188873Y329947D01*
X196391Y329947D01*
X196391Y323636D01*
X196218Y322989D01*
X196054Y322707D01*
X196021Y322617D01*
X195980Y322531D01*
X195977Y322503D01*
X195967Y322477D01*
X195964Y322381D01*
X195953Y322287D01*
X195959Y322259D01*
X195958Y322231D01*
X195985Y322139D01*
X196006Y322046D01*
X196020Y322022D01*
X196028Y321995D01*
X196083Y321917D01*
X196132Y321835D01*
X196153Y321817D01*
X196169Y321794D01*
X196246Y321737D01*
X196319Y321675D01*
X196345Y321665D01*
X196368Y321648D01*
X196458Y321619D01*
X196547Y321583D01*
X196582Y321579D01*
X196602Y321573D01*
X196635Y321573D01*
X196714Y321565D01*
X198261Y321565D01*
X198332Y321576D01*
X198404Y321578D01*
X198453Y321596D01*
X198504Y321604D01*
X198567Y321638D01*
X198635Y321663D01*
X198675Y321695D01*
X198721Y321720D01*
X198771Y321772D01*
X198827Y321816D01*
X198855Y321860D01*
X198891Y321898D01*
X198921Y321963D01*
X198960Y322023D01*
X198972Y322074D01*
X198994Y322121D01*
X199002Y322192D01*
X199020Y322262D01*
X199016Y322314D01*
X199021Y322365D01*
X199006Y322436D01*
X199001Y322507D01*
X198980Y322555D01*
X198969Y322606D01*
X198932Y322667D01*
X198904Y322733D01*
X198859Y322789D01*
X198843Y322817D01*
X198825Y322832D01*
X198799Y322864D01*
X198325Y323338D01*
X198325Y339602D01*
X199218Y340495D01*
X213482Y340495D01*
X214375Y339602D01*
X214375Y336296D01*
X214378Y336276D01*
X214376Y336257D01*
X214398Y336155D01*
X214414Y336053D01*
X214424Y336036D01*
X214428Y336016D01*
X214481Y335927D01*
X214530Y335836D01*
X214544Y335822D01*
X214554Y335805D01*
X214633Y335738D01*
X214708Y335666D01*
X214726Y335658D01*
X214741Y335645D01*
X214837Y335606D01*
X214931Y335563D01*
X214951Y335561D01*
X214969Y335553D01*
X215136Y335535D01*
X218271Y335535D01*
X218361Y335549D01*
X218452Y335557D01*
X218482Y335569D01*
X218514Y335574D01*
X218594Y335617D01*
X218678Y335653D01*
X218710Y335679D01*
X218731Y335690D01*
X218753Y335713D01*
X218809Y335758D01*
X226012Y342961D01*
X226065Y343035D01*
X226125Y343104D01*
X226137Y343134D01*
X226156Y343160D01*
X226183Y343247D01*
X226217Y343332D01*
X226221Y343373D01*
X226228Y343396D01*
X226227Y343428D01*
X226235Y343499D01*
X226235Y346505D01*
X227387Y349285D01*
X229537Y351435D01*
X229579Y351494D01*
X229624Y351541D01*
X229633Y351561D01*
X229652Y351583D01*
X229663Y351611D01*
X229680Y351634D01*
X229705Y351715D01*
X229728Y351764D01*
X229730Y351780D01*
X229742Y351812D01*
X229744Y351841D01*
X229752Y351869D01*
X229750Y351964D01*
X229755Y352009D01*
X229753Y352019D01*
X229755Y352058D01*
X229747Y352086D01*
X229746Y352115D01*
X229714Y352204D01*
X229709Y352220D01*
X229703Y352249D01*
X229699Y352255D01*
X229688Y352295D01*
X229672Y352319D01*
X229662Y352346D01*
X229603Y352420D01*
X229587Y352443D01*
X229577Y352460D01*
X229573Y352464D01*
X229550Y352498D01*
X229521Y352522D01*
X229508Y352538D01*
X229480Y352556D01*
X229421Y352606D01*
X228330Y353335D01*
X227135Y354530D01*
X226196Y355935D01*
X225549Y357497D01*
X225354Y358477D01*
X233038Y358477D01*
X233058Y358480D01*
X233077Y358478D01*
X233179Y358500D01*
X233281Y358517D01*
X233298Y358526D01*
X233318Y358530D01*
X233407Y358583D01*
X233498Y358632D01*
X233512Y358646D01*
X233529Y358656D01*
X233596Y358735D01*
X233667Y358810D01*
X233676Y358828D01*
X233689Y358843D01*
X233727Y358939D01*
X233771Y359033D01*
X233773Y359053D01*
X233781Y359071D01*
X233799Y359238D01*
X233799Y360762D01*
X233796Y360782D01*
X233798Y360801D01*
X233776Y360903D01*
X233759Y361005D01*
X233750Y361022D01*
X233746Y361042D01*
X233693Y361131D01*
X233644Y361222D01*
X233630Y361236D01*
X233620Y361253D01*
X233541Y361320D01*
X233466Y361391D01*
X233448Y361400D01*
X233433Y361413D01*
X233337Y361452D01*
X233243Y361495D01*
X233223Y361497D01*
X233205Y361505D01*
X233038Y361523D01*
X225354Y361523D01*
X225549Y362503D01*
X226196Y364065D01*
X227135Y365470D01*
X228330Y366665D01*
X229421Y367394D01*
X229490Y367459D01*
X229564Y367517D01*
X229580Y367542D01*
X229601Y367562D01*
X229646Y367645D01*
X229697Y367724D01*
X229704Y367753D01*
X229718Y367778D01*
X229734Y367871D01*
X229757Y367963D01*
X229754Y367992D01*
X229759Y368021D01*
X229745Y368114D01*
X229738Y368208D01*
X229726Y368235D01*
X229722Y368264D01*
X229678Y368348D01*
X229641Y368434D01*
X229618Y368463D01*
X229608Y368482D01*
X229585Y368505D01*
X229537Y368565D01*
X227387Y370715D01*
X226235Y373495D01*
X226235Y376505D01*
X227387Y379285D01*
X229515Y381413D01*
X230441Y381797D01*
X230502Y381834D01*
X230568Y381864D01*
X230606Y381899D01*
X230650Y381926D01*
X230696Y381981D01*
X230749Y382030D01*
X230774Y382076D01*
X230807Y382116D01*
X230833Y382183D01*
X230867Y382246D01*
X230877Y382297D01*
X230895Y382345D01*
X230898Y382417D01*
X230911Y382488D01*
X230903Y382539D01*
X230906Y382591D01*
X230886Y382660D01*
X230875Y382731D01*
X230852Y382777D01*
X230837Y382827D01*
X230796Y382886D01*
X230764Y382950D01*
X230726Y382987D01*
X230697Y383029D01*
X230639Y383072D01*
X230588Y383122D01*
X230525Y383157D01*
X230499Y383176D01*
X230477Y383183D01*
X230441Y383203D01*
X229515Y383587D01*
X227390Y385712D01*
X227316Y385765D01*
X227246Y385825D01*
X227216Y385837D01*
X227190Y385856D01*
X227103Y385883D01*
X227018Y385917D01*
X226977Y385921D01*
X226955Y385928D01*
X226923Y385927D01*
X226851Y385935D01*
X215959Y385935D01*
X215888Y385924D01*
X215816Y385922D01*
X215767Y385904D01*
X215716Y385896D01*
X215653Y385862D01*
X215585Y385837D01*
X215545Y385805D01*
X215499Y385780D01*
X215449Y385729D01*
X215393Y385684D01*
X215365Y385640D01*
X215329Y385602D01*
X215299Y385537D01*
X215260Y385477D01*
X215248Y385426D01*
X215226Y385379D01*
X215218Y385308D01*
X215200Y385238D01*
X215204Y385186D01*
X215199Y385135D01*
X215214Y385064D01*
X215219Y384993D01*
X215240Y384945D01*
X215251Y384894D01*
X215288Y384833D01*
X215316Y384767D01*
X215361Y384711D01*
X215377Y384683D01*
X215395Y384668D01*
X215421Y384636D01*
X215425Y384632D01*
X215425Y377368D01*
X214532Y376475D01*
X198268Y376475D01*
X198031Y376712D01*
X197957Y376765D01*
X197888Y376825D01*
X197858Y376837D01*
X197832Y376856D01*
X197745Y376883D01*
X197660Y376917D01*
X197619Y376921D01*
X197597Y376928D01*
X197564Y376927D01*
X197493Y376935D01*
X194255Y376935D01*
X194165Y376921D01*
X194074Y376913D01*
X194045Y376901D01*
X194013Y376896D01*
X193932Y376853D01*
X193848Y376817D01*
X193816Y376791D01*
X193795Y376780D01*
X193773Y376757D01*
X193717Y376712D01*
X192698Y375693D01*
X188302Y375693D01*
X185193Y378802D01*
X185193Y383198D01*
X188302Y386307D01*
X192698Y386307D01*
X193717Y385288D01*
X193791Y385235D01*
X193861Y385175D01*
X193891Y385163D01*
X193917Y385144D01*
X194004Y385117D01*
X194089Y385083D01*
X194130Y385079D01*
X194152Y385072D01*
X194184Y385073D01*
X194255Y385065D01*
X197493Y385065D01*
X197583Y385079D01*
X197674Y385087D01*
X197704Y385099D01*
X197736Y385104D01*
X197817Y385147D01*
X197900Y385183D01*
X197933Y385209D01*
X197953Y385220D01*
X197975Y385243D01*
X198031Y385288D01*
X198268Y385525D01*
X206989Y385525D01*
X207060Y385536D01*
X207132Y385538D01*
X207181Y385556D01*
X207232Y385564D01*
X207295Y385598D01*
X207363Y385623D01*
X207403Y385655D01*
X207449Y385680D01*
X207499Y385731D01*
X207555Y385776D01*
X207583Y385820D01*
X207619Y385858D01*
X207649Y385923D01*
X207688Y385983D01*
X207700Y386034D01*
X207722Y386081D01*
X207730Y386152D01*
X207748Y386222D01*
X207744Y386274D01*
X207749Y386325D01*
X207734Y386396D01*
X207728Y386467D01*
X207708Y386515D01*
X207697Y386566D01*
X207660Y386627D01*
X207632Y386693D01*
X207587Y386749D01*
X207571Y386777D01*
X207553Y386792D01*
X207527Y386824D01*
X205399Y388952D01*
X205325Y389005D01*
X205256Y389065D01*
X205226Y389077D01*
X205200Y389096D01*
X205113Y389123D01*
X205028Y389157D01*
X204987Y389161D01*
X204965Y389168D01*
X204932Y389167D01*
X204861Y389175D01*
X198268Y389175D01*
X197375Y390068D01*
X197375Y397332D01*
X198268Y398225D01*
X214532Y398225D01*
X215425Y397332D01*
X215425Y394826D01*
X215428Y394806D01*
X215426Y394787D01*
X215448Y394685D01*
X215464Y394583D01*
X215474Y394566D01*
X215478Y394546D01*
X215531Y394457D01*
X215580Y394366D01*
X215594Y394352D01*
X215604Y394335D01*
X215683Y394268D01*
X215758Y394196D01*
X215776Y394188D01*
X215791Y394175D01*
X215887Y394136D01*
X215981Y394093D01*
X216001Y394091D01*
X216019Y394083D01*
X216186Y394065D01*
X226851Y394065D01*
X226941Y394079D01*
X227032Y394087D01*
X227062Y394099D01*
X227094Y394104D01*
X227175Y394147D01*
X227259Y394183D01*
X227291Y394209D01*
X227311Y394220D01*
X227334Y394243D01*
X227390Y394288D01*
X229515Y396413D01*
X230441Y396797D01*
X230502Y396834D01*
X230568Y396864D01*
X230606Y396899D01*
X230650Y396926D01*
X230696Y396981D01*
X230749Y397030D01*
X230774Y397076D01*
X230807Y397116D01*
X230833Y397183D01*
X230867Y397246D01*
X230877Y397297D01*
X230895Y397345D01*
X230898Y397417D01*
X230911Y397488D01*
X230903Y397539D01*
X230906Y397591D01*
X230886Y397660D01*
X230875Y397731D01*
X230852Y397777D01*
X230837Y397827D01*
X230796Y397886D01*
X230764Y397950D01*
X230726Y397987D01*
X230697Y398029D01*
X230639Y398072D01*
X230588Y398122D01*
X230525Y398157D01*
X230499Y398176D01*
X230477Y398183D01*
X230441Y398203D01*
X229515Y398587D01*
X227390Y400712D01*
X227316Y400765D01*
X227246Y400825D01*
X227216Y400837D01*
X227190Y400856D01*
X227103Y400883D01*
X227018Y400917D01*
X226977Y400921D01*
X226955Y400928D01*
X226923Y400927D01*
X226851Y400935D01*
X206116Y400935D01*
X205399Y401652D01*
X205325Y401705D01*
X205256Y401765D01*
X205226Y401777D01*
X205200Y401796D01*
X205113Y401823D01*
X205028Y401857D01*
X204987Y401861D01*
X204964Y401868D01*
X204932Y401867D01*
X204861Y401875D01*
X198268Y401875D01*
X197375Y402768D01*
X197375Y410032D01*
X198268Y410925D01*
X214532Y410925D01*
X215425Y410032D01*
X215425Y409826D01*
X215428Y409806D01*
X215426Y409787D01*
X215448Y409685D01*
X215464Y409583D01*
X215474Y409566D01*
X215478Y409546D01*
X215531Y409457D01*
X215580Y409366D01*
X215594Y409352D01*
X215604Y409335D01*
X215683Y409268D01*
X215758Y409196D01*
X215776Y409188D01*
X215791Y409175D01*
X215887Y409136D01*
X215981Y409093D01*
X216001Y409091D01*
X216019Y409083D01*
X216186Y409065D01*
X226851Y409065D01*
X226941Y409079D01*
X227032Y409087D01*
X227062Y409099D01*
X227094Y409104D01*
X227175Y409147D01*
X227259Y409183D01*
X227291Y409209D01*
X227311Y409220D01*
X227334Y409243D01*
X227390Y409288D01*
X229515Y411413D01*
X230441Y411797D01*
X230502Y411834D01*
X230568Y411864D01*
X230606Y411899D01*
X230650Y411926D01*
X230696Y411982D01*
X230749Y412030D01*
X230774Y412076D01*
X230807Y412116D01*
X230833Y412183D01*
X230867Y412246D01*
X230877Y412297D01*
X230895Y412345D01*
X230898Y412417D01*
X230911Y412488D01*
X230903Y412539D01*
X230906Y412591D01*
X230886Y412660D01*
X230875Y412731D01*
X230852Y412777D01*
X230837Y412827D01*
X230796Y412886D01*
X230764Y412950D01*
X230726Y412987D01*
X230697Y413029D01*
X230639Y413072D01*
X230588Y413122D01*
X230525Y413157D01*
X230499Y413176D01*
X230477Y413183D01*
X230441Y413203D01*
X229515Y413587D01*
X227390Y415712D01*
X227316Y415765D01*
X227246Y415825D01*
X227216Y415837D01*
X227190Y415856D01*
X227103Y415883D01*
X227018Y415917D01*
X226977Y415921D01*
X226955Y415928D01*
X226923Y415927D01*
X226851Y415935D01*
X216186Y415935D01*
X216166Y415932D01*
X216147Y415934D01*
X216045Y415912D01*
X215943Y415896D01*
X215926Y415886D01*
X215906Y415882D01*
X215817Y415829D01*
X215726Y415780D01*
X215712Y415766D01*
X215695Y415756D01*
X215628Y415677D01*
X215556Y415602D01*
X215555Y415599D01*
X214532Y414575D01*
X198268Y414575D01*
X197375Y415468D01*
X197375Y422732D01*
X198268Y423625D01*
X204861Y423625D01*
X204951Y423639D01*
X205042Y423647D01*
X205072Y423659D01*
X205104Y423664D01*
X205184Y423707D01*
X205268Y423743D01*
X205300Y423769D01*
X205321Y423780D01*
X205343Y423803D01*
X205399Y423848D01*
X205616Y424065D01*
X226851Y424065D01*
X226941Y424079D01*
X227032Y424087D01*
X227062Y424099D01*
X227094Y424104D01*
X227175Y424147D01*
X227259Y424183D01*
X227291Y424209D01*
X227311Y424220D01*
X227334Y424243D01*
X227390Y424288D01*
X229515Y426413D01*
X230441Y426797D01*
X230502Y426834D01*
X230568Y426864D01*
X230606Y426899D01*
X230650Y426926D01*
X230696Y426982D01*
X230749Y427030D01*
X230774Y427076D01*
X230807Y427116D01*
X230833Y427183D01*
X230867Y427246D01*
X230877Y427297D01*
X230895Y427345D01*
X230898Y427417D01*
X230911Y427488D01*
X230903Y427539D01*
X230906Y427591D01*
X230886Y427660D01*
X230875Y427731D01*
X230852Y427777D01*
X230837Y427827D01*
X230796Y427886D01*
X230764Y427950D01*
X230726Y427987D01*
X230697Y428029D01*
X230639Y428072D01*
X230588Y428122D01*
X230525Y428157D01*
X230499Y428176D01*
X230477Y428183D01*
X230441Y428203D01*
X229515Y428587D01*
X227390Y430712D01*
X227316Y430765D01*
X227246Y430825D01*
X227216Y430837D01*
X227190Y430856D01*
X227103Y430883D01*
X227018Y430917D01*
X226977Y430921D01*
X226955Y430928D01*
X226923Y430927D01*
X226851Y430935D01*
X216186Y430935D01*
X216166Y430932D01*
X216147Y430934D01*
X216045Y430912D01*
X215943Y430896D01*
X215926Y430886D01*
X215906Y430882D01*
X215817Y430829D01*
X215726Y430780D01*
X215712Y430766D01*
X215695Y430756D01*
X215628Y430677D01*
X215556Y430602D01*
X215548Y430584D01*
X215535Y430569D01*
X215496Y430473D01*
X215453Y430379D01*
X215451Y430359D01*
X215443Y430341D01*
X215425Y430174D01*
X215425Y428168D01*
X214532Y427275D01*
X198268Y427275D01*
X197375Y428168D01*
X197375Y435432D01*
X198268Y436325D01*
X204861Y436325D01*
X204951Y436339D01*
X205042Y436347D01*
X205072Y436359D01*
X205104Y436364D01*
X205184Y436407D01*
X205268Y436443D01*
X205301Y436469D01*
X205321Y436480D01*
X205343Y436503D01*
X205399Y436548D01*
X207527Y438676D01*
X207569Y438734D01*
X207619Y438786D01*
X207641Y438833D01*
X207671Y438875D01*
X207692Y438944D01*
X207722Y439009D01*
X207728Y439061D01*
X207743Y439111D01*
X207741Y439182D01*
X207749Y439253D01*
X207738Y439304D01*
X207737Y439356D01*
X207712Y439424D01*
X207697Y439494D01*
X207670Y439539D01*
X207652Y439587D01*
X207608Y439643D01*
X207571Y439705D01*
X207531Y439739D01*
X207499Y439779D01*
X207438Y439818D01*
X207384Y439865D01*
X207336Y439884D01*
X207292Y439912D01*
X207222Y439930D01*
X207156Y439957D01*
X207084Y439965D01*
X207053Y439973D01*
X207030Y439971D01*
X206989Y439975D01*
X198268Y439975D01*
X197375Y440868D01*
X197375Y448132D01*
X198268Y449025D01*
X204861Y449025D01*
X204951Y449039D01*
X205042Y449047D01*
X205072Y449059D01*
X205104Y449064D01*
X205184Y449107D01*
X205268Y449143D01*
X205300Y449169D01*
X205321Y449180D01*
X205343Y449203D01*
X205399Y449248D01*
X210216Y454065D01*
X226851Y454065D01*
X226941Y454079D01*
X227032Y454087D01*
X227062Y454099D01*
X227094Y454104D01*
X227175Y454147D01*
X227259Y454183D01*
X227291Y454209D01*
X227311Y454220D01*
X227334Y454243D01*
X227390Y454288D01*
X229515Y456413D01*
X232295Y457565D01*
X235305Y457565D01*
X238085Y456413D01*
X240213Y454285D01*
X241365Y451505D01*
X241365Y448495D01*
X240335Y446008D01*
X240313Y445917D01*
X240291Y445846D01*
X240285Y445841D01*
X240267Y445808D01*
X240253Y445791D01*
X240230Y445741D01*
X240219Y445721D01*
X238085Y443587D01*
X237159Y443203D01*
X237098Y443166D01*
X237032Y443136D01*
X236994Y443101D01*
X236950Y443074D01*
X236904Y443018D01*
X236851Y442970D01*
X236826Y442924D01*
X236793Y442884D01*
X236767Y442817D01*
X236733Y442754D01*
X236723Y442703D01*
X236705Y442655D01*
X236702Y442583D01*
X236689Y442512D01*
X236697Y442461D01*
X236694Y442409D01*
X236714Y442340D01*
X236725Y442269D01*
X236748Y442223D01*
X236763Y442173D01*
X236804Y442114D01*
X236836Y442050D01*
X236873Y442013D01*
X236903Y441971D01*
X236961Y441928D01*
X237012Y441878D01*
X237075Y441843D01*
X237101Y441824D01*
X237123Y441816D01*
X237159Y441797D01*
X238085Y441413D01*
X240108Y439390D01*
X240182Y439337D01*
X240252Y439277D01*
X240282Y439265D01*
X240308Y439246D01*
X240395Y439219D01*
X240480Y439185D01*
X240521Y439181D01*
X240543Y439174D01*
X240575Y439175D01*
X240647Y439167D01*
X251207Y439167D01*
X251207Y428844D01*
X249934Y429045D01*
X248147Y429626D01*
X246473Y430479D01*
X244952Y431584D01*
X243624Y432912D01*
X242742Y434126D01*
X242736Y434132D01*
X242732Y434139D01*
X242649Y434218D01*
X242567Y434299D01*
X242560Y434303D01*
X242554Y434308D01*
X242450Y434357D01*
X242346Y434407D01*
X242338Y434408D01*
X242331Y434412D01*
X242217Y434424D01*
X242102Y434440D01*
X242094Y434438D01*
X242087Y434439D01*
X241974Y434414D01*
X241861Y434392D01*
X241854Y434388D01*
X241846Y434387D01*
X241748Y434328D01*
X241647Y434271D01*
X241642Y434265D01*
X241635Y434260D01*
X241560Y434173D01*
X241483Y434087D01*
X241480Y434080D01*
X241475Y434074D01*
X241432Y433966D01*
X241387Y433861D01*
X241386Y433853D01*
X241383Y433845D01*
X241365Y433679D01*
X241365Y433495D01*
X240213Y430715D01*
X238085Y428587D01*
X237159Y428203D01*
X237098Y428166D01*
X237032Y428136D01*
X236994Y428101D01*
X236950Y428074D01*
X236904Y428018D01*
X236851Y427970D01*
X236826Y427924D01*
X236793Y427884D01*
X236767Y427817D01*
X236733Y427754D01*
X236723Y427703D01*
X236705Y427655D01*
X236702Y427583D01*
X236689Y427512D01*
X236697Y427461D01*
X236694Y427409D01*
X236714Y427340D01*
X236725Y427269D01*
X236748Y427223D01*
X236763Y427173D01*
X236804Y427114D01*
X236836Y427050D01*
X236873Y427013D01*
X236903Y426971D01*
X236961Y426928D01*
X237012Y426878D01*
X237075Y426843D01*
X237101Y426824D01*
X237123Y426816D01*
X237159Y426797D01*
X238085Y426413D01*
X240213Y424285D01*
X241365Y421505D01*
X241365Y420221D01*
X241380Y420125D01*
X241390Y420028D01*
X241400Y420004D01*
X241404Y419979D01*
X241450Y419893D01*
X241490Y419804D01*
X241507Y419784D01*
X241520Y419761D01*
X241590Y419694D01*
X241656Y419622D01*
X241679Y419610D01*
X241698Y419592D01*
X241786Y419551D01*
X241872Y419504D01*
X241897Y419499D01*
X241921Y419488D01*
X242018Y419477D01*
X242114Y419460D01*
X242140Y419464D01*
X242165Y419461D01*
X242261Y419482D01*
X242357Y419496D01*
X242380Y419508D01*
X242406Y419513D01*
X242489Y419563D01*
X242576Y419607D01*
X242595Y419626D01*
X242617Y419640D01*
X242680Y419713D01*
X242748Y419783D01*
X242764Y419812D01*
X242777Y419826D01*
X242789Y419857D01*
X242829Y419930D01*
X243470Y421477D01*
X246543Y424550D01*
X250557Y426213D01*
X254903Y426213D01*
X258917Y424550D01*
X261990Y421477D01*
X263653Y417463D01*
X263653Y413117D01*
X261990Y409103D01*
X258917Y406030D01*
X254903Y404367D01*
X250557Y404367D01*
X246543Y406030D01*
X243470Y409103D01*
X241807Y413117D01*
X241807Y415737D01*
X241792Y415833D01*
X241782Y415930D01*
X241772Y415954D01*
X241768Y415979D01*
X241722Y416066D01*
X241682Y416154D01*
X241665Y416174D01*
X241652Y416197D01*
X241582Y416264D01*
X241516Y416336D01*
X241493Y416348D01*
X241474Y416366D01*
X241386Y416407D01*
X241300Y416454D01*
X241275Y416459D01*
X241251Y416470D01*
X241154Y416481D01*
X241058Y416498D01*
X241032Y416494D01*
X241007Y416497D01*
X240912Y416476D01*
X240815Y416462D01*
X240792Y416450D01*
X240766Y416445D01*
X240683Y416395D01*
X240596Y416351D01*
X240577Y416332D01*
X240555Y416318D01*
X240492Y416244D01*
X240424Y416175D01*
X240408Y416146D01*
X240395Y416132D01*
X240383Y416101D01*
X240343Y416028D01*
X240213Y415715D01*
X238085Y413587D01*
X237159Y413203D01*
X237098Y413166D01*
X237032Y413136D01*
X236994Y413101D01*
X236950Y413074D01*
X236904Y413019D01*
X236851Y412970D01*
X236826Y412924D01*
X236793Y412884D01*
X236767Y412817D01*
X236733Y412754D01*
X236723Y412703D01*
X236705Y412655D01*
X236702Y412583D01*
X236689Y412512D01*
X236697Y412461D01*
X236694Y412409D01*
X236714Y412340D01*
X236725Y412269D01*
X236748Y412223D01*
X236763Y412173D01*
X236804Y412114D01*
X236836Y412050D01*
X236874Y412013D01*
X236903Y411971D01*
X236961Y411928D01*
X237012Y411878D01*
X237075Y411843D01*
X237101Y411824D01*
X237123Y411817D01*
X237159Y411797D01*
X238085Y411413D01*
X240213Y409285D01*
X241365Y406505D01*
X241365Y403495D01*
X240213Y400715D01*
X238085Y398587D01*
X237159Y398203D01*
X237098Y398166D01*
X237032Y398136D01*
X236994Y398101D01*
X236950Y398074D01*
X236904Y398018D01*
X236851Y397970D01*
X236826Y397924D01*
X236793Y397884D01*
X236767Y397817D01*
X236733Y397754D01*
X236723Y397703D01*
X236705Y397655D01*
X236702Y397583D01*
X236689Y397512D01*
X236697Y397461D01*
X236694Y397409D01*
X236714Y397340D01*
X236725Y397269D01*
X236748Y397223D01*
X236763Y397173D01*
X236804Y397114D01*
X236836Y397050D01*
X236874Y397013D01*
X236903Y396971D01*
X236961Y396928D01*
X237012Y396878D01*
X237075Y396843D01*
X237101Y396824D01*
X237123Y396817D01*
X237159Y396797D01*
X238085Y396413D01*
X240210Y394288D01*
X240284Y394235D01*
X240354Y394175D01*
X240384Y394163D01*
X240410Y394144D01*
X240497Y394117D01*
X240582Y394083D01*
X240623Y394079D01*
X240645Y394072D01*
X240677Y394073D01*
X240749Y394065D01*
X242128Y394065D01*
X242243Y394084D01*
X242359Y394101D01*
X242364Y394103D01*
X242371Y394104D01*
X242473Y394159D01*
X242578Y394212D01*
X242583Y394217D01*
X242588Y394220D01*
X242668Y394304D01*
X242750Y394388D01*
X242754Y394394D01*
X242757Y394398D01*
X242765Y394415D01*
X242831Y394535D01*
X243470Y396077D01*
X246543Y399150D01*
X250557Y400813D01*
X254903Y400813D01*
X258917Y399150D01*
X261990Y396077D01*
X263653Y392063D01*
X263653Y387717D01*
X261990Y383703D01*
X258917Y380630D01*
X254903Y378967D01*
X250557Y378967D01*
X246543Y380630D01*
X243470Y383703D01*
X242740Y385465D01*
X242679Y385564D01*
X242619Y385665D01*
X242614Y385669D01*
X242610Y385674D01*
X242521Y385749D01*
X242432Y385825D01*
X242426Y385827D01*
X242421Y385831D01*
X242313Y385873D01*
X242203Y385917D01*
X242196Y385918D01*
X242191Y385919D01*
X242173Y385920D01*
X242037Y385935D01*
X240749Y385935D01*
X240659Y385921D01*
X240568Y385913D01*
X240538Y385901D01*
X240506Y385896D01*
X240425Y385853D01*
X240341Y385817D01*
X240309Y385791D01*
X240289Y385780D01*
X240266Y385757D01*
X240210Y385712D01*
X238085Y383587D01*
X237159Y383203D01*
X237098Y383166D01*
X237032Y383136D01*
X236994Y383101D01*
X236950Y383074D01*
X236904Y383018D01*
X236851Y382970D01*
X236826Y382924D01*
X236793Y382884D01*
X236767Y382817D01*
X236733Y382754D01*
X236723Y382703D01*
X236705Y382655D01*
X236702Y382583D01*
X236689Y382512D01*
X236697Y382461D01*
X236694Y382409D01*
X236714Y382340D01*
X236725Y382269D01*
X236748Y382223D01*
X236763Y382173D01*
X236804Y382114D01*
X236836Y382050D01*
X236874Y382013D01*
X236903Y381971D01*
X236961Y381928D01*
X237012Y381878D01*
X237075Y381843D01*
X237101Y381824D01*
X237123Y381817D01*
X237159Y381797D01*
X238085Y381413D01*
X240213Y379285D01*
X241365Y376505D01*
X241365Y373495D01*
X240213Y370715D01*
X238063Y368565D01*
X238009Y368489D01*
X237948Y368417D01*
X237937Y368389D01*
X237920Y368366D01*
X237892Y368275D01*
X237858Y368188D01*
X237856Y368159D01*
X237848Y368131D01*
X237850Y368036D01*
X237845Y367942D01*
X237853Y367914D01*
X237854Y367885D01*
X237886Y367796D01*
X237912Y367705D01*
X237928Y367681D01*
X237938Y367654D01*
X237997Y367580D01*
X238050Y367502D01*
X238079Y367478D01*
X238092Y367462D01*
X238120Y367444D01*
X238179Y367394D01*
X239270Y366665D01*
X240508Y365427D01*
X240566Y365385D01*
X240618Y365336D01*
X240665Y365314D01*
X240707Y365284D01*
X240776Y365263D01*
X240841Y365232D01*
X240893Y365227D01*
X240943Y365211D01*
X241014Y365213D01*
X241085Y365205D01*
X241136Y365216D01*
X241188Y365218D01*
X241256Y365242D01*
X241326Y365258D01*
X241371Y365284D01*
X241419Y365302D01*
X241475Y365347D01*
X241537Y365384D01*
X241571Y365423D01*
X241611Y365456D01*
X241650Y365516D01*
X241697Y365571D01*
X241716Y365619D01*
X241744Y365663D01*
X241762Y365732D01*
X241789Y365799D01*
X241797Y365870D01*
X241805Y365901D01*
X241803Y365925D01*
X241807Y365966D01*
X241807Y366663D01*
X243470Y370677D01*
X246543Y373750D01*
X250557Y375413D01*
X254903Y375413D01*
X258917Y373750D01*
X261990Y370677D01*
X263653Y366663D01*
X263653Y362317D01*
X261990Y358303D01*
X258917Y355230D01*
X254903Y353567D01*
X250557Y353567D01*
X246543Y355230D01*
X243427Y358346D01*
X243330Y358416D01*
X243233Y358487D01*
X243230Y358487D01*
X243227Y358489D01*
X243112Y358525D01*
X242998Y358561D01*
X242995Y358561D01*
X242992Y358562D01*
X242871Y358559D01*
X242753Y358556D01*
X242750Y358555D01*
X242746Y358555D01*
X242632Y358514D01*
X242521Y358474D01*
X242518Y358472D01*
X242515Y358471D01*
X242421Y358395D01*
X242328Y358322D01*
X242326Y358319D01*
X242323Y358317D01*
X242258Y358215D01*
X242193Y358116D01*
X242192Y358112D01*
X242190Y358110D01*
X242188Y358099D01*
X242142Y357956D01*
X242051Y357497D01*
X241404Y355935D01*
X240465Y354530D01*
X239270Y353335D01*
X238179Y352606D01*
X238149Y352578D01*
X238145Y352576D01*
X238132Y352562D01*
X238110Y352541D01*
X238036Y352483D01*
X238020Y352458D01*
X237999Y352438D01*
X237979Y352401D01*
X237976Y352398D01*
X237966Y352377D01*
X237954Y352355D01*
X237903Y352276D01*
X237896Y352247D01*
X237882Y352222D01*
X237875Y352182D01*
X237872Y352174D01*
X237868Y352141D01*
X237866Y352129D01*
X237843Y352037D01*
X237846Y352008D01*
X237841Y351979D01*
X237846Y351942D01*
X237845Y351930D01*
X237855Y351883D01*
X237862Y351792D01*
X237874Y351765D01*
X237878Y351736D01*
X237894Y351707D01*
X237897Y351690D01*
X237927Y351640D01*
X237959Y351566D01*
X237982Y351537D01*
X237992Y351518D01*
X238012Y351498D01*
X238023Y351479D01*
X238039Y351465D01*
X238063Y351435D01*
X240213Y349285D01*
X241365Y346505D01*
X241365Y343495D01*
X240213Y340715D01*
X238085Y338587D01*
X237159Y338203D01*
X237098Y338166D01*
X237032Y338136D01*
X237009Y338115D01*
X237004Y338112D01*
X236993Y338100D01*
X236950Y338074D01*
X236904Y338018D01*
X236851Y337970D01*
X236826Y337924D01*
X236793Y337884D01*
X236767Y337817D01*
X236733Y337754D01*
X236723Y337703D01*
X236705Y337655D01*
X236702Y337583D01*
X236689Y337512D01*
X236697Y337461D01*
X236694Y337409D01*
X236714Y337340D01*
X236725Y337269D01*
X236748Y337223D01*
X236763Y337173D01*
X236804Y337114D01*
X236836Y337050D01*
X236874Y337013D01*
X236903Y336971D01*
X236961Y336928D01*
X237012Y336878D01*
X237075Y336843D01*
X237101Y336824D01*
X237123Y336817D01*
X237159Y336797D01*
X238085Y336413D01*
X240213Y334285D01*
X241365Y331505D01*
X241365Y328495D01*
X240213Y325715D01*
X238085Y323587D01*
X237159Y323203D01*
X237098Y323166D01*
X237032Y323136D01*
X236994Y323101D01*
X236950Y323074D01*
X236904Y323018D01*
X236851Y322970D01*
X236826Y322924D01*
X236793Y322884D01*
X236767Y322817D01*
X236733Y322754D01*
X236723Y322703D01*
X236705Y322655D01*
X236702Y322583D01*
X236689Y322512D01*
X236697Y322461D01*
X236694Y322409D01*
X236714Y322340D01*
X236725Y322269D01*
X236748Y322223D01*
X236763Y322173D01*
X236804Y322114D01*
X236836Y322050D01*
X236874Y322013D01*
X236903Y321971D01*
X236961Y321928D01*
X237012Y321878D01*
X237075Y321843D01*
X237101Y321824D01*
X237123Y321817D01*
X237159Y321797D01*
X238085Y321413D01*
X240213Y319285D01*
X241365Y316505D01*
X241365Y313495D01*
X240213Y310715D01*
X238085Y308587D01*
X237159Y308203D01*
X237098Y308166D01*
X237032Y308136D01*
X236994Y308101D01*
X236950Y308074D01*
X236904Y308018D01*
X236851Y307970D01*
X236826Y307924D01*
X236793Y307884D01*
X236767Y307817D01*
X236733Y307754D01*
X236723Y307703D01*
X236705Y307655D01*
X236702Y307583D01*
X236689Y307512D01*
X236697Y307461D01*
X236694Y307409D01*
X236714Y307340D01*
X236725Y307269D01*
X236748Y307223D01*
X236763Y307173D01*
X236804Y307114D01*
X236836Y307050D01*
X236874Y307013D01*
X236903Y306971D01*
X236961Y306928D01*
X237012Y306878D01*
X237075Y306843D01*
X237101Y306824D01*
X237123Y306817D01*
X237159Y306797D01*
X238085Y306413D01*
X240213Y304285D01*
X241365Y301505D01*
X241365Y298495D01*
X240213Y295715D01*
X238085Y293587D01*
X237159Y293203D01*
X237098Y293166D01*
X237032Y293136D01*
X236994Y293101D01*
X236950Y293074D01*
X236904Y293018D01*
X236851Y292970D01*
X236826Y292924D01*
X236793Y292884D01*
X236767Y292817D01*
X236733Y292754D01*
X236723Y292703D01*
X236705Y292655D01*
X236702Y292583D01*
X236689Y292512D01*
X236697Y292461D01*
X236694Y292409D01*
X236714Y292340D01*
X236725Y292269D01*
X236748Y292223D01*
X236763Y292173D01*
X236804Y292114D01*
X236836Y292050D01*
X236874Y292013D01*
X236903Y291971D01*
X236961Y291928D01*
X237012Y291878D01*
X237075Y291843D01*
X237101Y291824D01*
X237123Y291817D01*
X237159Y291797D01*
X238085Y291413D01*
X240213Y289285D01*
X241365Y286505D01*
X241365Y283495D01*
X240213Y280715D01*
X238085Y278587D01*
X237159Y278203D01*
X237098Y278166D01*
X237032Y278136D01*
X236994Y278101D01*
X236950Y278074D01*
X236904Y278018D01*
X236851Y277970D01*
X236826Y277924D01*
X236793Y277884D01*
X236767Y277817D01*
X236733Y277754D01*
X236723Y277703D01*
X236705Y277655D01*
X236702Y277583D01*
X236689Y277512D01*
X236697Y277461D01*
X236694Y277409D01*
X236714Y277340D01*
X236725Y277269D01*
X236748Y277223D01*
X236763Y277173D01*
X236804Y277114D01*
X236836Y277050D01*
X236874Y277013D01*
X236903Y276971D01*
X236961Y276928D01*
X237012Y276878D01*
X237075Y276843D01*
X237101Y276824D01*
X237123Y276817D01*
X237159Y276797D01*
X238085Y276413D01*
X240213Y274285D01*
X241365Y271505D01*
X241365Y268495D01*
X240213Y265715D01*
X238085Y263587D01*
X237159Y263203D01*
X237098Y263166D01*
X237032Y263136D01*
X236994Y263101D01*
X236950Y263074D01*
X236904Y263018D01*
X236851Y262970D01*
X236826Y262924D01*
X236793Y262884D01*
X236767Y262817D01*
X236733Y262754D01*
X236723Y262703D01*
X236705Y262655D01*
X236702Y262583D01*
X236689Y262512D01*
X236697Y262461D01*
X236694Y262409D01*
X236714Y262340D01*
X236725Y262269D01*
X236748Y262223D01*
X236763Y262173D01*
X236804Y262114D01*
X236836Y262050D01*
X236874Y262013D01*
X236903Y261971D01*
X236961Y261928D01*
X237012Y261878D01*
X237075Y261843D01*
X237101Y261824D01*
X237123Y261817D01*
X237159Y261797D01*
X238085Y261413D01*
X240213Y259285D01*
X241365Y256505D01*
X241365Y253495D01*
X240213Y250715D01*
X238085Y248587D01*
X237159Y248203D01*
X237098Y248166D01*
X237032Y248136D01*
X236994Y248101D01*
X236950Y248074D01*
X236904Y248018D01*
X236851Y247970D01*
X236826Y247924D01*
X236793Y247884D01*
X236767Y247817D01*
X236733Y247754D01*
X236723Y247703D01*
X236705Y247655D01*
X236702Y247583D01*
X236689Y247512D01*
X236697Y247461D01*
X236694Y247409D01*
X236714Y247340D01*
X236725Y247269D01*
X236748Y247223D01*
X236763Y247173D01*
X236804Y247114D01*
X236836Y247050D01*
X236874Y247013D01*
X236903Y246971D01*
X236961Y246928D01*
X237012Y246878D01*
X237075Y246843D01*
X237101Y246824D01*
X237123Y246817D01*
X237159Y246797D01*
X238085Y246413D01*
X240213Y244285D01*
X241365Y241505D01*
X241365Y238495D01*
X240213Y235715D01*
X238085Y233587D01*
X237159Y233203D01*
X237098Y233166D01*
X237032Y233136D01*
X236994Y233101D01*
X236950Y233074D01*
X236904Y233018D01*
X236851Y232970D01*
X236826Y232924D01*
X236793Y232884D01*
X236767Y232817D01*
X236733Y232754D01*
X236723Y232703D01*
X236705Y232655D01*
X236702Y232583D01*
X236689Y232512D01*
X236697Y232461D01*
X236694Y232409D01*
X236714Y232340D01*
X236725Y232269D01*
X236748Y232223D01*
X236763Y232173D01*
X236804Y232114D01*
X236836Y232050D01*
X236874Y232013D01*
X236903Y231971D01*
X236961Y231928D01*
X237012Y231878D01*
X237075Y231843D01*
X237101Y231824D01*
X237123Y231817D01*
X237159Y231797D01*
X238085Y231413D01*
X240213Y229285D01*
X241365Y226505D01*
X241365Y223495D01*
X240213Y220715D01*
X238085Y218587D01*
X237159Y218203D01*
X237098Y218166D01*
X237032Y218136D01*
X236994Y218101D01*
X236950Y218074D01*
X236904Y218018D01*
X236851Y217970D01*
X236826Y217924D01*
X236793Y217884D01*
X236767Y217817D01*
X236733Y217754D01*
X236723Y217703D01*
X236705Y217655D01*
X236702Y217583D01*
X236689Y217512D01*
X236697Y217461D01*
X236694Y217409D01*
X236714Y217340D01*
X236725Y217269D01*
X236748Y217223D01*
X236763Y217173D01*
X236804Y217114D01*
X236836Y217050D01*
X236874Y217013D01*
X236903Y216971D01*
X236961Y216928D01*
X237012Y216878D01*
X237075Y216843D01*
X237101Y216824D01*
X237123Y216817D01*
X237159Y216797D01*
X238085Y216413D01*
X240213Y214285D01*
X241365Y211505D01*
X241365Y208495D01*
X240213Y205715D01*
X238088Y203590D01*
X238035Y203516D01*
X237975Y203446D01*
X237963Y203416D01*
X237944Y203390D01*
X237917Y203303D01*
X237883Y203218D01*
X237879Y203177D01*
X237872Y203155D01*
X237873Y203123D01*
X237865Y203051D01*
X237865Y190500D01*
X237868Y190480D01*
X237866Y190461D01*
X237888Y190359D01*
X237904Y190257D01*
X237914Y190240D01*
X237918Y190220D01*
X237971Y190131D01*
X238020Y190040D01*
X238034Y190026D01*
X238044Y190009D01*
X238123Y189942D01*
X238198Y189871D01*
X238216Y189862D01*
X238231Y189849D01*
X238327Y189810D01*
X238421Y189767D01*
X238441Y189765D01*
X238459Y189757D01*
X238626Y189739D01*
X240539Y189739D01*
X240539Y127761D01*
X152400Y127761D01*
X152310Y127747D01*
X152219Y127739D01*
X152189Y127727D01*
X152157Y127722D01*
X152077Y127679D01*
X151993Y127643D01*
X151961Y127617D01*
X151940Y127606D01*
X151918Y127583D01*
X151862Y127538D01*
X117712Y93388D01*
X117700Y93372D01*
X117685Y93360D01*
X117628Y93272D01*
X117568Y93189D01*
X117562Y93170D01*
X117552Y93153D01*
X117526Y93052D01*
X117496Y92954D01*
X117496Y92934D01*
X117492Y92914D01*
X117500Y92811D01*
X117502Y92708D01*
X117509Y92689D01*
X117511Y92669D01*
X117551Y92574D01*
X117587Y92477D01*
X117599Y92461D01*
X117607Y92443D01*
X117681Y92350D01*
X119175Y88744D01*
X119175Y84856D01*
X117687Y81263D01*
X114937Y78513D01*
X111344Y77025D01*
X107456Y77025D01*
X103863Y78513D01*
X101113Y81263D01*
X99625Y84856D01*
X99625Y88896D01*
X99623Y88911D01*
X99626Y88939D01*
X99610Y89014D01*
X99603Y89090D01*
X99588Y89124D01*
X99586Y89139D01*
X99581Y89147D01*
X99574Y89180D01*
X99535Y89245D01*
X99504Y89315D01*
X99476Y89346D01*
X99470Y89356D01*
X99466Y89360D01*
X99448Y89391D01*
X99390Y89440D01*
X99338Y89497D01*
X99299Y89519D01*
X99292Y89525D01*
X99289Y89527D01*
X99261Y89551D01*
X99190Y89579D01*
X99123Y89616D01*
X99078Y89625D01*
X99069Y89629D01*
X99066Y89629D01*
X99033Y89643D01*
X98903Y89657D01*
X98881Y89661D01*
X98875Y89660D01*
X98866Y89661D01*
X37334Y89661D01*
X37300Y89656D01*
X37297Y89656D01*
X37286Y89654D01*
X37240Y89655D01*
X37167Y89634D01*
X37091Y89622D01*
X37059Y89604D01*
X37056Y89604D01*
X37048Y89599D01*
X37004Y89586D01*
X36941Y89542D01*
X36874Y89506D01*
X36849Y89480D01*
X36845Y89478D01*
X36839Y89470D01*
X36802Y89445D01*
X36757Y89383D01*
X36705Y89328D01*
X36690Y89296D01*
X36685Y89291D01*
X36681Y89280D01*
X36657Y89247D01*
X36633Y89174D01*
X36601Y89105D01*
X36598Y89073D01*
X36593Y89062D01*
X36591Y89043D01*
X36581Y89013D01*
X36582Y88962D01*
X36575Y88896D01*
X36575Y88867D01*
X36574Y88861D01*
X36575Y88857D01*
X36575Y84856D01*
X35087Y81263D01*
X32337Y78513D01*
X28744Y77025D01*
X24856Y77025D01*
X21263Y78513D01*
X18513Y81263D01*
X17025Y84856D01*
X17025Y88896D01*
X17023Y88911D01*
X17026Y88939D01*
X17010Y89014D01*
X17003Y89090D01*
X16988Y89124D01*
X16986Y89139D01*
X16981Y89147D01*
X16974Y89180D01*
X16935Y89245D01*
X16904Y89315D01*
X16876Y89346D01*
X16870Y89356D01*
X16866Y89360D01*
X16848Y89391D01*
X16790Y89440D01*
X16738Y89497D01*
X16699Y89519D01*
X16692Y89525D01*
X16689Y89527D01*
X16661Y89551D01*
X16590Y89579D01*
X16523Y89616D01*
X16478Y89625D01*
X16469Y89629D01*
X16466Y89629D01*
X16433Y89643D01*
X16303Y89657D01*
X16281Y89661D01*
X16275Y89660D01*
X16266Y89661D01*
X14732Y89661D01*
X14712Y89658D01*
X14693Y89660D01*
X14591Y89638D01*
X14489Y89622D01*
X14472Y89612D01*
X14452Y89608D01*
X14363Y89555D01*
X14272Y89506D01*
X14258Y89492D01*
X14241Y89482D01*
X14174Y89403D01*
X14102Y89328D01*
X14094Y89310D01*
X14081Y89295D01*
X14042Y89199D01*
X13999Y89105D01*
X13997Y89085D01*
X13989Y89067D01*
X13971Y88900D01*
X13971Y33732D01*
X13982Y33661D01*
X13984Y33590D01*
X14002Y33541D01*
X14010Y33489D01*
X14044Y33426D01*
X14069Y33359D01*
X14101Y33318D01*
X14126Y33272D01*
X14178Y33223D01*
X14222Y33167D01*
X14266Y33138D01*
X14304Y33103D01*
X14369Y33072D01*
X14429Y33034D01*
X14480Y33021D01*
X14527Y32999D01*
X14598Y32991D01*
X14668Y32974D01*
X14720Y32978D01*
X14771Y32972D01*
X14842Y32987D01*
X14913Y32993D01*
X14961Y33013D01*
X15012Y33024D01*
X15073Y33061D01*
X15139Y33089D01*
X15195Y33134D01*
X15223Y33150D01*
X15238Y33168D01*
X15270Y33194D01*
X17663Y35587D01*
X21256Y37075D01*
X25144Y37075D01*
X28737Y35587D01*
X31487Y32837D01*
X32975Y29244D01*
X32975Y25356D01*
X31487Y21763D01*
X28804Y19080D01*
X28762Y19022D01*
X28713Y18970D01*
X28691Y18923D01*
X28660Y18881D01*
X28639Y18812D01*
X28609Y18747D01*
X28603Y18695D01*
X28588Y18645D01*
X28590Y18574D01*
X28582Y18503D01*
X28593Y18452D01*
X28594Y18400D01*
X28619Y18332D01*
X28634Y18262D01*
X28661Y18217D01*
X28679Y18169D01*
X28724Y18113D01*
X28760Y18051D01*
X28800Y18017D01*
X28832Y17977D01*
X28893Y17938D01*
X28947Y17891D01*
X28996Y17872D01*
X29039Y17844D01*
X29109Y17826D01*
X29175Y17799D01*
X29247Y17791D01*
X29278Y17783D01*
X29301Y17785D01*
X29342Y17781D01*
X106858Y17781D01*
X106929Y17792D01*
G37*
G36*
X133652Y177042D02*
X133652Y177042D01*
X133671Y177040D01*
X133773Y177062D01*
X133875Y177079D01*
X133892Y177088D01*
X133912Y177092D01*
X134001Y177145D01*
X134092Y177194D01*
X134106Y177208D01*
X134123Y177218D01*
X134190Y177297D01*
X134262Y177372D01*
X134270Y177390D01*
X134283Y177405D01*
X134322Y177501D01*
X134365Y177595D01*
X134367Y177615D01*
X134375Y177633D01*
X134393Y177800D01*
X134393Y179998D01*
X135412Y181017D01*
X135465Y181091D01*
X135525Y181161D01*
X135537Y181191D01*
X135556Y181217D01*
X135583Y181304D01*
X135617Y181389D01*
X135621Y181430D01*
X135628Y181452D01*
X135627Y181484D01*
X135635Y181555D01*
X135635Y353601D01*
X135621Y353691D01*
X135613Y353782D01*
X135601Y353812D01*
X135596Y353844D01*
X135553Y353924D01*
X135517Y354008D01*
X135491Y354040D01*
X135480Y354061D01*
X135457Y354083D01*
X135412Y354139D01*
X76139Y413412D01*
X73535Y416016D01*
X73535Y483114D01*
X73532Y483134D01*
X73534Y483153D01*
X73512Y483255D01*
X73496Y483357D01*
X73486Y483374D01*
X73482Y483394D01*
X73429Y483483D01*
X73380Y483574D01*
X73366Y483588D01*
X73356Y483605D01*
X73277Y483672D01*
X73202Y483744D01*
X73184Y483752D01*
X73169Y483765D01*
X73073Y483804D01*
X72979Y483847D01*
X72959Y483849D01*
X72941Y483857D01*
X72774Y483875D01*
X69468Y483875D01*
X68575Y484768D01*
X68575Y493032D01*
X69341Y493798D01*
X69385Y493859D01*
X69420Y493895D01*
X69434Y493926D01*
X69481Y493990D01*
X69483Y493994D01*
X69485Y493997D01*
X69519Y494109D01*
X69523Y494118D01*
X69524Y494124D01*
X69556Y494224D01*
X69556Y494229D01*
X69557Y494233D01*
X69554Y494351D01*
X69552Y494470D01*
X69551Y494474D01*
X69551Y494478D01*
X69510Y494591D01*
X69470Y494702D01*
X69468Y494705D01*
X69466Y494709D01*
X69392Y494803D01*
X69319Y494896D01*
X69315Y494899D01*
X69313Y494901D01*
X69301Y494909D01*
X69184Y494995D01*
X68540Y495367D01*
X68067Y495840D01*
X67732Y496419D01*
X67559Y497066D01*
X67559Y499377D01*
X76838Y499377D01*
X76858Y499380D01*
X76877Y499378D01*
X76979Y499400D01*
X77081Y499417D01*
X77098Y499426D01*
X77118Y499430D01*
X77207Y499483D01*
X77298Y499532D01*
X77312Y499546D01*
X77329Y499556D01*
X77396Y499635D01*
X77467Y499710D01*
X77476Y499728D01*
X77489Y499743D01*
X77528Y499839D01*
X77571Y499933D01*
X77573Y499953D01*
X77581Y499971D01*
X77599Y500138D01*
X77599Y501662D01*
X77596Y501682D01*
X77598Y501701D01*
X77576Y501803D01*
X77559Y501905D01*
X77550Y501922D01*
X77546Y501942D01*
X77493Y502031D01*
X77444Y502122D01*
X77430Y502136D01*
X77420Y502153D01*
X77341Y502220D01*
X77266Y502291D01*
X77248Y502300D01*
X77233Y502313D01*
X77137Y502352D01*
X77043Y502395D01*
X77023Y502397D01*
X77005Y502405D01*
X76838Y502423D01*
X67559Y502423D01*
X67559Y504734D01*
X67732Y505381D01*
X68067Y505960D01*
X68540Y506433D01*
X69184Y506805D01*
X69276Y506880D01*
X69369Y506954D01*
X69371Y506958D01*
X69374Y506961D01*
X69437Y507061D01*
X69502Y507161D01*
X69503Y507165D01*
X69505Y507169D01*
X69532Y507283D01*
X69562Y507400D01*
X69561Y507404D01*
X69562Y507408D01*
X69552Y507527D01*
X69543Y507645D01*
X69541Y507649D01*
X69541Y507653D01*
X69492Y507763D01*
X69446Y507871D01*
X69443Y507875D01*
X69442Y507878D01*
X69432Y507889D01*
X69341Y508002D01*
X68731Y508612D01*
X68657Y508665D01*
X68588Y508725D01*
X68558Y508737D01*
X68532Y508756D01*
X68445Y508783D01*
X68360Y508817D01*
X68319Y508821D01*
X68297Y508828D01*
X68264Y508827D01*
X68193Y508835D01*
X32299Y508835D01*
X32209Y508821D01*
X32118Y508813D01*
X32088Y508801D01*
X32056Y508796D01*
X31976Y508753D01*
X31892Y508717D01*
X31860Y508691D01*
X31839Y508680D01*
X31817Y508657D01*
X31761Y508612D01*
X29688Y506539D01*
X29635Y506465D01*
X29575Y506396D01*
X29563Y506366D01*
X29544Y506340D01*
X29517Y506253D01*
X29483Y506168D01*
X29479Y506127D01*
X29472Y506104D01*
X29473Y506072D01*
X29465Y506001D01*
X29465Y373886D01*
X29468Y373866D01*
X29466Y373847D01*
X29488Y373745D01*
X29504Y373643D01*
X29514Y373626D01*
X29518Y373606D01*
X29571Y373517D01*
X29620Y373426D01*
X29634Y373412D01*
X29644Y373395D01*
X29723Y373328D01*
X29798Y373256D01*
X29816Y373248D01*
X29831Y373235D01*
X29927Y373196D01*
X30021Y373153D01*
X30041Y373151D01*
X30059Y373143D01*
X30226Y373125D01*
X33532Y373125D01*
X34425Y372232D01*
X34425Y367339D01*
X34439Y367249D01*
X34447Y367158D01*
X34459Y367128D01*
X34464Y367096D01*
X34507Y367016D01*
X34543Y366932D01*
X34569Y366900D01*
X34580Y366879D01*
X34603Y366857D01*
X34648Y366801D01*
X44501Y356948D01*
X44575Y356895D01*
X44644Y356835D01*
X44674Y356823D01*
X44700Y356804D01*
X44787Y356777D01*
X44872Y356743D01*
X44913Y356739D01*
X44936Y356732D01*
X44968Y356733D01*
X45039Y356725D01*
X47632Y356725D01*
X48563Y355794D01*
X48564Y355783D01*
X48574Y355766D01*
X48578Y355746D01*
X48631Y355657D01*
X48680Y355566D01*
X48694Y355552D01*
X48704Y355535D01*
X48783Y355468D01*
X48858Y355396D01*
X48876Y355388D01*
X48891Y355375D01*
X48987Y355336D01*
X49081Y355293D01*
X49101Y355291D01*
X49119Y355283D01*
X49286Y355265D01*
X52110Y355265D01*
X52130Y355268D01*
X52149Y355266D01*
X52251Y355288D01*
X52353Y355304D01*
X52370Y355314D01*
X52390Y355318D01*
X52479Y355371D01*
X52570Y355420D01*
X52584Y355434D01*
X52601Y355444D01*
X52668Y355523D01*
X52740Y355598D01*
X52748Y355616D01*
X52761Y355631D01*
X52800Y355727D01*
X52843Y355821D01*
X52845Y355841D01*
X52853Y355859D01*
X52871Y356026D01*
X52871Y358567D01*
X57633Y363329D01*
X69367Y363329D01*
X74129Y358567D01*
X74129Y338335D01*
X74143Y338245D01*
X74151Y338154D01*
X74163Y338124D01*
X74168Y338092D01*
X74211Y338012D01*
X74247Y337928D01*
X74273Y337896D01*
X74284Y337875D01*
X74307Y337853D01*
X74352Y337797D01*
X80265Y331884D01*
X80265Y192499D01*
X80279Y192409D01*
X80287Y192318D01*
X80299Y192288D01*
X80304Y192256D01*
X80347Y192176D01*
X80383Y192092D01*
X80409Y192060D01*
X80420Y192039D01*
X80443Y192017D01*
X80488Y191961D01*
X95187Y177262D01*
X95261Y177209D01*
X95330Y177149D01*
X95360Y177137D01*
X95386Y177118D01*
X95473Y177091D01*
X95558Y177057D01*
X95599Y177053D01*
X95621Y177046D01*
X95654Y177047D01*
X95725Y177039D01*
X133632Y177039D01*
X133652Y177042D01*
G37*
G36*
X101602Y101597D02*
X101602Y101597D01*
X101604Y101597D01*
X139702Y139695D01*
X228600Y139695D01*
X228605Y139699D01*
X228605Y139700D01*
X228605Y151768D01*
X228603Y151770D01*
X228602Y151773D01*
X228601Y151773D01*
X228598Y151771D01*
X228595Y151770D01*
X228575Y151708D01*
X227590Y149775D01*
X226315Y148019D01*
X224781Y146485D01*
X223025Y145210D01*
X221092Y144225D01*
X219028Y143554D01*
X216885Y143215D01*
X215805Y143215D01*
X215805Y157000D01*
X215801Y157005D01*
X215800Y157005D01*
X202015Y157005D01*
X202015Y158085D01*
X202015Y158089D01*
X202016Y158094D01*
X202017Y158099D01*
X202019Y158109D01*
X202019Y158114D01*
X202020Y158119D01*
X202021Y158124D01*
X202023Y158139D01*
X202024Y158144D01*
X202025Y158149D01*
X202027Y158164D01*
X202028Y158169D01*
X202029Y158174D01*
X202030Y158179D01*
X202031Y158188D01*
X202031Y158189D01*
X202032Y158193D01*
X202033Y158198D01*
X202034Y158203D01*
X202036Y158218D01*
X202037Y158223D01*
X202037Y158228D01*
X202038Y158228D01*
X202037Y158228D01*
X202038Y158233D01*
X202040Y158243D01*
X202041Y158248D01*
X202041Y158253D01*
X202042Y158258D01*
X202045Y158273D01*
X202045Y158278D01*
X202046Y158283D01*
X202047Y158288D01*
X202049Y158298D01*
X202049Y158303D01*
X202050Y158308D01*
X202051Y158313D01*
X202053Y158328D01*
X202054Y158333D01*
X202055Y158338D01*
X202056Y158342D01*
X202056Y158343D01*
X202057Y158352D01*
X202058Y158357D01*
X202059Y158362D01*
X202060Y158367D01*
X202062Y158382D01*
X202063Y158387D01*
X202063Y158392D01*
X202066Y158407D01*
X202067Y158412D01*
X202067Y158417D01*
X202068Y158422D01*
X202071Y158437D01*
X202071Y158442D01*
X202072Y158447D01*
X202074Y158462D01*
X202075Y158462D01*
X202074Y158462D01*
X202075Y158467D01*
X202076Y158472D01*
X202077Y158477D01*
X202078Y158487D01*
X202079Y158492D01*
X202080Y158497D01*
X202081Y158501D01*
X202081Y158502D01*
X202083Y158516D01*
X202084Y158521D01*
X202085Y158526D01*
X202085Y158531D01*
X202086Y158531D01*
X202087Y158541D01*
X202088Y158546D01*
X202089Y158551D01*
X202089Y158556D01*
X202092Y158571D01*
X202093Y158576D01*
X202093Y158581D01*
X202094Y158586D01*
X202096Y158596D01*
X202097Y158601D01*
X202097Y158606D01*
X202098Y158611D01*
X202100Y158626D01*
X202101Y158631D01*
X202102Y158636D01*
X202104Y158651D01*
X202105Y158656D01*
X202106Y158660D01*
X202106Y158661D01*
X202107Y158665D01*
X202107Y158666D01*
X202109Y158680D01*
X202110Y158685D01*
X202111Y158690D01*
X202113Y158705D01*
X202114Y158710D01*
X202115Y158715D01*
X202115Y158720D01*
X202117Y158730D01*
X202118Y158735D01*
X202119Y158740D01*
X202119Y158745D01*
X202122Y158760D01*
X202122Y158765D01*
X202123Y158765D01*
X202122Y158765D01*
X202123Y158770D01*
X202124Y158775D01*
X202126Y158785D01*
X202126Y158790D01*
X202127Y158795D01*
X202128Y158800D01*
X202130Y158815D01*
X202131Y158819D01*
X202131Y158820D01*
X202132Y158824D01*
X202132Y158825D01*
X202133Y158829D01*
X202134Y158839D01*
X202135Y158844D01*
X202136Y158849D01*
X202137Y158854D01*
X202139Y158869D01*
X202140Y158874D01*
X202141Y158879D01*
X202141Y158884D01*
X202143Y158894D01*
X202144Y158899D01*
X202145Y158904D01*
X202145Y158909D01*
X202148Y158924D01*
X202148Y158929D01*
X202149Y158934D01*
X202152Y158949D01*
X202152Y158954D01*
X202153Y158959D01*
X202154Y158964D01*
X202156Y158974D01*
X202156Y158978D01*
X202156Y158979D01*
X202157Y158983D01*
X202157Y158984D01*
X202158Y158988D01*
X202160Y159003D01*
X202161Y159008D01*
X202162Y159013D01*
X202163Y159018D01*
X202164Y159028D01*
X202165Y159033D01*
X202166Y159038D01*
X202167Y159043D01*
X202169Y159058D01*
X202170Y159063D01*
X202170Y159068D01*
X202171Y159068D01*
X202170Y159068D01*
X202171Y159073D01*
X202173Y159083D01*
X202174Y159088D01*
X202174Y159093D01*
X202175Y159098D01*
X202178Y159113D01*
X202178Y159118D01*
X202179Y159123D01*
X202180Y159128D01*
X202182Y159137D01*
X202182Y159138D01*
X202182Y159142D01*
X202182Y159143D01*
X202183Y159147D01*
X202184Y159152D01*
X202186Y159167D01*
X202187Y159172D01*
X202188Y159177D01*
X202190Y159192D01*
X202191Y159197D01*
X202192Y159202D01*
X202193Y159207D01*
X202194Y159217D01*
X202195Y159222D01*
X202196Y159227D01*
X202196Y159232D01*
X202199Y159247D01*
X202200Y159252D01*
X202200Y159257D01*
X202201Y159262D01*
X202203Y159272D01*
X202204Y159277D01*
X202204Y159282D01*
X202205Y159287D01*
X202207Y159301D01*
X202208Y159301D01*
X202207Y159302D01*
X202208Y159306D01*
X202209Y159311D01*
X202210Y159316D01*
X202211Y159326D01*
X202212Y159331D01*
X202213Y159336D01*
X202214Y159341D01*
X202216Y159356D01*
X202217Y159361D01*
X202218Y159366D01*
X202218Y159371D01*
X202219Y159371D01*
X202220Y159381D01*
X202221Y159386D01*
X202222Y159391D01*
X202222Y159396D01*
X202225Y159411D01*
X202226Y159416D01*
X202226Y159421D01*
X202229Y159436D01*
X202230Y159441D01*
X202230Y159446D01*
X202231Y159451D01*
X202233Y159465D01*
X202234Y159470D01*
X202235Y159475D01*
X202237Y159490D01*
X202238Y159495D01*
X202239Y159500D01*
X202240Y159505D01*
X202241Y159515D01*
X202242Y159520D01*
X202243Y159525D01*
X202244Y159530D01*
X202246Y159545D01*
X202247Y159550D01*
X202248Y159555D01*
X202248Y159560D01*
X202250Y159570D01*
X202251Y159575D01*
X202252Y159580D01*
X202252Y159585D01*
X202255Y159600D01*
X202255Y159605D01*
X202256Y159605D01*
X202255Y159605D01*
X202256Y159610D01*
X202257Y159614D01*
X202257Y159615D01*
X202259Y159624D01*
X202259Y159629D01*
X202260Y159634D01*
X202261Y159639D01*
X202263Y159654D01*
X202264Y159659D01*
X202265Y159664D01*
X202267Y159679D01*
X202268Y159684D01*
X202269Y159689D01*
X202270Y159694D01*
X202272Y159709D01*
X202273Y159714D01*
X202274Y159719D01*
X202276Y159734D01*
X202277Y159739D01*
X202278Y159744D01*
X202278Y159749D01*
X202280Y159759D01*
X202281Y159764D01*
X202281Y159769D01*
X202282Y159773D01*
X202282Y159774D01*
X202285Y159788D01*
X202285Y159793D01*
X202286Y159798D01*
X202287Y159803D01*
X202289Y159813D01*
X202289Y159818D01*
X202290Y159823D01*
X202291Y159828D01*
X202293Y159843D01*
X202294Y159848D01*
X202295Y159853D01*
X202296Y159858D01*
X202297Y159868D01*
X202298Y159873D01*
X202299Y159878D01*
X202300Y159883D01*
X202302Y159898D01*
X202303Y159903D01*
X202303Y159908D01*
X202304Y159908D01*
X202303Y159908D01*
X202304Y159913D01*
X202306Y159923D01*
X202307Y159928D01*
X202307Y159932D01*
X202307Y159933D01*
X202308Y159937D01*
X202308Y159938D01*
X202311Y159952D01*
X202311Y159957D01*
X202312Y159962D01*
X202315Y159977D01*
X202315Y159982D01*
X202316Y159987D01*
X202317Y159992D01*
X202318Y160002D01*
X202319Y160007D01*
X202320Y160012D01*
X202321Y160017D01*
X202323Y160032D01*
X202324Y160037D01*
X202325Y160042D01*
X202326Y160047D01*
X202327Y160057D01*
X202328Y160062D01*
X202329Y160067D01*
X202329Y160072D01*
X202332Y160087D01*
X202333Y160091D01*
X202333Y160092D01*
X202333Y160096D01*
X202333Y160097D01*
X202334Y160101D01*
X202336Y160111D01*
X202337Y160116D01*
X202337Y160121D01*
X202338Y160126D01*
X202340Y160141D01*
X202341Y160141D01*
X202340Y160141D01*
X202341Y160146D01*
X202342Y160151D01*
X202343Y160156D01*
X202344Y160166D01*
X202345Y160171D01*
X202346Y160176D01*
X202347Y160181D01*
X202349Y160196D01*
X202350Y160201D01*
X202351Y160206D01*
X202353Y160221D01*
X202354Y160226D01*
X202354Y160228D01*
X203025Y162292D01*
X204010Y164225D01*
X205285Y165981D01*
X206819Y167515D01*
X208575Y168790D01*
X210508Y169775D01*
X210957Y169921D01*
X210959Y169923D01*
X210961Y169925D01*
X210960Y169926D01*
X210961Y169927D01*
X210958Y169928D01*
X210956Y169931D01*
X204214Y169931D01*
X204209Y169926D01*
X204209Y165861D01*
X203319Y164971D01*
X189061Y164971D01*
X188171Y165861D01*
X188171Y177800D01*
X188166Y177805D01*
X185214Y177805D01*
X185209Y177801D01*
X185210Y177800D01*
X185209Y177800D01*
X185209Y165861D01*
X184319Y164971D01*
X170061Y164971D01*
X169171Y165861D01*
X169171Y174111D01*
X169169Y174113D01*
X169169Y174115D01*
X166527Y176757D01*
X166527Y177800D01*
X166522Y177805D01*
X165105Y177805D01*
X165105Y341750D01*
X165101Y341755D01*
X165100Y341754D01*
X165100Y341755D01*
X161296Y341755D01*
X160364Y342141D01*
X159651Y342854D01*
X159265Y343786D01*
X159265Y351785D01*
X165100Y351785D01*
X165105Y351789D01*
X165105Y351790D01*
X165101Y351795D01*
X165100Y351795D01*
X159265Y351795D01*
X159265Y359794D01*
X159651Y360726D01*
X160364Y361439D01*
X161296Y361825D01*
X165100Y361825D01*
X165105Y361830D01*
X165105Y368300D01*
X165101Y368305D01*
X165100Y368305D01*
X152400Y368305D01*
X152395Y368301D01*
X152395Y368300D01*
X152395Y165105D01*
X107348Y165105D01*
X107346Y165104D01*
X107345Y165104D01*
X107344Y165102D01*
X107343Y165101D01*
X107344Y165099D01*
X107344Y165097D01*
X114738Y157703D01*
X114740Y157703D01*
X114740Y157702D01*
X114741Y157702D01*
X114741Y157701D01*
X116496Y157701D01*
X119601Y154596D01*
X119601Y150204D01*
X116496Y147099D01*
X112104Y147099D01*
X108999Y150204D01*
X108999Y151959D01*
X108997Y151960D01*
X108997Y151962D01*
X95856Y165104D01*
X95854Y165104D01*
X95852Y165105D01*
X54864Y165105D01*
X54859Y165101D01*
X54860Y165100D01*
X54859Y165100D01*
X54859Y156239D01*
X54861Y156237D01*
X54861Y156235D01*
X56383Y154713D01*
X56383Y150087D01*
X54861Y148565D01*
X54861Y148562D01*
X54859Y148561D01*
X54859Y130440D01*
X54861Y130438D01*
X54861Y130436D01*
X56101Y129196D01*
X56101Y124804D01*
X52996Y121699D01*
X48604Y121699D01*
X45499Y124804D01*
X45499Y129196D01*
X46739Y130436D01*
X46739Y130438D01*
X46740Y130438D01*
X46739Y130438D01*
X46739Y130439D01*
X46741Y130440D01*
X46741Y146812D01*
X46736Y146817D01*
X46736Y146816D01*
X46736Y146817D01*
X23087Y146817D01*
X19817Y150087D01*
X19817Y154713D01*
X23087Y157983D01*
X32512Y157983D01*
X32517Y157988D01*
X32516Y157988D01*
X32517Y157988D01*
X32517Y165100D01*
X32512Y165105D01*
X13970Y165105D01*
X13965Y165101D01*
X13966Y165100D01*
X13965Y165100D01*
X13965Y101600D01*
X13970Y101595D01*
X101600Y101595D01*
X101602Y101597D01*
G37*
G36*
X58694Y177042D02*
X58694Y177042D01*
X58713Y177040D01*
X58815Y177062D01*
X58917Y177079D01*
X58934Y177088D01*
X58954Y177092D01*
X59043Y177145D01*
X59134Y177194D01*
X59148Y177208D01*
X59165Y177218D01*
X59232Y177297D01*
X59304Y177372D01*
X59312Y177390D01*
X59325Y177405D01*
X59364Y177501D01*
X59407Y177595D01*
X59409Y177615D01*
X59417Y177633D01*
X59435Y177800D01*
X59435Y323704D01*
X59424Y323775D01*
X59422Y323847D01*
X59404Y323896D01*
X59396Y323947D01*
X59362Y324010D01*
X59337Y324078D01*
X59305Y324118D01*
X59280Y324164D01*
X59228Y324214D01*
X59184Y324270D01*
X59140Y324298D01*
X59102Y324334D01*
X59037Y324364D01*
X58977Y324403D01*
X58926Y324416D01*
X58879Y324437D01*
X58808Y324445D01*
X58738Y324463D01*
X58686Y324459D01*
X58635Y324465D01*
X58564Y324449D01*
X58493Y324444D01*
X58445Y324423D01*
X58394Y324412D01*
X58333Y324375D01*
X58267Y324347D01*
X58211Y324303D01*
X58183Y324286D01*
X58168Y324268D01*
X58136Y324243D01*
X58060Y324167D01*
X57481Y323832D01*
X56834Y323659D01*
X55249Y323659D01*
X55249Y329712D01*
X55246Y329731D01*
X55248Y329751D01*
X55226Y329853D01*
X55210Y329955D01*
X55200Y329972D01*
X55196Y329992D01*
X55143Y330081D01*
X55094Y330172D01*
X55080Y330186D01*
X55070Y330203D01*
X54991Y330270D01*
X54916Y330341D01*
X54898Y330350D01*
X54883Y330363D01*
X54787Y330401D01*
X54693Y330445D01*
X54673Y330447D01*
X54655Y330455D01*
X54488Y330473D01*
X53512Y330473D01*
X53492Y330470D01*
X53472Y330472D01*
X53371Y330450D01*
X53269Y330433D01*
X53252Y330424D01*
X53232Y330420D01*
X53143Y330367D01*
X53052Y330318D01*
X53038Y330304D01*
X53021Y330294D01*
X52954Y330215D01*
X52882Y330140D01*
X52874Y330122D01*
X52861Y330107D01*
X52822Y330010D01*
X52779Y329917D01*
X52777Y329897D01*
X52769Y329879D01*
X52751Y329712D01*
X52751Y323659D01*
X51166Y323659D01*
X50519Y323832D01*
X49940Y324167D01*
X49560Y324547D01*
X49502Y324589D01*
X49450Y324638D01*
X49403Y324660D01*
X49361Y324690D01*
X49292Y324711D01*
X49227Y324741D01*
X49175Y324747D01*
X49125Y324763D01*
X49054Y324761D01*
X48983Y324769D01*
X48932Y324757D01*
X48880Y324756D01*
X48812Y324732D01*
X48742Y324716D01*
X48697Y324690D01*
X48649Y324672D01*
X48593Y324627D01*
X48531Y324590D01*
X48497Y324551D01*
X48457Y324518D01*
X48418Y324458D01*
X48371Y324403D01*
X48352Y324355D01*
X48324Y324311D01*
X48306Y324242D01*
X48279Y324175D01*
X48271Y324104D01*
X48263Y324073D01*
X48265Y324049D01*
X48261Y324008D01*
X48261Y318712D01*
X47348Y317799D01*
X47295Y317725D01*
X47235Y317656D01*
X47223Y317626D01*
X47204Y317600D01*
X47177Y317513D01*
X47143Y317428D01*
X47139Y317387D01*
X47132Y317364D01*
X47133Y317332D01*
X47125Y317261D01*
X47125Y307168D01*
X46232Y306275D01*
X29968Y306275D01*
X29075Y307168D01*
X29075Y321432D01*
X29968Y322325D01*
X39370Y322325D01*
X39390Y322328D01*
X39409Y322326D01*
X39511Y322348D01*
X39613Y322364D01*
X39630Y322374D01*
X39650Y322378D01*
X39739Y322431D01*
X39830Y322480D01*
X39844Y322494D01*
X39861Y322504D01*
X39928Y322583D01*
X40000Y322658D01*
X40008Y322676D01*
X40021Y322691D01*
X40059Y322787D01*
X40103Y322881D01*
X40105Y322901D01*
X40113Y322919D01*
X40131Y323086D01*
X40131Y331419D01*
X40212Y331500D01*
X40265Y331574D01*
X40325Y331644D01*
X40337Y331674D01*
X40356Y331700D01*
X40383Y331787D01*
X40417Y331872D01*
X40421Y331913D01*
X40428Y331935D01*
X40427Y331967D01*
X40432Y332011D01*
X40457Y332072D01*
X40461Y332113D01*
X40468Y332136D01*
X40467Y332168D01*
X40475Y332239D01*
X40475Y334832D01*
X41368Y335725D01*
X42610Y335725D01*
X42630Y335728D01*
X42649Y335726D01*
X42751Y335748D01*
X42853Y335764D01*
X42870Y335774D01*
X42890Y335778D01*
X42979Y335831D01*
X43070Y335880D01*
X43084Y335894D01*
X43101Y335904D01*
X43168Y335983D01*
X43240Y336058D01*
X43248Y336076D01*
X43261Y336091D01*
X43300Y336187D01*
X43343Y336281D01*
X43345Y336301D01*
X43353Y336319D01*
X43371Y336486D01*
X43371Y337567D01*
X48133Y342329D01*
X59867Y342329D01*
X62025Y340171D01*
X64700Y337496D01*
X64758Y337454D01*
X64810Y337405D01*
X64857Y337383D01*
X64899Y337352D01*
X64968Y337331D01*
X65033Y337301D01*
X65085Y337295D01*
X65135Y337280D01*
X65206Y337282D01*
X65277Y337274D01*
X65328Y337285D01*
X65380Y337286D01*
X65448Y337311D01*
X65518Y337326D01*
X65563Y337353D01*
X65611Y337371D01*
X65667Y337416D01*
X65729Y337453D01*
X65763Y337492D01*
X65803Y337525D01*
X65842Y337585D01*
X65889Y337639D01*
X65908Y337688D01*
X65936Y337732D01*
X65954Y337801D01*
X65981Y337868D01*
X65989Y337939D01*
X65997Y337970D01*
X65995Y337993D01*
X65999Y338034D01*
X65999Y344914D01*
X65996Y344934D01*
X65998Y344953D01*
X65976Y345055D01*
X65960Y345157D01*
X65950Y345174D01*
X65946Y345194D01*
X65893Y345283D01*
X65844Y345374D01*
X65830Y345388D01*
X65820Y345405D01*
X65741Y345472D01*
X65666Y345544D01*
X65648Y345552D01*
X65633Y345565D01*
X65537Y345604D01*
X65443Y345647D01*
X65423Y345649D01*
X65405Y345657D01*
X65238Y345675D01*
X60368Y345675D01*
X59475Y346568D01*
X59475Y347889D01*
X59464Y347960D01*
X59462Y348032D01*
X59444Y348080D01*
X59436Y348132D01*
X59402Y348195D01*
X59377Y348263D01*
X59345Y348303D01*
X59320Y348349D01*
X59268Y348399D01*
X59224Y348455D01*
X59180Y348483D01*
X59142Y348519D01*
X59077Y348549D01*
X59017Y348588D01*
X58966Y348600D01*
X58919Y348622D01*
X58848Y348630D01*
X58778Y348648D01*
X58726Y348644D01*
X58675Y348649D01*
X58604Y348634D01*
X58533Y348628D01*
X58485Y348608D01*
X58434Y348597D01*
X58373Y348560D01*
X58307Y348532D01*
X58251Y348487D01*
X58223Y348471D01*
X58208Y348453D01*
X58176Y348427D01*
X56884Y347135D01*
X49286Y347135D01*
X49266Y347132D01*
X49247Y347134D01*
X49145Y347112D01*
X49043Y347096D01*
X49026Y347086D01*
X49006Y347082D01*
X48917Y347029D01*
X48826Y346980D01*
X48812Y346966D01*
X48795Y346956D01*
X48728Y346877D01*
X48656Y346802D01*
X48648Y346784D01*
X48635Y346769D01*
X48596Y346673D01*
X48568Y346612D01*
X47632Y345675D01*
X41368Y345675D01*
X40475Y346568D01*
X40475Y349161D01*
X40461Y349251D01*
X40453Y349342D01*
X40441Y349372D01*
X40436Y349404D01*
X40393Y349484D01*
X40357Y349568D01*
X40331Y349601D01*
X40320Y349621D01*
X40297Y349643D01*
X40252Y349699D01*
X36740Y353211D01*
X36682Y353253D01*
X36630Y353303D01*
X36583Y353325D01*
X36541Y353355D01*
X36472Y353376D01*
X36407Y353406D01*
X36355Y353412D01*
X36305Y353427D01*
X36234Y353425D01*
X36163Y353433D01*
X36112Y353422D01*
X36060Y353421D01*
X35992Y353396D01*
X35922Y353381D01*
X35877Y353354D01*
X35829Y353336D01*
X35773Y353292D01*
X35711Y353255D01*
X35677Y353215D01*
X35637Y353183D01*
X35598Y353122D01*
X35551Y353068D01*
X35532Y353020D01*
X35504Y352976D01*
X35486Y352906D01*
X35459Y352840D01*
X35451Y352768D01*
X35443Y352737D01*
X35445Y352714D01*
X35441Y352673D01*
X35441Y347623D01*
X26923Y347623D01*
X26923Y355141D01*
X32973Y355141D01*
X33044Y355152D01*
X33116Y355154D01*
X33164Y355172D01*
X33216Y355180D01*
X33279Y355214D01*
X33347Y355239D01*
X33387Y355271D01*
X33433Y355296D01*
X33483Y355347D01*
X33539Y355392D01*
X33567Y355436D01*
X33603Y355474D01*
X33633Y355539D01*
X33672Y355599D01*
X33684Y355650D01*
X33706Y355697D01*
X33714Y355768D01*
X33732Y355838D01*
X33728Y355890D01*
X33733Y355941D01*
X33718Y356012D01*
X33712Y356083D01*
X33692Y356131D01*
X33681Y356182D01*
X33644Y356243D01*
X33616Y356309D01*
X33571Y356365D01*
X33555Y356393D01*
X33537Y356408D01*
X33511Y356440D01*
X33099Y356852D01*
X33025Y356906D01*
X32956Y356965D01*
X32926Y356977D01*
X32900Y356996D01*
X32812Y357023D01*
X32728Y357057D01*
X32687Y357061D01*
X32664Y357068D01*
X32632Y357067D01*
X32561Y357075D01*
X17268Y357075D01*
X16375Y357968D01*
X16375Y372232D01*
X17268Y373125D01*
X20574Y373125D01*
X20594Y373128D01*
X20613Y373126D01*
X20715Y373148D01*
X20817Y373164D01*
X20834Y373174D01*
X20854Y373178D01*
X20943Y373231D01*
X21034Y373280D01*
X21048Y373294D01*
X21065Y373304D01*
X21132Y373383D01*
X21204Y373458D01*
X21212Y373476D01*
X21225Y373491D01*
X21264Y373587D01*
X21307Y373681D01*
X21309Y373701D01*
X21317Y373719D01*
X21335Y373886D01*
X21335Y509684D01*
X28616Y516965D01*
X57939Y516965D01*
X58009Y516976D01*
X58081Y516978D01*
X58130Y516996D01*
X58181Y517004D01*
X58245Y517038D01*
X58312Y517063D01*
X58353Y517095D01*
X58399Y517120D01*
X58448Y517172D01*
X58504Y517216D01*
X58532Y517260D01*
X58568Y517298D01*
X58598Y517363D01*
X58637Y517423D01*
X58650Y517474D01*
X58672Y517521D01*
X58680Y517592D01*
X58697Y517662D01*
X58693Y517714D01*
X58699Y517765D01*
X58684Y517836D01*
X58678Y517907D01*
X58658Y517955D01*
X58647Y518006D01*
X58610Y518067D01*
X58582Y518133D01*
X58537Y518189D01*
X58520Y518217D01*
X58503Y518232D01*
X58477Y518264D01*
X58193Y518548D01*
X58193Y522944D01*
X61302Y526053D01*
X62743Y526053D01*
X62833Y526067D01*
X62924Y526075D01*
X62954Y526087D01*
X62986Y526092D01*
X63066Y526135D01*
X63150Y526171D01*
X63182Y526197D01*
X63203Y526208D01*
X63225Y526231D01*
X63281Y526276D01*
X65970Y528965D01*
X68193Y528965D01*
X68283Y528979D01*
X68374Y528987D01*
X68404Y528999D01*
X68436Y529004D01*
X68517Y529047D01*
X68600Y529083D01*
X68633Y529109D01*
X68653Y529120D01*
X68675Y529143D01*
X68731Y529188D01*
X69468Y529925D01*
X81280Y529925D01*
X81300Y529928D01*
X81319Y529926D01*
X81421Y529948D01*
X81523Y529964D01*
X81540Y529974D01*
X81560Y529978D01*
X81649Y530031D01*
X81740Y530080D01*
X81754Y530094D01*
X81771Y530104D01*
X81838Y530183D01*
X81910Y530258D01*
X81918Y530276D01*
X81931Y530291D01*
X81970Y530387D01*
X82013Y530481D01*
X82015Y530501D01*
X82023Y530519D01*
X82041Y530686D01*
X82041Y531114D01*
X82038Y531134D01*
X82040Y531153D01*
X82018Y531255D01*
X82002Y531357D01*
X81992Y531374D01*
X81988Y531394D01*
X81935Y531483D01*
X81886Y531574D01*
X81872Y531588D01*
X81862Y531605D01*
X81783Y531672D01*
X81708Y531744D01*
X81690Y531752D01*
X81675Y531765D01*
X81579Y531804D01*
X81485Y531847D01*
X81465Y531849D01*
X81447Y531857D01*
X81280Y531875D01*
X69468Y531875D01*
X68731Y532612D01*
X68657Y532665D01*
X68588Y532725D01*
X68558Y532737D01*
X68532Y532756D01*
X68445Y532783D01*
X68360Y532817D01*
X68319Y532821D01*
X68297Y532828D01*
X68264Y532827D01*
X68193Y532835D01*
X56868Y532835D01*
X56848Y532832D01*
X56829Y532834D01*
X56727Y532812D01*
X56625Y532796D01*
X56608Y532786D01*
X56588Y532782D01*
X56499Y532729D01*
X56408Y532680D01*
X56394Y532666D01*
X56377Y532656D01*
X56310Y532577D01*
X56238Y532502D01*
X56230Y532484D01*
X56217Y532469D01*
X56178Y532373D01*
X56135Y532279D01*
X56133Y532259D01*
X56125Y532241D01*
X56107Y532074D01*
X56107Y531202D01*
X52998Y528093D01*
X48602Y528093D01*
X45493Y531202D01*
X45493Y535598D01*
X48602Y538707D01*
X50043Y538707D01*
X50133Y538721D01*
X50224Y538729D01*
X50254Y538741D01*
X50286Y538746D01*
X50366Y538789D01*
X50450Y538825D01*
X50483Y538851D01*
X50503Y538862D01*
X50525Y538885D01*
X50581Y538930D01*
X51881Y540230D01*
X51923Y540288D01*
X51973Y540340D01*
X51995Y540387D01*
X52025Y540429D01*
X52046Y540498D01*
X52076Y540563D01*
X52082Y540615D01*
X52097Y540665D01*
X52095Y540736D01*
X52103Y540807D01*
X52092Y540858D01*
X52091Y540910D01*
X52066Y540978D01*
X52051Y541048D01*
X52024Y541093D01*
X52006Y541141D01*
X51962Y541197D01*
X51925Y541259D01*
X51885Y541293D01*
X51853Y541333D01*
X51792Y541372D01*
X51738Y541419D01*
X51690Y541438D01*
X51646Y541466D01*
X51576Y541484D01*
X51510Y541511D01*
X51438Y541519D01*
X51407Y541527D01*
X51384Y541525D01*
X51343Y541529D01*
X14732Y541529D01*
X14712Y541526D01*
X14693Y541528D01*
X14591Y541506D01*
X14489Y541490D01*
X14472Y541480D01*
X14452Y541476D01*
X14363Y541423D01*
X14272Y541374D01*
X14258Y541360D01*
X14241Y541350D01*
X14174Y541271D01*
X14102Y541196D01*
X14094Y541178D01*
X14081Y541163D01*
X14042Y541067D01*
X13999Y540973D01*
X13997Y540953D01*
X13989Y540935D01*
X13971Y540768D01*
X13971Y353535D01*
X13975Y353511D01*
X13972Y353487D01*
X13994Y353390D01*
X14010Y353292D01*
X14022Y353271D01*
X14027Y353247D01*
X14079Y353162D01*
X14126Y353074D01*
X14143Y353058D01*
X14156Y353037D01*
X14232Y352973D01*
X14304Y352905D01*
X14326Y352895D01*
X14344Y352879D01*
X14437Y352843D01*
X14527Y352801D01*
X14551Y352799D01*
X14573Y352790D01*
X14673Y352785D01*
X14771Y352774D01*
X14795Y352779D01*
X14819Y352778D01*
X14915Y352805D01*
X15012Y352827D01*
X15033Y352839D01*
X15056Y352846D01*
X15138Y352902D01*
X15223Y352953D01*
X15239Y352971D01*
X15258Y352985D01*
X15318Y353064D01*
X15383Y353140D01*
X15392Y353162D01*
X15406Y353181D01*
X15467Y353338D01*
X15532Y353581D01*
X15867Y354160D01*
X16340Y354633D01*
X16919Y354968D01*
X17566Y355141D01*
X23877Y355141D01*
X23877Y346862D01*
X23880Y346842D01*
X23878Y346823D01*
X23900Y346721D01*
X23917Y346619D01*
X23926Y346602D01*
X23930Y346582D01*
X23983Y346493D01*
X24032Y346402D01*
X24046Y346388D01*
X24056Y346371D01*
X24135Y346304D01*
X24210Y346233D01*
X24228Y346224D01*
X24243Y346211D01*
X24339Y346172D01*
X24433Y346129D01*
X24453Y346127D01*
X24471Y346119D01*
X24638Y346101D01*
X25401Y346101D01*
X25401Y346099D01*
X24638Y346099D01*
X24618Y346096D01*
X24599Y346098D01*
X24497Y346076D01*
X24395Y346059D01*
X24378Y346050D01*
X24358Y346046D01*
X24269Y345993D01*
X24178Y345944D01*
X24164Y345930D01*
X24147Y345920D01*
X24080Y345841D01*
X24009Y345766D01*
X24000Y345748D01*
X23987Y345733D01*
X23948Y345637D01*
X23905Y345543D01*
X23903Y345523D01*
X23895Y345505D01*
X23877Y345338D01*
X23877Y337059D01*
X17566Y337059D01*
X16919Y337232D01*
X16340Y337567D01*
X15867Y338040D01*
X15532Y338619D01*
X15467Y338862D01*
X15457Y338884D01*
X15453Y338908D01*
X15407Y338996D01*
X15366Y339087D01*
X15350Y339104D01*
X15338Y339126D01*
X15266Y339194D01*
X15199Y339267D01*
X15178Y339278D01*
X15160Y339295D01*
X15070Y339337D01*
X14983Y339384D01*
X14959Y339388D01*
X14937Y339399D01*
X14838Y339409D01*
X14740Y339427D01*
X14716Y339423D01*
X14693Y339426D01*
X14595Y339405D01*
X14497Y339390D01*
X14476Y339379D01*
X14452Y339373D01*
X14367Y339322D01*
X14279Y339277D01*
X14262Y339260D01*
X14241Y339247D01*
X14176Y339172D01*
X14107Y339100D01*
X14097Y339079D01*
X14081Y339060D01*
X14044Y338968D01*
X14001Y338878D01*
X13998Y338855D01*
X13989Y338832D01*
X13971Y338665D01*
X13971Y177800D01*
X13974Y177780D01*
X13972Y177761D01*
X13994Y177659D01*
X14010Y177557D01*
X14020Y177540D01*
X14024Y177520D01*
X14077Y177431D01*
X14126Y177340D01*
X14140Y177326D01*
X14150Y177309D01*
X14229Y177242D01*
X14304Y177171D01*
X14322Y177162D01*
X14337Y177149D01*
X14433Y177110D01*
X14527Y177067D01*
X14547Y177065D01*
X14565Y177057D01*
X14732Y177039D01*
X58674Y177039D01*
X58694Y177042D01*
G37*
G36*
X197584Y189742D02*
X197584Y189742D01*
X197603Y189740D01*
X197705Y189762D01*
X197807Y189779D01*
X197824Y189788D01*
X197844Y189792D01*
X197933Y189845D01*
X198024Y189894D01*
X198038Y189908D01*
X198055Y189918D01*
X198122Y189997D01*
X198194Y190072D01*
X198202Y190090D01*
X198215Y190105D01*
X198254Y190201D01*
X198297Y190295D01*
X198299Y190315D01*
X198307Y190333D01*
X198325Y190500D01*
X198325Y202442D01*
X199218Y203335D01*
X213482Y203335D01*
X213936Y202880D01*
X213952Y202868D01*
X213965Y202853D01*
X214052Y202797D01*
X214136Y202736D01*
X214155Y202731D01*
X214172Y202720D01*
X214272Y202695D01*
X214371Y202664D01*
X214391Y202665D01*
X214410Y202660D01*
X214513Y202668D01*
X214617Y202670D01*
X214636Y202677D01*
X214656Y202679D01*
X214750Y202719D01*
X214848Y202755D01*
X214864Y202767D01*
X214882Y202775D01*
X215013Y202880D01*
X219408Y207275D01*
X219461Y207349D01*
X219521Y207419D01*
X219533Y207449D01*
X219552Y207475D01*
X219579Y207562D01*
X219613Y207647D01*
X219617Y207688D01*
X219624Y207710D01*
X219623Y207742D01*
X219631Y207814D01*
X219631Y216580D01*
X226012Y222961D01*
X226065Y223035D01*
X226125Y223104D01*
X226137Y223134D01*
X226156Y223160D01*
X226183Y223247D01*
X226217Y223332D01*
X226221Y223373D01*
X226228Y223396D01*
X226227Y223428D01*
X226235Y223499D01*
X226235Y224849D01*
X226233Y224865D01*
X226234Y224880D01*
X226223Y224930D01*
X226222Y224992D01*
X226204Y225041D01*
X226196Y225092D01*
X226183Y225115D01*
X226182Y225121D01*
X226167Y225145D01*
X226162Y225155D01*
X226137Y225223D01*
X226105Y225263D01*
X226080Y225309D01*
X226029Y225359D01*
X225984Y225415D01*
X225940Y225443D01*
X225902Y225479D01*
X225837Y225509D01*
X225777Y225548D01*
X225726Y225560D01*
X225679Y225582D01*
X225608Y225590D01*
X225538Y225608D01*
X225486Y225604D01*
X225435Y225609D01*
X225364Y225594D01*
X225293Y225588D01*
X225245Y225568D01*
X225194Y225557D01*
X225133Y225520D01*
X225067Y225492D01*
X225020Y225455D01*
X225006Y225447D01*
X224999Y225441D01*
X224983Y225431D01*
X224968Y225413D01*
X224936Y225387D01*
X214598Y215049D01*
X214545Y214975D01*
X214485Y214906D01*
X214473Y214876D01*
X214454Y214850D01*
X214427Y214762D01*
X214393Y214678D01*
X214389Y214637D01*
X214382Y214615D01*
X214383Y214582D01*
X214375Y214511D01*
X214375Y206498D01*
X213482Y205605D01*
X199218Y205605D01*
X198325Y206498D01*
X198325Y222762D01*
X199218Y223655D01*
X211391Y223655D01*
X211481Y223669D01*
X211572Y223677D01*
X211602Y223689D01*
X211634Y223694D01*
X211714Y223737D01*
X211798Y223773D01*
X211830Y223799D01*
X211851Y223810D01*
X211873Y223833D01*
X211929Y223878D01*
X212677Y224626D01*
X212719Y224684D01*
X212769Y224736D01*
X212791Y224783D01*
X212821Y224825D01*
X212842Y224894D01*
X212872Y224959D01*
X212878Y225011D01*
X212893Y225061D01*
X212891Y225132D01*
X212899Y225203D01*
X212888Y225254D01*
X212887Y225306D01*
X212862Y225374D01*
X212847Y225444D01*
X212820Y225488D01*
X212802Y225537D01*
X212758Y225593D01*
X212721Y225655D01*
X212681Y225689D01*
X212649Y225729D01*
X212588Y225768D01*
X212534Y225815D01*
X212486Y225834D01*
X212442Y225862D01*
X212372Y225880D01*
X212306Y225907D01*
X212234Y225915D01*
X212203Y225923D01*
X212180Y225921D01*
X212139Y225925D01*
X199218Y225925D01*
X198325Y226818D01*
X198325Y243082D01*
X199218Y243975D01*
X213482Y243975D01*
X214387Y243069D01*
X214388Y243018D01*
X214406Y242969D01*
X214414Y242918D01*
X214448Y242855D01*
X214473Y242787D01*
X214505Y242747D01*
X214530Y242701D01*
X214581Y242651D01*
X214626Y242595D01*
X214670Y242567D01*
X214708Y242531D01*
X214773Y242501D01*
X214833Y242462D01*
X214884Y242450D01*
X214931Y242428D01*
X215002Y242420D01*
X215072Y242402D01*
X215124Y242406D01*
X215175Y242401D01*
X215246Y242416D01*
X215317Y242422D01*
X215365Y242442D01*
X215416Y242453D01*
X215477Y242490D01*
X215543Y242518D01*
X215599Y242563D01*
X215627Y242579D01*
X215642Y242597D01*
X215674Y242623D01*
X226012Y252961D01*
X226065Y253035D01*
X226125Y253104D01*
X226137Y253134D01*
X226156Y253160D01*
X226183Y253247D01*
X226217Y253332D01*
X226221Y253373D01*
X226228Y253395D01*
X226227Y253428D01*
X226235Y253499D01*
X226235Y254849D01*
X226224Y254920D01*
X226222Y254992D01*
X226204Y255040D01*
X226196Y255092D01*
X226162Y255155D01*
X226137Y255223D01*
X226105Y255263D01*
X226080Y255309D01*
X226028Y255359D01*
X225984Y255415D01*
X225940Y255443D01*
X225902Y255479D01*
X225837Y255509D01*
X225777Y255548D01*
X225726Y255560D01*
X225679Y255582D01*
X225608Y255590D01*
X225538Y255608D01*
X225486Y255604D01*
X225435Y255609D01*
X225364Y255594D01*
X225293Y255588D01*
X225245Y255568D01*
X225194Y255557D01*
X225133Y255520D01*
X225067Y255492D01*
X225011Y255447D01*
X224983Y255431D01*
X224968Y255413D01*
X224936Y255387D01*
X223358Y253809D01*
X220754Y251205D01*
X215136Y251205D01*
X215116Y251202D01*
X215097Y251204D01*
X214995Y251182D01*
X214893Y251166D01*
X214876Y251156D01*
X214856Y251152D01*
X214767Y251099D01*
X214676Y251050D01*
X214662Y251036D01*
X214645Y251026D01*
X214578Y250947D01*
X214506Y250872D01*
X214498Y250854D01*
X214485Y250839D01*
X214446Y250743D01*
X214403Y250649D01*
X214401Y250629D01*
X214393Y250611D01*
X214375Y250444D01*
X214375Y247138D01*
X213482Y246245D01*
X199218Y246245D01*
X198325Y247138D01*
X198325Y263402D01*
X199218Y264295D01*
X213482Y264295D01*
X214375Y263402D01*
X214375Y260096D01*
X214378Y260076D01*
X214376Y260057D01*
X214398Y259955D01*
X214414Y259853D01*
X214424Y259836D01*
X214428Y259816D01*
X214481Y259727D01*
X214530Y259636D01*
X214544Y259622D01*
X214554Y259605D01*
X214633Y259538D01*
X214708Y259466D01*
X214726Y259458D01*
X214741Y259445D01*
X214837Y259406D01*
X214931Y259363D01*
X214951Y259361D01*
X214969Y259353D01*
X215136Y259335D01*
X217071Y259335D01*
X217161Y259349D01*
X217252Y259357D01*
X217282Y259369D01*
X217314Y259374D01*
X217394Y259417D01*
X217478Y259453D01*
X217510Y259479D01*
X217531Y259490D01*
X217553Y259513D01*
X217609Y259558D01*
X226012Y267961D01*
X226065Y268035D01*
X226125Y268104D01*
X226137Y268134D01*
X226156Y268160D01*
X226183Y268247D01*
X226217Y268332D01*
X226221Y268373D01*
X226228Y268395D01*
X226227Y268428D01*
X226235Y268499D01*
X226235Y270764D01*
X226232Y270784D01*
X226234Y270803D01*
X226212Y270905D01*
X226196Y271007D01*
X226186Y271024D01*
X226182Y271044D01*
X226129Y271133D01*
X226080Y271224D01*
X226066Y271238D01*
X226056Y271255D01*
X225977Y271322D01*
X225902Y271394D01*
X225884Y271402D01*
X225869Y271415D01*
X225773Y271454D01*
X225679Y271497D01*
X225659Y271499D01*
X225641Y271507D01*
X225474Y271525D01*
X215136Y271525D01*
X215116Y271522D01*
X215097Y271524D01*
X214995Y271502D01*
X214893Y271486D01*
X214876Y271476D01*
X214856Y271472D01*
X214767Y271419D01*
X214676Y271370D01*
X214662Y271356D01*
X214645Y271346D01*
X214578Y271267D01*
X214506Y271192D01*
X214498Y271174D01*
X214485Y271159D01*
X214446Y271063D01*
X214403Y270969D01*
X214401Y270949D01*
X214393Y270931D01*
X214375Y270764D01*
X214375Y267458D01*
X213482Y266565D01*
X199218Y266565D01*
X198325Y267458D01*
X198325Y279639D01*
X198314Y279710D01*
X198312Y279782D01*
X198294Y279830D01*
X198286Y279882D01*
X198252Y279945D01*
X198227Y280013D01*
X198195Y280053D01*
X198170Y280099D01*
X198118Y280149D01*
X198074Y280205D01*
X198030Y280233D01*
X197992Y280269D01*
X197927Y280299D01*
X197867Y280338D01*
X197816Y280350D01*
X197769Y280372D01*
X197698Y280380D01*
X197628Y280398D01*
X197576Y280394D01*
X197525Y280399D01*
X197454Y280384D01*
X197383Y280378D01*
X197335Y280358D01*
X197284Y280347D01*
X197223Y280310D01*
X197157Y280282D01*
X197101Y280237D01*
X197073Y280221D01*
X197058Y280203D01*
X197026Y280177D01*
X195598Y278749D01*
X195545Y278675D01*
X195485Y278606D01*
X195473Y278576D01*
X195454Y278550D01*
X195427Y278462D01*
X195393Y278378D01*
X195389Y278337D01*
X195382Y278314D01*
X195383Y278282D01*
X195375Y278211D01*
X195375Y267458D01*
X194362Y266445D01*
X194313Y266378D01*
X194312Y266376D01*
X194311Y266375D01*
X194306Y266368D01*
X194245Y266295D01*
X194235Y266269D01*
X194218Y266246D01*
X194190Y266155D01*
X194155Y266066D01*
X194154Y266038D01*
X194146Y266011D01*
X194148Y265915D01*
X194144Y265820D01*
X194151Y265793D01*
X194152Y265765D01*
X194185Y265675D01*
X194211Y265583D01*
X194227Y265560D01*
X194237Y265534D01*
X194296Y265459D01*
X194350Y265381D01*
X194373Y265364D01*
X194390Y265342D01*
X194470Y265290D01*
X194547Y265233D01*
X194580Y265220D01*
X194597Y265209D01*
X194629Y265201D01*
X194703Y265172D01*
X194831Y265138D01*
X195410Y264803D01*
X195883Y264330D01*
X196218Y263751D01*
X196391Y263104D01*
X196391Y256793D01*
X188112Y256793D01*
X188092Y256790D01*
X188073Y256792D01*
X187971Y256770D01*
X187869Y256753D01*
X187852Y256744D01*
X187832Y256740D01*
X187743Y256687D01*
X187652Y256638D01*
X187638Y256624D01*
X187621Y256614D01*
X187554Y256535D01*
X187483Y256460D01*
X187474Y256442D01*
X187461Y256427D01*
X187422Y256331D01*
X187379Y256237D01*
X187377Y256217D01*
X187369Y256199D01*
X187351Y256032D01*
X187351Y255269D01*
X186588Y255269D01*
X186568Y255266D01*
X186549Y255268D01*
X186447Y255246D01*
X186345Y255229D01*
X186328Y255220D01*
X186308Y255216D01*
X186219Y255163D01*
X186128Y255114D01*
X186114Y255100D01*
X186097Y255090D01*
X186030Y255011D01*
X185959Y254936D01*
X185950Y254918D01*
X185937Y254903D01*
X185898Y254807D01*
X185855Y254713D01*
X185853Y254693D01*
X185845Y254675D01*
X185827Y254508D01*
X185827Y235712D01*
X185830Y235692D01*
X185828Y235673D01*
X185850Y235571D01*
X185867Y235469D01*
X185876Y235452D01*
X185880Y235432D01*
X185933Y235343D01*
X185982Y235252D01*
X185996Y235238D01*
X186006Y235221D01*
X186085Y235154D01*
X186160Y235083D01*
X186178Y235074D01*
X186193Y235061D01*
X186289Y235022D01*
X186383Y234979D01*
X186403Y234977D01*
X186421Y234969D01*
X186588Y234951D01*
X187351Y234951D01*
X187351Y234949D01*
X186588Y234949D01*
X186568Y234946D01*
X186549Y234948D01*
X186447Y234926D01*
X186345Y234909D01*
X186328Y234900D01*
X186308Y234896D01*
X186219Y234843D01*
X186128Y234794D01*
X186114Y234780D01*
X186097Y234770D01*
X186030Y234691D01*
X185959Y234616D01*
X185950Y234598D01*
X185937Y234583D01*
X185898Y234487D01*
X185855Y234393D01*
X185853Y234373D01*
X185845Y234355D01*
X185827Y234188D01*
X185827Y215392D01*
X185830Y215372D01*
X185828Y215353D01*
X185850Y215251D01*
X185867Y215149D01*
X185876Y215132D01*
X185880Y215112D01*
X185933Y215023D01*
X185982Y214932D01*
X185996Y214918D01*
X186006Y214901D01*
X186085Y214834D01*
X186160Y214763D01*
X186178Y214754D01*
X186193Y214741D01*
X186289Y214702D01*
X186383Y214659D01*
X186403Y214657D01*
X186421Y214649D01*
X186588Y214631D01*
X187351Y214631D01*
X187351Y214629D01*
X186588Y214629D01*
X186568Y214626D01*
X186549Y214628D01*
X186447Y214606D01*
X186345Y214589D01*
X186328Y214580D01*
X186308Y214576D01*
X186219Y214523D01*
X186128Y214474D01*
X186114Y214460D01*
X186097Y214450D01*
X186030Y214371D01*
X185959Y214296D01*
X185950Y214278D01*
X185937Y214263D01*
X185898Y214167D01*
X185855Y214073D01*
X185853Y214053D01*
X185845Y214035D01*
X185827Y213868D01*
X185827Y195072D01*
X185830Y195052D01*
X185828Y195033D01*
X185850Y194931D01*
X185867Y194829D01*
X185876Y194812D01*
X185880Y194792D01*
X185933Y194703D01*
X185982Y194612D01*
X185996Y194598D01*
X186006Y194581D01*
X186085Y194514D01*
X186160Y194443D01*
X186178Y194434D01*
X186193Y194421D01*
X186289Y194382D01*
X186383Y194339D01*
X186403Y194337D01*
X186421Y194329D01*
X186588Y194311D01*
X187351Y194311D01*
X187351Y193548D01*
X187354Y193528D01*
X187352Y193509D01*
X187374Y193407D01*
X187391Y193305D01*
X187400Y193288D01*
X187404Y193268D01*
X187457Y193179D01*
X187506Y193088D01*
X187520Y193074D01*
X187530Y193057D01*
X187609Y192990D01*
X187684Y192919D01*
X187702Y192910D01*
X187717Y192897D01*
X187813Y192858D01*
X187907Y192815D01*
X187927Y192813D01*
X187945Y192805D01*
X188112Y192787D01*
X196391Y192787D01*
X196391Y190500D01*
X196394Y190480D01*
X196392Y190461D01*
X196414Y190359D01*
X196430Y190257D01*
X196440Y190240D01*
X196444Y190220D01*
X196497Y190131D01*
X196546Y190040D01*
X196560Y190026D01*
X196570Y190009D01*
X196649Y189942D01*
X196724Y189871D01*
X196742Y189862D01*
X196757Y189849D01*
X196853Y189810D01*
X196947Y189767D01*
X196967Y189765D01*
X196985Y189757D01*
X197152Y189739D01*
X197564Y189739D01*
X197584Y189742D01*
G37*
%LPC*%
G36*
X154468Y495875D02*
X154468Y495875D01*
X153575Y496768D01*
X153575Y505032D01*
X154468Y505925D01*
X170732Y505925D01*
X171625Y505032D01*
X171625Y496768D01*
X170732Y495875D01*
X154468Y495875D01*
G37*
%LPD*%
%LPC*%
G36*
X154468Y483875D02*
X154468Y483875D01*
X153575Y484768D01*
X153575Y493032D01*
X154468Y493925D01*
X170732Y493925D01*
X171625Y493032D01*
X171625Y484768D01*
X170732Y483875D01*
X154468Y483875D01*
G37*
%LPD*%
%LPC*%
G36*
X214715Y143215D02*
X214715Y143215D01*
X212572Y143554D01*
X210508Y144225D01*
X208575Y145210D01*
X206819Y146485D01*
X205285Y148019D01*
X204010Y149775D01*
X203025Y151708D01*
X202354Y153772D01*
X202015Y155915D01*
X202015Y156995D01*
X215795Y156995D01*
X215795Y143215D01*
X214715Y143215D01*
G37*
%LPD*%
%LPC*%
G36*
X188873Y332993D02*
X188873Y332993D01*
X188873Y340988D01*
X188870Y341008D01*
X188872Y341027D01*
X188850Y341129D01*
X188833Y341231D01*
X188824Y341248D01*
X188823Y341253D01*
X188823Y350267D01*
X196341Y350267D01*
X196341Y343956D01*
X196168Y343309D01*
X195833Y342730D01*
X195297Y342194D01*
X195289Y342188D01*
X195273Y342166D01*
X195251Y342149D01*
X195200Y342067D01*
X195143Y341990D01*
X195135Y341964D01*
X195120Y341941D01*
X195098Y341847D01*
X195069Y341756D01*
X195069Y341728D01*
X195063Y341702D01*
X195071Y341606D01*
X195072Y341510D01*
X195082Y341484D01*
X195084Y341457D01*
X195122Y341368D01*
X195154Y341278D01*
X195171Y341256D01*
X195182Y341231D01*
X195247Y341160D01*
X195306Y341084D01*
X195334Y341064D01*
X195348Y341049D01*
X195376Y341033D01*
X195392Y341021D01*
X195883Y340530D01*
X196218Y339951D01*
X196391Y339304D01*
X196391Y332993D01*
X188873Y332993D01*
G37*
%LPD*%
%LPC*%
G36*
X188873Y216153D02*
X188873Y216153D01*
X188873Y233427D01*
X196391Y233427D01*
X196391Y227116D01*
X196218Y226469D01*
X195883Y225890D01*
X195358Y225365D01*
X195314Y225334D01*
X195298Y225312D01*
X195276Y225294D01*
X195225Y225213D01*
X195169Y225136D01*
X195160Y225109D01*
X195145Y225086D01*
X195123Y224993D01*
X195094Y224902D01*
X195094Y224874D01*
X195088Y224846D01*
X195096Y224751D01*
X195097Y224656D01*
X195107Y224629D01*
X195109Y224601D01*
X195147Y224514D01*
X195179Y224424D01*
X195197Y224402D01*
X195208Y224376D01*
X195272Y224305D01*
X195331Y224230D01*
X195359Y224209D01*
X195373Y224194D01*
X195387Y224186D01*
X195883Y223690D01*
X196218Y223111D01*
X196391Y222464D01*
X196391Y216153D01*
X188873Y216153D01*
G37*
%LPD*%
%LPC*%
G36*
X188873Y195833D02*
X188873Y195833D01*
X188873Y213107D01*
X196391Y213107D01*
X196391Y206796D01*
X196218Y206149D01*
X195883Y205570D01*
X195358Y205044D01*
X195314Y205014D01*
X195297Y204991D01*
X195276Y204974D01*
X195225Y204892D01*
X195168Y204815D01*
X195160Y204789D01*
X195145Y204765D01*
X195123Y204672D01*
X195094Y204581D01*
X195094Y204553D01*
X195087Y204526D01*
X195096Y204431D01*
X195097Y204335D01*
X195107Y204309D01*
X195109Y204281D01*
X195148Y204194D01*
X195180Y204103D01*
X195197Y204081D01*
X195208Y204056D01*
X195272Y203985D01*
X195331Y203910D01*
X195360Y203889D01*
X195373Y203874D01*
X195387Y203866D01*
X195883Y203370D01*
X196218Y202791D01*
X196391Y202144D01*
X196391Y195833D01*
X188873Y195833D01*
G37*
%LPD*%
%LPC*%
G36*
X188873Y236473D02*
X188873Y236473D01*
X188873Y253747D01*
X196391Y253747D01*
X196391Y247436D01*
X196218Y246789D01*
X195883Y246210D01*
X195358Y245685D01*
X195314Y245654D01*
X195298Y245632D01*
X195276Y245614D01*
X195225Y245533D01*
X195168Y245456D01*
X195160Y245429D01*
X195145Y245406D01*
X195123Y245313D01*
X195094Y245222D01*
X195094Y245194D01*
X195088Y245167D01*
X195096Y245071D01*
X195097Y244976D01*
X195107Y244949D01*
X195109Y244922D01*
X195147Y244834D01*
X195179Y244744D01*
X195197Y244722D01*
X195208Y244696D01*
X195272Y244625D01*
X195331Y244550D01*
X195359Y244529D01*
X195373Y244514D01*
X195387Y244506D01*
X195883Y244010D01*
X196218Y243431D01*
X196391Y242784D01*
X196391Y236473D01*
X188873Y236473D01*
G37*
%LPD*%
%LPC*%
G36*
X217323Y504523D02*
X217323Y504523D01*
X217323Y516721D01*
X219029Y516451D01*
X221094Y515780D01*
X223028Y514795D01*
X224784Y513519D01*
X226319Y511984D01*
X227595Y510228D01*
X228580Y508294D01*
X229251Y506229D01*
X229521Y504523D01*
X217323Y504523D01*
G37*
%LPD*%
%LPC*%
G36*
X202079Y504523D02*
X202079Y504523D01*
X202349Y506229D01*
X203020Y508294D01*
X204005Y510228D01*
X205281Y511984D01*
X206816Y513519D01*
X208572Y514795D01*
X210506Y515780D01*
X212571Y516451D01*
X214277Y516721D01*
X214277Y504523D01*
X202079Y504523D01*
G37*
%LPD*%
%LPC*%
G36*
X217323Y501477D02*
X217323Y501477D01*
X229521Y501477D01*
X229251Y499771D01*
X228580Y497706D01*
X227595Y495772D01*
X226319Y494016D01*
X224784Y492481D01*
X223028Y491205D01*
X221094Y490220D01*
X219029Y489549D01*
X217323Y489279D01*
X217323Y501477D01*
G37*
%LPD*%
%LPC*%
G36*
X212571Y489549D02*
X212571Y489549D01*
X210506Y490220D01*
X208572Y491205D01*
X206816Y492481D01*
X205281Y494016D01*
X204005Y495772D01*
X203020Y497706D01*
X202349Y499771D01*
X202079Y501477D01*
X214277Y501477D01*
X214277Y489279D01*
X212571Y489549D01*
G37*
%LPD*%
%LPC*%
G36*
X240884Y442213D02*
X240884Y442213D01*
X241085Y443486D01*
X241632Y445168D01*
X241646Y445260D01*
X241647Y445265D01*
X241660Y445279D01*
X241687Y445326D01*
X241716Y445372D01*
X242519Y446947D01*
X243624Y448468D01*
X244952Y449796D01*
X246473Y450901D01*
X248147Y451754D01*
X249934Y452335D01*
X251207Y452536D01*
X251207Y442213D01*
X240884Y442213D01*
G37*
%LPD*%
%LPC*%
G36*
X254253Y442213D02*
X254253Y442213D01*
X254253Y452536D01*
X255526Y452335D01*
X257313Y451754D01*
X258987Y450901D01*
X260508Y449796D01*
X261836Y448468D01*
X262941Y446947D01*
X263794Y445273D01*
X264375Y443486D01*
X264576Y442213D01*
X254253Y442213D01*
G37*
%LPD*%
%LPC*%
G36*
X254253Y439167D02*
X254253Y439167D01*
X264576Y439167D01*
X264375Y437894D01*
X263794Y436107D01*
X262941Y434433D01*
X261836Y432912D01*
X260508Y431584D01*
X258987Y430479D01*
X257313Y429626D01*
X255526Y429045D01*
X254253Y428844D01*
X254253Y439167D01*
G37*
%LPD*%
%LPC*%
G36*
X188823Y353313D02*
X188823Y353313D01*
X188823Y361831D01*
X194134Y361831D01*
X194781Y361658D01*
X195360Y361323D01*
X195833Y360850D01*
X196168Y360271D01*
X196341Y359624D01*
X196341Y353313D01*
X188823Y353313D01*
G37*
%LPD*%
%LPC*%
G36*
X39623Y296823D02*
X39623Y296823D01*
X39623Y304341D01*
X45934Y304341D01*
X46581Y304168D01*
X47160Y303833D01*
X47633Y303360D01*
X47968Y302781D01*
X48141Y302134D01*
X48141Y296823D01*
X39623Y296823D01*
G37*
%LPD*%
%LPC*%
G36*
X28059Y296823D02*
X28059Y296823D01*
X28059Y302134D01*
X28232Y302781D01*
X28567Y303360D01*
X29040Y303833D01*
X29619Y304168D01*
X30266Y304341D01*
X36577Y304341D01*
X36577Y296823D01*
X28059Y296823D01*
G37*
%LPD*%
%LPC*%
G36*
X26923Y337059D02*
X26923Y337059D01*
X26923Y344577D01*
X35441Y344577D01*
X35441Y339266D01*
X35268Y338619D01*
X34933Y338040D01*
X34460Y337567D01*
X33881Y337232D01*
X33234Y337059D01*
X26923Y337059D01*
G37*
%LPD*%
%LPC*%
G36*
X39623Y286259D02*
X39623Y286259D01*
X39623Y293777D01*
X48141Y293777D01*
X48141Y288466D01*
X47968Y287819D01*
X47633Y287240D01*
X47160Y286767D01*
X46581Y286432D01*
X45934Y286259D01*
X39623Y286259D01*
G37*
%LPD*%
%LPC*%
G36*
X30266Y286259D02*
X30266Y286259D01*
X29619Y286432D01*
X29040Y286767D01*
X28567Y287240D01*
X28232Y287819D01*
X28059Y288466D01*
X28059Y293777D01*
X36577Y293777D01*
X36577Y286259D01*
X30266Y286259D01*
G37*
%LPD*%
%LPC*%
G36*
X152405Y362765D02*
X152405Y362765D01*
X152405Y368295D01*
X162435Y368295D01*
X162435Y364796D01*
X162049Y363864D01*
X161336Y363151D01*
X160404Y362765D01*
X152405Y362765D01*
G37*
%LPD*%
%LPC*%
G36*
X207899Y369799D02*
X207899Y369799D01*
X207899Y373841D01*
X214234Y373841D01*
X214881Y373668D01*
X215460Y373333D01*
X215933Y372860D01*
X216268Y372281D01*
X216441Y371634D01*
X216441Y369799D01*
X207899Y369799D01*
G37*
%LPD*%
%LPC*%
G36*
X196359Y369799D02*
X196359Y369799D01*
X196359Y371634D01*
X196532Y372281D01*
X196867Y372860D01*
X197340Y373333D01*
X197919Y373668D01*
X198566Y373841D01*
X204901Y373841D01*
X204901Y369799D01*
X196359Y369799D01*
G37*
%LPD*%
%LPC*%
G36*
X207899Y362759D02*
X207899Y362759D01*
X207899Y366801D01*
X216441Y366801D01*
X216441Y364966D01*
X216268Y364319D01*
X215933Y363740D01*
X215460Y363267D01*
X214881Y362932D01*
X214234Y362759D01*
X207899Y362759D01*
G37*
%LPD*%
%LPC*%
G36*
X198566Y362759D02*
X198566Y362759D01*
X197919Y362932D01*
X197340Y363267D01*
X196867Y363740D01*
X196532Y364319D01*
X196359Y364966D01*
X196359Y366801D01*
X204901Y366801D01*
X204901Y362759D01*
X198566Y362759D01*
G37*
%LPD*%
%LPC*%
G36*
X215799Y502999D02*
X215799Y502999D01*
X215799Y503001D01*
X215801Y503001D01*
X215801Y502999D01*
X215799Y502999D01*
G37*
%LPD*%
%LPC*%
G36*
X252729Y440689D02*
X252729Y440689D01*
X252729Y440691D01*
X252731Y440691D01*
X252731Y440689D01*
X252729Y440689D01*
G37*
%LPD*%
%LPC*%
G36*
X38099Y295299D02*
X38099Y295299D01*
X38099Y295301D01*
X38101Y295301D01*
X38101Y295299D01*
X38099Y295299D01*
G37*
%LPD*%
D10*
X109400Y86800D03*
X26800Y86800D03*
X113000Y27300D03*
X23200Y27300D03*
D11*
X162600Y536900D03*
X162600Y524900D03*
X162600Y512900D03*
X162600Y500900D03*
X162600Y488900D03*
D12*
X150100Y472400D03*
X138100Y472400D03*
X126100Y472400D03*
X114100Y472400D03*
X102100Y472400D03*
X90100Y472400D03*
D11*
X77600Y488900D03*
X77600Y500900D03*
X77600Y512900D03*
X77600Y524900D03*
X77600Y536900D03*
D13*
X206350Y331470D03*
X187350Y331470D03*
D14*
X25400Y346100D03*
X25400Y365100D03*
X38100Y295300D03*
X38100Y314300D03*
D13*
X206350Y303530D03*
X187350Y303530D03*
X187350Y275590D03*
X206350Y275590D03*
X206350Y255270D03*
X187350Y255270D03*
X206350Y234950D03*
X187350Y234950D03*
X206350Y214630D03*
X187350Y214630D03*
X206350Y194310D03*
X187350Y194310D03*
X196190Y173990D03*
X177190Y173990D03*
X168300Y351790D03*
X187300Y351790D03*
D15*
X215800Y157000D03*
D16*
X233800Y210000D03*
X233800Y225000D03*
X233800Y240000D03*
X233800Y255000D03*
X233800Y270000D03*
X233800Y285000D03*
X233800Y300000D03*
X233800Y315000D03*
X233800Y330000D03*
X233800Y345000D03*
X233800Y360000D03*
X233800Y375000D03*
X233800Y390000D03*
X233800Y405000D03*
X233800Y420000D03*
X233800Y435000D03*
X233800Y450000D03*
D15*
X215800Y503000D03*
D17*
X252730Y364490D03*
X252730Y389890D03*
X252730Y415290D03*
X252730Y440690D03*
X252730Y466090D03*
X252730Y491490D03*
D18*
X152400Y368300D03*
X152400Y381000D03*
X152400Y393700D03*
X152400Y406400D03*
X152400Y419100D03*
X152400Y431800D03*
X152400Y444500D03*
X206400Y444500D03*
X206400Y431800D03*
X206400Y419100D03*
X206400Y406400D03*
X206400Y393700D03*
X206400Y381000D03*
X206400Y368300D03*
D19*
X63500Y330200D03*
X54000Y330200D03*
X44500Y330200D03*
X63500Y351200D03*
X44500Y351200D03*
D20*
X219070Y255270D02*
X233800Y270000D01*
X219070Y255270D02*
X206350Y255270D01*
X213750Y234950D02*
X233800Y255000D01*
X213750Y234950D02*
X206350Y234950D01*
X208430Y214630D02*
X233800Y240000D01*
X208430Y214630D02*
X206350Y214630D01*
X223696Y214896D02*
X233800Y225000D01*
X223696Y214896D02*
X223696Y205815D01*
X212191Y194310D01*
X206350Y194310D01*
X233800Y183000D02*
X233800Y210000D01*
X224790Y173990D02*
X196190Y173990D01*
X224790Y173990D02*
X233800Y183000D01*
X220270Y331470D02*
X233800Y345000D01*
X220270Y331470D02*
X206350Y331470D01*
X233800Y315000D02*
X222330Y303530D01*
X206350Y303530D01*
X221300Y317500D02*
X233800Y330000D01*
X221300Y317500D02*
X190500Y317500D01*
X187350Y314350D01*
X187350Y303530D01*
X198167Y287154D02*
X195786Y284773D01*
X220954Y287154D02*
X233800Y300000D01*
X195786Y284773D02*
X195786Y284686D01*
X198167Y287154D02*
X220954Y287154D01*
X187350Y276250D02*
X187350Y275590D01*
X187350Y276250D02*
X195786Y284686D01*
X224390Y275590D02*
X233800Y285000D01*
X224390Y275590D02*
X206350Y275590D01*
D21*
X187350Y351740D02*
X187300Y351790D01*
X187350Y351740D02*
X187350Y331470D01*
X187350Y255270D02*
X187350Y254000D01*
X187350Y234950D01*
X187350Y214630D01*
X187350Y194310D01*
X172110Y193700D02*
X172110Y179070D01*
X177190Y173990D01*
X187350Y325845D02*
X187350Y331470D01*
X187350Y325845D02*
X175262Y313757D01*
X175262Y265775D02*
X178535Y262502D01*
X178848Y262502D01*
X187350Y254000D01*
X175262Y265775D02*
X175262Y313757D01*
D22*
X187300Y351790D02*
X203810Y368300D01*
X206400Y368300D01*
X214700Y360000D02*
X233800Y360000D01*
X214700Y360000D02*
X206400Y368300D01*
D20*
X215800Y503000D02*
X193900Y524900D01*
X162600Y524900D01*
D23*
X50800Y127000D03*
D20*
X51064Y327264D02*
X54000Y330200D01*
X51064Y327264D02*
X51064Y324517D01*
X50800Y324253D01*
X50800Y292100D01*
X50800Y279400D01*
X50800Y152400D01*
X50800Y127000D01*
D23*
X219206Y381000D03*
D20*
X217964Y379758D01*
X217964Y376317D01*
X209947Y368300D01*
X206400Y368300D01*
X41300Y292100D02*
X38100Y295300D01*
X41300Y292100D02*
X50800Y292100D01*
X25400Y304800D02*
X25400Y346100D01*
X25400Y304800D02*
X34900Y295300D01*
X38100Y295300D01*
X43700Y500900D02*
X77600Y500900D01*
X43700Y500900D02*
X38100Y495300D01*
X38100Y381000D01*
D23*
X38100Y381000D03*
X38100Y279400D03*
D20*
X50800Y279400D01*
X38100Y279400D02*
X38100Y295300D01*
D23*
X38100Y152400D03*
X25400Y152400D03*
X25400Y190500D03*
D21*
X25400Y152400D02*
X38100Y152400D01*
X50800Y152400D01*
D23*
X152400Y76200D03*
X172110Y193700D03*
D21*
X173512Y194310D02*
X187350Y194310D01*
X173512Y194310D02*
X172110Y193700D01*
X171450Y214630D02*
X187350Y214630D01*
D23*
X171450Y214630D03*
D21*
X172720Y234950D02*
X187350Y234950D01*
D23*
X172720Y234950D03*
D21*
X186664Y254584D02*
X187350Y255270D01*
X186664Y254584D02*
X172720Y252730D01*
D23*
X172720Y252730D03*
D21*
X38100Y279400D02*
X38100Y152400D01*
D22*
X168300Y351790D02*
X152400Y367690D01*
X152400Y368300D01*
D20*
X63500Y330200D02*
X63500Y139700D01*
D23*
X63500Y127000D03*
D20*
X47436Y335883D02*
X49817Y338264D01*
X58183Y338264D01*
X60564Y335883D01*
X47436Y333136D02*
X44500Y330200D01*
X47436Y333136D02*
X47436Y335883D01*
X60564Y335883D02*
X60564Y333136D01*
X63500Y330200D01*
D21*
X215800Y157000D02*
X211200Y152400D01*
X127000Y152400D02*
X123670Y149070D01*
X123670Y148519D01*
X118181Y143030D01*
X117630Y143030D01*
X101600Y127000D01*
X63500Y127000D01*
X152400Y152400D02*
X211200Y152400D01*
X152400Y152400D02*
X127000Y152400D01*
D20*
X152400Y335890D02*
X168300Y351790D01*
X152400Y335890D02*
X152400Y152400D01*
X152400Y368300D02*
X177800Y368300D01*
D23*
X177800Y368300D03*
D20*
X44196Y320396D02*
X38100Y314300D01*
X44500Y330040D02*
X44500Y330200D01*
X44196Y329736D02*
X44196Y320396D01*
X44196Y329736D02*
X44500Y330040D01*
X199390Y466090D02*
X252730Y466090D01*
X199390Y466090D02*
X177800Y444500D01*
X177800Y368300D01*
D23*
X25400Y127000D03*
D24*
X59382Y127000D02*
X63500Y127000D01*
X42219Y127000D02*
X25400Y127000D01*
X53314Y120932D02*
X59382Y127000D01*
X48287Y120932D02*
X42219Y127000D01*
D23*
X25400Y139700D03*
D24*
X48287Y120932D02*
X53314Y120932D01*
X29519Y139700D02*
X25400Y139700D01*
X53314Y120932D02*
X56868Y120932D01*
X63500Y114300D01*
X42219Y127000D02*
X29519Y139700D01*
X63500Y139700D02*
X63500Y127000D01*
D23*
X63500Y139700D03*
D20*
X250190Y491490D02*
X252730Y491490D01*
X250190Y491490D02*
X231394Y472694D01*
X196655Y472694D01*
X171196Y412496D02*
X165100Y406400D01*
X171196Y447236D02*
X196655Y472694D01*
X171196Y447236D02*
X171196Y412496D01*
X165100Y406400D02*
X152400Y406400D01*
X152400Y444500D02*
X150100Y446800D01*
X150100Y472400D01*
X138100Y472400D02*
X138100Y433400D01*
X139700Y431800D01*
X152400Y431800D01*
X152400Y419100D02*
X139700Y419100D01*
X126100Y432700D02*
X126100Y472400D01*
X126100Y432700D02*
X139700Y419100D01*
X102100Y419600D02*
X102100Y472400D01*
X102100Y419600D02*
X101600Y419100D01*
D23*
X101600Y419100D03*
D20*
X114300Y472200D02*
X114100Y472400D01*
X114300Y419100D02*
X139700Y393700D01*
X152400Y393700D01*
X114300Y419100D02*
X114300Y472200D01*
X127000Y381000D02*
X152400Y381000D01*
X90100Y417900D02*
X90100Y472400D01*
X90100Y417900D02*
X127000Y381000D01*
X77600Y417700D02*
X77600Y488900D01*
X77600Y417700D02*
X139700Y355600D01*
X139700Y177800D01*
D23*
X139700Y177800D03*
D20*
X210100Y390000D02*
X233800Y390000D01*
X210100Y390000D02*
X206400Y393700D01*
X252620Y390000D02*
X252730Y389890D01*
X252620Y390000D02*
X233800Y390000D01*
X206400Y381000D02*
X190500Y381000D01*
X77600Y524900D02*
X67654Y524900D01*
X63500Y520746D01*
D23*
X63500Y520746D03*
X190500Y381000D03*
X114300Y152400D03*
D20*
X76200Y190500D01*
X76200Y330200D01*
X55200Y351200D02*
X44500Y351200D01*
X67683Y359264D02*
X70064Y356883D01*
X67683Y359264D02*
X59317Y359264D01*
X56936Y356883D01*
X70064Y336336D02*
X76200Y330200D01*
X56936Y352936D02*
X56936Y356883D01*
X56936Y352936D02*
X55200Y351200D01*
X70064Y356883D02*
X70064Y336336D01*
X44500Y351200D02*
X30600Y365100D01*
X25400Y365100D01*
X30300Y512900D02*
X77600Y512900D01*
X30300Y512900D02*
X25400Y508000D01*
X25400Y365100D01*
D23*
X50800Y533400D03*
D20*
X54300Y536900D01*
X77600Y536900D01*
X207800Y405000D02*
X233800Y405000D01*
X207800Y405000D02*
X206400Y406400D01*
X207300Y420000D02*
X233800Y420000D01*
X207300Y420000D02*
X206400Y419100D01*
X209600Y435000D02*
X233800Y435000D01*
X209600Y435000D02*
X206400Y431800D01*
X211900Y450000D02*
X233800Y450000D01*
X211900Y450000D02*
X206400Y444500D01*
M02*
