G04 EAGLE Gerber RS-274X export*
G75*
%MOMM*%
%FSLAX34Y34*%
%LPD*%
%INSilkscreen Top*%
%IPPOS*%
%AMOC8*
5,1,8,0,0,1.08239X$1,22.5*%
G01*
%ADD10C,0.127000*%
%ADD11C,0.076200*%
%ADD12C,0.101600*%
%ADD13R,0.425000X0.325000*%
%ADD14R,0.350000X0.350000*%
%ADD15C,0.254000*%

G36*
X58841Y25477D02*
X58841Y25477D01*
X59477Y25624D01*
X60100Y25816D01*
X60101Y25816D01*
X60713Y26042D01*
X61217Y26254D01*
X61218Y26256D01*
X61220Y26257D01*
X61220Y26258D01*
X61611Y26440D01*
X62018Y26630D01*
X62259Y26746D01*
X62381Y26802D01*
X62382Y26802D01*
X62668Y26967D01*
X63019Y27154D01*
X63232Y27265D01*
X63233Y27266D01*
X63834Y27790D01*
X63834Y27792D01*
X63835Y27792D01*
X63845Y27817D01*
X63845Y27818D01*
X63845Y27819D01*
X63847Y27884D01*
X63845Y27886D01*
X63845Y27887D01*
X63793Y27933D01*
X63699Y27997D01*
X63698Y27996D01*
X63697Y27997D01*
X63569Y28017D01*
X63500Y28019D01*
X63411Y28011D01*
X63410Y28011D01*
X63229Y27973D01*
X63229Y27972D01*
X63229Y27973D01*
X62946Y27882D01*
X62640Y27799D01*
X62382Y27742D01*
X62381Y27742D01*
X62113Y27667D01*
X61785Y27590D01*
X61492Y27548D01*
X61215Y27520D01*
X61210Y27515D01*
X61210Y27467D01*
X61160Y27463D01*
X60824Y27449D01*
X60488Y27453D01*
X60400Y27499D01*
X60326Y27567D01*
X60264Y27648D01*
X60210Y27733D01*
X60162Y27824D01*
X60118Y27916D01*
X60078Y28009D01*
X60038Y28104D01*
X60000Y28198D01*
X59959Y28290D01*
X59879Y28812D01*
X59853Y29341D01*
X59868Y29870D01*
X59880Y30005D01*
X59884Y30045D01*
X59888Y30085D01*
X59910Y30338D01*
X59914Y30378D01*
X59916Y30396D01*
X59925Y30463D01*
X59930Y30497D01*
X59941Y30572D01*
X59957Y30681D01*
X59967Y30756D01*
X59983Y30865D01*
X59991Y30920D01*
X60089Y31440D01*
X60209Y31956D01*
X60348Y32466D01*
X60507Y32971D01*
X60692Y33467D01*
X60939Y34044D01*
X61187Y34622D01*
X61434Y35199D01*
X61681Y35776D01*
X61928Y36354D01*
X62176Y36931D01*
X62423Y37508D01*
X62670Y38086D01*
X62917Y38663D01*
X63163Y39238D01*
X64613Y39218D01*
X66066Y39193D01*
X67520Y39177D01*
X67978Y39183D01*
X68201Y39199D01*
X69703Y39275D01*
X70610Y39334D01*
X71327Y39380D01*
X71503Y39403D01*
X72105Y39504D01*
X72633Y39637D01*
X73082Y39762D01*
X73083Y39762D01*
X73425Y39895D01*
X73664Y40019D01*
X73665Y40019D01*
X74160Y40291D01*
X74538Y40488D01*
X74539Y40488D01*
X74873Y40755D01*
X75154Y41016D01*
X75154Y41017D01*
X75373Y41307D01*
X75373Y41308D01*
X75527Y41665D01*
X75527Y41666D01*
X75528Y41666D01*
X75534Y41712D01*
X75534Y41717D01*
X75535Y41722D01*
X75536Y41727D01*
X75536Y41732D01*
X75537Y41737D01*
X75538Y41742D01*
X75538Y41747D01*
X75539Y41752D01*
X75540Y41757D01*
X75540Y41762D01*
X75541Y41767D01*
X75556Y41881D01*
X75557Y41886D01*
X75557Y41891D01*
X75558Y41896D01*
X75559Y41901D01*
X75559Y41906D01*
X75560Y41911D01*
X75561Y41916D01*
X75561Y41921D01*
X75562Y41926D01*
X75563Y41931D01*
X75563Y41936D01*
X75578Y42045D01*
X75578Y42050D01*
X75579Y42055D01*
X75580Y42060D01*
X75580Y42065D01*
X75581Y42070D01*
X75582Y42075D01*
X75582Y42080D01*
X75583Y42085D01*
X75584Y42090D01*
X75584Y42095D01*
X75585Y42100D01*
X75585Y42102D01*
X75601Y42577D01*
X75600Y42577D01*
X75601Y42578D01*
X75541Y42866D01*
X75541Y42867D01*
X75258Y43580D01*
X75258Y43581D01*
X75048Y43984D01*
X75048Y43985D01*
X74814Y44293D01*
X74813Y44293D01*
X74813Y44294D01*
X74489Y44610D01*
X74174Y44856D01*
X73854Y45042D01*
X73853Y45042D01*
X73417Y45189D01*
X72805Y45324D01*
X72805Y45323D01*
X72804Y45324D01*
X72184Y45412D01*
X71560Y45470D01*
X71559Y45470D01*
X70948Y45504D01*
X71179Y45675D01*
X71400Y45881D01*
X71603Y46104D01*
X71791Y46340D01*
X71965Y46586D01*
X71965Y46587D01*
X71966Y46587D01*
X72126Y46842D01*
X72271Y47106D01*
X72398Y47380D01*
X72398Y47381D01*
X72498Y47665D01*
X72499Y47665D01*
X72498Y47665D01*
X72499Y47665D01*
X72511Y47733D01*
X72523Y47733D01*
X72528Y47737D01*
X72551Y47868D01*
X72551Y47869D01*
X72509Y48720D01*
X72508Y48721D01*
X72509Y48721D01*
X72287Y49442D01*
X72286Y49443D01*
X72286Y49444D01*
X71770Y49991D01*
X71769Y49991D01*
X71769Y49992D01*
X71088Y50322D01*
X71087Y50322D01*
X71087Y50323D01*
X70355Y50522D01*
X70355Y50521D01*
X70355Y50522D01*
X69804Y50613D01*
X68918Y50715D01*
X67978Y50775D01*
X67335Y50797D01*
X66576Y50805D01*
X66269Y50800D01*
X65961Y50794D01*
X65653Y50788D01*
X65345Y50782D01*
X65038Y50776D01*
X64730Y50768D01*
X64422Y50760D01*
X64114Y50751D01*
X63806Y50740D01*
X63806Y50739D01*
X63806Y50740D01*
X63499Y50725D01*
X63267Y50712D01*
X63035Y50697D01*
X62803Y50679D01*
X62571Y50660D01*
X62340Y50638D01*
X62108Y50614D01*
X61877Y50589D01*
X61646Y50561D01*
X61415Y50531D01*
X61186Y50499D01*
X61185Y50499D01*
X60991Y50464D01*
X60797Y50425D01*
X60603Y50383D01*
X60410Y50339D01*
X60410Y50338D01*
X60410Y50339D01*
X60218Y50290D01*
X60028Y50238D01*
X59838Y50181D01*
X59650Y50117D01*
X59465Y50046D01*
X59284Y49966D01*
X59201Y49926D01*
X59121Y49881D01*
X59121Y49880D01*
X59044Y49829D01*
X58973Y49769D01*
X58914Y49698D01*
X58914Y49697D01*
X58913Y49697D01*
X58875Y49614D01*
X58875Y49613D01*
X58876Y49613D01*
X58875Y49612D01*
X58874Y49521D01*
X58875Y49520D01*
X58874Y49519D01*
X58912Y49436D01*
X58913Y49435D01*
X58913Y49434D01*
X58974Y49366D01*
X58975Y49366D01*
X58975Y49365D01*
X59048Y49309D01*
X59077Y49290D01*
X59106Y49270D01*
X59135Y49251D01*
X59164Y49231D01*
X59193Y49212D01*
X59222Y49192D01*
X59252Y49173D01*
X59281Y49153D01*
X59338Y49114D01*
X59339Y49114D01*
X59382Y49096D01*
X59425Y49084D01*
X59469Y49077D01*
X59470Y49077D01*
X59515Y49074D01*
X59560Y49075D01*
X59561Y49075D01*
X59605Y49079D01*
X59650Y49086D01*
X59694Y49096D01*
X59737Y49107D01*
X59738Y49107D01*
X59781Y49120D01*
X60329Y49279D01*
X60886Y49407D01*
X61449Y49505D01*
X62016Y49575D01*
X62585Y49621D01*
X63155Y49648D01*
X63727Y49659D01*
X64298Y49661D01*
X64870Y49656D01*
X65433Y49647D01*
X65039Y48757D01*
X64641Y47861D01*
X64244Y46964D01*
X63448Y45170D01*
X63050Y44273D01*
X62653Y43376D01*
X62255Y42480D01*
X61857Y41583D01*
X61461Y40688D01*
X60248Y40609D01*
X60247Y40609D01*
X59042Y40427D01*
X57858Y40136D01*
X56709Y39729D01*
X55611Y39200D01*
X55611Y39199D01*
X55610Y39200D01*
X54580Y38549D01*
X53634Y37781D01*
X53634Y37780D01*
X53634Y37781D01*
X52786Y36905D01*
X52785Y36905D01*
X52045Y35938D01*
X52045Y35937D01*
X52044Y35937D01*
X51413Y34895D01*
X51413Y34893D01*
X51412Y34893D01*
X51406Y34838D01*
X51405Y34831D01*
X51401Y34783D01*
X51401Y34782D01*
X51399Y34727D01*
X51399Y34726D01*
X51401Y34671D01*
X51406Y34616D01*
X51417Y34561D01*
X51434Y34508D01*
X51435Y34508D01*
X51460Y34459D01*
X51461Y34459D01*
X51460Y34458D01*
X51495Y34415D01*
X51496Y34415D01*
X51539Y34379D01*
X51781Y34258D01*
X52027Y34150D01*
X52028Y34149D01*
X52279Y34052D01*
X52534Y33966D01*
X52793Y33890D01*
X53055Y33824D01*
X53318Y33767D01*
X53583Y33717D01*
X53849Y33671D01*
X54115Y33630D01*
X54116Y33631D01*
X54117Y33630D01*
X54181Y33649D01*
X54244Y33670D01*
X54306Y33694D01*
X54365Y33726D01*
X54366Y33726D01*
X54419Y33765D01*
X54419Y33766D01*
X54420Y33766D01*
X54464Y33815D01*
X54464Y33816D01*
X54499Y33872D01*
X54499Y33873D01*
X54523Y33935D01*
X54524Y33936D01*
X54540Y34000D01*
X54550Y34065D01*
X54549Y34067D01*
X54550Y34068D01*
X54477Y34239D01*
X54477Y34240D01*
X54369Y34392D01*
X54368Y34392D01*
X54368Y34393D01*
X54230Y34518D01*
X54076Y34624D01*
X53925Y34731D01*
X53797Y34865D01*
X53719Y35032D01*
X53690Y35215D01*
X53694Y35400D01*
X53718Y35584D01*
X54139Y36305D01*
X54693Y36931D01*
X55336Y37468D01*
X56037Y37926D01*
X56779Y38312D01*
X57554Y38633D01*
X58351Y38890D01*
X59167Y39081D01*
X59995Y39201D01*
X60824Y39240D01*
X60380Y38236D01*
X59922Y37228D01*
X59464Y36220D01*
X59020Y35207D01*
X58607Y34180D01*
X58246Y33134D01*
X58246Y33133D01*
X57956Y32066D01*
X57956Y32065D01*
X57752Y30979D01*
X57753Y30978D01*
X57752Y30978D01*
X57644Y29877D01*
X57629Y28771D01*
X57630Y28770D01*
X57629Y28770D01*
X57702Y28144D01*
X57738Y27831D01*
X57774Y27518D01*
X57810Y27205D01*
X57918Y26266D01*
X57955Y25954D01*
X57991Y25641D01*
X57991Y25640D01*
X58000Y25608D01*
X58009Y25577D01*
X58010Y25577D01*
X58010Y25576D01*
X58021Y25545D01*
X58035Y25515D01*
X58035Y25514D01*
X58053Y25486D01*
X58054Y25486D01*
X58075Y25461D01*
X58076Y25461D01*
X58076Y25460D01*
X58101Y25439D01*
X58102Y25439D01*
X58130Y25422D01*
X58160Y25407D01*
X58160Y25408D01*
X58160Y25407D01*
X58192Y25395D01*
X58193Y25396D01*
X58194Y25395D01*
X58841Y25477D01*
G37*
%LPC*%
G36*
X67983Y40545D02*
X67983Y40545D01*
X67978Y40550D01*
X67978Y40549D01*
X67978Y40550D01*
X67868Y40547D01*
X66730Y40552D01*
X65592Y40578D01*
X64454Y40618D01*
X63323Y40665D01*
X63446Y41013D01*
X63588Y41362D01*
X63742Y41706D01*
X63899Y42048D01*
X64058Y42390D01*
X64217Y42731D01*
X64377Y43072D01*
X64538Y43413D01*
X64699Y43754D01*
X64859Y44091D01*
X65855Y44109D01*
X66853Y44149D01*
X67851Y44186D01*
X67978Y44188D01*
X68916Y44212D01*
X69698Y44197D01*
X71491Y44055D01*
X71809Y44016D01*
X72300Y43901D01*
X72722Y43764D01*
X73112Y43626D01*
X73416Y43436D01*
X73679Y43163D01*
X73923Y42575D01*
X73994Y42179D01*
X73993Y42176D01*
X73992Y42171D01*
X73992Y42166D01*
X73991Y42161D01*
X73990Y42156D01*
X73990Y42151D01*
X73989Y42146D01*
X73988Y42141D01*
X73987Y42136D01*
X73987Y42131D01*
X73986Y42126D01*
X73985Y42121D01*
X73984Y42116D01*
X73984Y42111D01*
X73983Y42106D01*
X73982Y42101D01*
X73981Y42096D01*
X73981Y42091D01*
X73980Y42086D01*
X73979Y42081D01*
X73979Y42076D01*
X73978Y42071D01*
X73977Y42066D01*
X73976Y42061D01*
X73976Y42056D01*
X73975Y42051D01*
X73974Y42047D01*
X73974Y42046D01*
X73973Y42042D01*
X73973Y42041D01*
X73973Y42037D01*
X73972Y42032D01*
X73971Y42027D01*
X73971Y42022D01*
X73970Y42022D01*
X73971Y42022D01*
X73970Y42017D01*
X73969Y42012D01*
X73968Y42007D01*
X73968Y42002D01*
X73967Y41997D01*
X73966Y41992D01*
X73965Y41987D01*
X73965Y41982D01*
X73964Y41977D01*
X73963Y41972D01*
X73962Y41967D01*
X73962Y41962D01*
X73961Y41957D01*
X73960Y41952D01*
X73960Y41947D01*
X73959Y41947D01*
X73960Y41947D01*
X73959Y41942D01*
X73958Y41937D01*
X73957Y41932D01*
X73957Y41927D01*
X73956Y41922D01*
X73955Y41918D01*
X73753Y41653D01*
X73420Y41430D01*
X72988Y41230D01*
X72539Y41073D01*
X72061Y40936D01*
X71501Y40811D01*
X71244Y40753D01*
X70438Y40657D01*
X69565Y40579D01*
X68847Y40554D01*
X67983Y40544D01*
X67983Y40545D01*
G37*
%LPD*%
%LPC*%
G36*
X65722Y45905D02*
X65722Y45905D01*
X65721Y45905D01*
X65722Y45905D01*
X65721Y45906D01*
X65722Y45906D01*
X65760Y46320D01*
X65925Y46734D01*
X66089Y47149D01*
X66254Y47564D01*
X66419Y47978D01*
X66583Y48393D01*
X66748Y48808D01*
X66912Y49223D01*
X67076Y49634D01*
X67576Y49622D01*
X67977Y49606D01*
X68958Y49541D01*
X69803Y49394D01*
X70070Y49332D01*
X70538Y49152D01*
X70945Y48861D01*
X71177Y48424D01*
X71166Y47926D01*
X71132Y47833D01*
X70932Y47290D01*
X70579Y46714D01*
X70064Y46277D01*
X69453Y45985D01*
X68802Y45794D01*
X68135Y45668D01*
X67977Y45649D01*
X67973Y45644D01*
X67973Y45633D01*
X67587Y45587D01*
X66910Y45535D01*
X66231Y45507D01*
X65560Y45497D01*
X65722Y45905D01*
G37*
%LPD*%
D10*
X10290Y15360D02*
X124640Y15360D01*
X124640Y115980D01*
X10290Y115980D01*
X10290Y15360D01*
D11*
X25401Y101741D02*
X27856Y109107D01*
X30312Y101741D01*
X29698Y103583D02*
X26015Y103583D01*
X33125Y107470D02*
X35172Y109107D01*
X35172Y101741D01*
X37218Y101741D02*
X33125Y101741D01*
X37751Y80833D02*
X39797Y80833D01*
X39886Y80831D01*
X39975Y80825D01*
X40064Y80815D01*
X40152Y80802D01*
X40240Y80785D01*
X40327Y80763D01*
X40412Y80738D01*
X40497Y80710D01*
X40580Y80677D01*
X40662Y80641D01*
X40742Y80602D01*
X40820Y80559D01*
X40896Y80513D01*
X40971Y80463D01*
X41043Y80410D01*
X41112Y80354D01*
X41179Y80295D01*
X41244Y80234D01*
X41305Y80169D01*
X41364Y80102D01*
X41420Y80033D01*
X41473Y79961D01*
X41523Y79886D01*
X41569Y79810D01*
X41612Y79732D01*
X41651Y79652D01*
X41687Y79570D01*
X41720Y79487D01*
X41748Y79402D01*
X41773Y79317D01*
X41795Y79230D01*
X41812Y79142D01*
X41825Y79054D01*
X41835Y78965D01*
X41841Y78876D01*
X41843Y78787D01*
X41841Y78698D01*
X41835Y78609D01*
X41825Y78520D01*
X41812Y78432D01*
X41795Y78344D01*
X41773Y78257D01*
X41748Y78172D01*
X41720Y78087D01*
X41687Y78004D01*
X41651Y77922D01*
X41612Y77842D01*
X41569Y77764D01*
X41523Y77688D01*
X41473Y77613D01*
X41420Y77541D01*
X41364Y77472D01*
X41305Y77405D01*
X41244Y77340D01*
X41179Y77279D01*
X41112Y77220D01*
X41043Y77164D01*
X40971Y77111D01*
X40896Y77061D01*
X40820Y77015D01*
X40742Y76972D01*
X40662Y76933D01*
X40580Y76897D01*
X40497Y76864D01*
X40412Y76836D01*
X40327Y76811D01*
X40240Y76789D01*
X40152Y76772D01*
X40064Y76759D01*
X39975Y76749D01*
X39886Y76743D01*
X39797Y76741D01*
X37751Y76741D01*
X37751Y84107D01*
X39797Y84107D01*
X39876Y84105D01*
X39955Y84099D01*
X40034Y84090D01*
X40112Y84077D01*
X40189Y84059D01*
X40265Y84039D01*
X40340Y84014D01*
X40414Y83986D01*
X40487Y83955D01*
X40558Y83919D01*
X40627Y83881D01*
X40694Y83839D01*
X40759Y83794D01*
X40822Y83746D01*
X40883Y83695D01*
X40940Y83641D01*
X40996Y83585D01*
X41048Y83526D01*
X41098Y83464D01*
X41144Y83400D01*
X41188Y83334D01*
X41228Y83266D01*
X41264Y83196D01*
X41298Y83124D01*
X41328Y83050D01*
X41354Y82976D01*
X41377Y82900D01*
X41395Y82823D01*
X41411Y82746D01*
X41422Y82667D01*
X41430Y82589D01*
X41434Y82510D01*
X41434Y82430D01*
X41430Y82351D01*
X41422Y82273D01*
X41411Y82194D01*
X41395Y82117D01*
X41377Y82040D01*
X41354Y81964D01*
X41328Y81890D01*
X41298Y81816D01*
X41264Y81744D01*
X41228Y81674D01*
X41188Y81606D01*
X41144Y81540D01*
X41098Y81476D01*
X41048Y81414D01*
X40996Y81355D01*
X40940Y81299D01*
X40883Y81245D01*
X40822Y81194D01*
X40759Y81146D01*
X40694Y81101D01*
X40627Y81059D01*
X40558Y81021D01*
X40487Y80985D01*
X40414Y80954D01*
X40340Y80926D01*
X40265Y80901D01*
X40189Y80881D01*
X40112Y80863D01*
X40034Y80850D01*
X39955Y80841D01*
X39876Y80835D01*
X39797Y80833D01*
X44705Y82470D02*
X46751Y84107D01*
X46751Y76741D01*
X44705Y76741D02*
X48797Y76741D01*
X56113Y82266D02*
X56111Y82351D01*
X56105Y82436D01*
X56095Y82520D01*
X56082Y82604D01*
X56064Y82688D01*
X56043Y82770D01*
X56018Y82851D01*
X55989Y82931D01*
X55956Y83010D01*
X55920Y83087D01*
X55880Y83162D01*
X55837Y83236D01*
X55791Y83307D01*
X55741Y83376D01*
X55688Y83443D01*
X55632Y83507D01*
X55573Y83568D01*
X55512Y83627D01*
X55448Y83683D01*
X55381Y83736D01*
X55312Y83786D01*
X55241Y83832D01*
X55167Y83875D01*
X55092Y83915D01*
X55015Y83951D01*
X54936Y83984D01*
X54856Y84013D01*
X54775Y84038D01*
X54693Y84059D01*
X54609Y84077D01*
X54525Y84090D01*
X54441Y84100D01*
X54356Y84106D01*
X54271Y84108D01*
X54271Y84107D02*
X54175Y84105D01*
X54079Y84099D01*
X53984Y84089D01*
X53889Y84076D01*
X53794Y84058D01*
X53701Y84037D01*
X53608Y84012D01*
X53517Y83983D01*
X53426Y83951D01*
X53337Y83915D01*
X53250Y83875D01*
X53164Y83832D01*
X53080Y83786D01*
X52998Y83736D01*
X52918Y83682D01*
X52841Y83626D01*
X52766Y83566D01*
X52693Y83504D01*
X52623Y83438D01*
X52555Y83370D01*
X52490Y83299D01*
X52429Y83226D01*
X52370Y83150D01*
X52314Y83071D01*
X52262Y82991D01*
X52213Y82908D01*
X52167Y82824D01*
X52125Y82738D01*
X52087Y82650D01*
X52052Y82561D01*
X52020Y82470D01*
X55498Y80834D02*
X55558Y80893D01*
X55615Y80955D01*
X55670Y81019D01*
X55721Y81086D01*
X55770Y81155D01*
X55816Y81225D01*
X55859Y81298D01*
X55899Y81372D01*
X55935Y81448D01*
X55968Y81526D01*
X55998Y81605D01*
X56025Y81685D01*
X56048Y81766D01*
X56067Y81848D01*
X56083Y81930D01*
X56096Y82014D01*
X56105Y82098D01*
X56110Y82182D01*
X56112Y82266D01*
X55498Y80833D02*
X52020Y76741D01*
X56112Y76741D01*
D12*
X29803Y64008D02*
X25908Y64008D01*
X29803Y64008D02*
X29902Y64010D01*
X30002Y64016D01*
X30101Y64025D01*
X30199Y64038D01*
X30297Y64055D01*
X30395Y64076D01*
X30491Y64101D01*
X30586Y64129D01*
X30680Y64161D01*
X30773Y64196D01*
X30865Y64235D01*
X30955Y64278D01*
X31043Y64323D01*
X31130Y64373D01*
X31214Y64425D01*
X31297Y64481D01*
X31377Y64539D01*
X31455Y64601D01*
X31530Y64666D01*
X31603Y64734D01*
X31673Y64804D01*
X31741Y64877D01*
X31806Y64952D01*
X31868Y65030D01*
X31926Y65110D01*
X31982Y65193D01*
X32034Y65277D01*
X32084Y65364D01*
X32129Y65452D01*
X32172Y65542D01*
X32211Y65634D01*
X32246Y65727D01*
X32278Y65821D01*
X32306Y65916D01*
X32331Y66012D01*
X32352Y66110D01*
X32369Y66208D01*
X32382Y66306D01*
X32391Y66405D01*
X32397Y66505D01*
X32399Y66604D01*
X32399Y67903D01*
X32397Y68002D01*
X32391Y68102D01*
X32382Y68201D01*
X32369Y68299D01*
X32352Y68397D01*
X32331Y68495D01*
X32306Y68591D01*
X32278Y68686D01*
X32246Y68780D01*
X32211Y68873D01*
X32172Y68965D01*
X32129Y69055D01*
X32084Y69143D01*
X32034Y69230D01*
X31982Y69314D01*
X31926Y69397D01*
X31868Y69477D01*
X31806Y69555D01*
X31741Y69630D01*
X31673Y69703D01*
X31603Y69773D01*
X31530Y69841D01*
X31455Y69906D01*
X31377Y69968D01*
X31297Y70026D01*
X31214Y70082D01*
X31130Y70134D01*
X31043Y70184D01*
X30955Y70229D01*
X30865Y70272D01*
X30773Y70311D01*
X30680Y70346D01*
X30586Y70378D01*
X30491Y70406D01*
X30395Y70431D01*
X30297Y70452D01*
X30199Y70469D01*
X30101Y70482D01*
X30002Y70491D01*
X29902Y70497D01*
X29803Y70499D01*
X25908Y70499D01*
X25908Y75692D01*
X32399Y75692D01*
X36689Y75692D02*
X40584Y64008D01*
X44478Y75692D01*
X49318Y75692D02*
X49318Y64008D01*
X49318Y75692D02*
X52564Y75692D01*
X52677Y75690D01*
X52790Y75684D01*
X52903Y75674D01*
X53016Y75660D01*
X53128Y75643D01*
X53239Y75621D01*
X53349Y75596D01*
X53459Y75566D01*
X53567Y75533D01*
X53674Y75496D01*
X53780Y75456D01*
X53884Y75411D01*
X53987Y75363D01*
X54088Y75312D01*
X54187Y75257D01*
X54284Y75199D01*
X54379Y75137D01*
X54472Y75072D01*
X54562Y75004D01*
X54650Y74933D01*
X54736Y74858D01*
X54819Y74781D01*
X54899Y74701D01*
X54976Y74618D01*
X55051Y74532D01*
X55122Y74444D01*
X55190Y74354D01*
X55255Y74261D01*
X55317Y74166D01*
X55375Y74069D01*
X55430Y73970D01*
X55481Y73869D01*
X55529Y73766D01*
X55574Y73662D01*
X55614Y73556D01*
X55651Y73449D01*
X55684Y73341D01*
X55714Y73231D01*
X55739Y73121D01*
X55761Y73010D01*
X55778Y72898D01*
X55792Y72785D01*
X55802Y72672D01*
X55808Y72559D01*
X55810Y72446D01*
X55808Y72333D01*
X55802Y72220D01*
X55792Y72107D01*
X55778Y71994D01*
X55761Y71882D01*
X55739Y71771D01*
X55714Y71661D01*
X55684Y71551D01*
X55651Y71443D01*
X55614Y71336D01*
X55574Y71230D01*
X55529Y71126D01*
X55481Y71023D01*
X55430Y70922D01*
X55375Y70823D01*
X55317Y70726D01*
X55255Y70631D01*
X55190Y70538D01*
X55122Y70448D01*
X55051Y70360D01*
X54976Y70274D01*
X54899Y70191D01*
X54819Y70111D01*
X54736Y70034D01*
X54650Y69959D01*
X54562Y69888D01*
X54472Y69820D01*
X54379Y69755D01*
X54284Y69693D01*
X54187Y69635D01*
X54088Y69580D01*
X53987Y69529D01*
X53884Y69481D01*
X53780Y69436D01*
X53674Y69396D01*
X53567Y69359D01*
X53459Y69326D01*
X53349Y69296D01*
X53239Y69271D01*
X53128Y69249D01*
X53016Y69232D01*
X52903Y69218D01*
X52790Y69208D01*
X52677Y69202D01*
X52564Y69200D01*
X52564Y69201D02*
X49318Y69201D01*
X60198Y67254D02*
X60198Y72446D01*
X60197Y72446D02*
X60199Y72559D01*
X60205Y72672D01*
X60215Y72785D01*
X60229Y72898D01*
X60246Y73010D01*
X60268Y73121D01*
X60293Y73231D01*
X60323Y73341D01*
X60356Y73449D01*
X60393Y73556D01*
X60433Y73662D01*
X60478Y73766D01*
X60526Y73869D01*
X60577Y73970D01*
X60632Y74069D01*
X60690Y74166D01*
X60752Y74261D01*
X60817Y74354D01*
X60885Y74444D01*
X60956Y74532D01*
X61031Y74618D01*
X61108Y74701D01*
X61188Y74781D01*
X61271Y74858D01*
X61357Y74933D01*
X61445Y75004D01*
X61535Y75072D01*
X61628Y75137D01*
X61723Y75199D01*
X61820Y75257D01*
X61919Y75312D01*
X62020Y75363D01*
X62123Y75411D01*
X62227Y75456D01*
X62333Y75496D01*
X62440Y75533D01*
X62548Y75566D01*
X62658Y75596D01*
X62768Y75621D01*
X62879Y75643D01*
X62991Y75660D01*
X63104Y75674D01*
X63217Y75684D01*
X63330Y75690D01*
X63443Y75692D01*
X63556Y75690D01*
X63669Y75684D01*
X63782Y75674D01*
X63895Y75660D01*
X64007Y75643D01*
X64118Y75621D01*
X64228Y75596D01*
X64338Y75566D01*
X64446Y75533D01*
X64553Y75496D01*
X64659Y75456D01*
X64763Y75411D01*
X64866Y75363D01*
X64967Y75312D01*
X65066Y75257D01*
X65163Y75199D01*
X65258Y75137D01*
X65351Y75072D01*
X65441Y75004D01*
X65529Y74933D01*
X65615Y74858D01*
X65698Y74781D01*
X65778Y74701D01*
X65855Y74618D01*
X65930Y74532D01*
X66001Y74444D01*
X66069Y74354D01*
X66134Y74261D01*
X66196Y74166D01*
X66254Y74069D01*
X66309Y73970D01*
X66360Y73869D01*
X66408Y73766D01*
X66453Y73662D01*
X66493Y73556D01*
X66530Y73449D01*
X66563Y73341D01*
X66593Y73231D01*
X66618Y73121D01*
X66640Y73010D01*
X66657Y72898D01*
X66671Y72785D01*
X66681Y72672D01*
X66687Y72559D01*
X66689Y72446D01*
X66689Y67254D01*
X66687Y67141D01*
X66681Y67028D01*
X66671Y66915D01*
X66657Y66802D01*
X66640Y66690D01*
X66618Y66579D01*
X66593Y66469D01*
X66563Y66359D01*
X66530Y66251D01*
X66493Y66144D01*
X66453Y66038D01*
X66408Y65934D01*
X66360Y65831D01*
X66309Y65730D01*
X66254Y65631D01*
X66196Y65534D01*
X66134Y65439D01*
X66069Y65346D01*
X66001Y65256D01*
X65930Y65168D01*
X65855Y65082D01*
X65778Y64999D01*
X65698Y64919D01*
X65615Y64842D01*
X65529Y64767D01*
X65441Y64696D01*
X65351Y64628D01*
X65258Y64563D01*
X65163Y64501D01*
X65066Y64443D01*
X64967Y64388D01*
X64866Y64337D01*
X64763Y64289D01*
X64659Y64244D01*
X64553Y64204D01*
X64446Y64167D01*
X64338Y64134D01*
X64228Y64104D01*
X64118Y64079D01*
X64007Y64057D01*
X63895Y64040D01*
X63782Y64026D01*
X63669Y64016D01*
X63556Y64010D01*
X63443Y64008D01*
X63330Y64010D01*
X63217Y64016D01*
X63104Y64026D01*
X62991Y64040D01*
X62879Y64057D01*
X62768Y64079D01*
X62658Y64104D01*
X62548Y64134D01*
X62440Y64167D01*
X62333Y64204D01*
X62227Y64244D01*
X62123Y64289D01*
X62020Y64337D01*
X61919Y64388D01*
X61820Y64443D01*
X61723Y64501D01*
X61628Y64563D01*
X61535Y64628D01*
X61445Y64696D01*
X61357Y64767D01*
X61271Y64842D01*
X61188Y64919D01*
X61108Y64999D01*
X61031Y65082D01*
X60956Y65168D01*
X60885Y65256D01*
X60817Y65346D01*
X60752Y65439D01*
X60690Y65534D01*
X60632Y65631D01*
X60577Y65730D01*
X60526Y65831D01*
X60478Y65934D01*
X60433Y66038D01*
X60393Y66144D01*
X60356Y66251D01*
X60323Y66359D01*
X60293Y66469D01*
X60268Y66579D01*
X60246Y66690D01*
X60229Y66802D01*
X60215Y66915D01*
X60205Y67028D01*
X60199Y67141D01*
X60197Y67254D01*
X71205Y75692D02*
X73801Y64008D01*
X76397Y71797D01*
X78994Y64008D01*
X81590Y75692D01*
X86510Y64008D02*
X91702Y64008D01*
X86510Y64008D02*
X86510Y75692D01*
X91702Y75692D01*
X90404Y70499D02*
X86510Y70499D01*
X96467Y75692D02*
X96467Y64008D01*
X96467Y75692D02*
X99712Y75692D01*
X99825Y75690D01*
X99938Y75684D01*
X100051Y75674D01*
X100164Y75660D01*
X100276Y75643D01*
X100387Y75621D01*
X100497Y75596D01*
X100607Y75566D01*
X100715Y75533D01*
X100822Y75496D01*
X100928Y75456D01*
X101032Y75411D01*
X101135Y75363D01*
X101236Y75312D01*
X101335Y75257D01*
X101432Y75199D01*
X101527Y75137D01*
X101620Y75072D01*
X101710Y75004D01*
X101798Y74933D01*
X101884Y74858D01*
X101967Y74781D01*
X102047Y74701D01*
X102124Y74618D01*
X102199Y74532D01*
X102270Y74444D01*
X102338Y74354D01*
X102403Y74261D01*
X102465Y74166D01*
X102523Y74069D01*
X102578Y73970D01*
X102629Y73869D01*
X102677Y73766D01*
X102722Y73662D01*
X102762Y73556D01*
X102799Y73449D01*
X102832Y73341D01*
X102862Y73231D01*
X102887Y73121D01*
X102909Y73010D01*
X102926Y72898D01*
X102940Y72785D01*
X102950Y72672D01*
X102956Y72559D01*
X102958Y72446D01*
X102956Y72333D01*
X102950Y72220D01*
X102940Y72107D01*
X102926Y71994D01*
X102909Y71882D01*
X102887Y71771D01*
X102862Y71661D01*
X102832Y71551D01*
X102799Y71443D01*
X102762Y71336D01*
X102722Y71230D01*
X102677Y71126D01*
X102629Y71023D01*
X102578Y70922D01*
X102523Y70823D01*
X102465Y70726D01*
X102403Y70631D01*
X102338Y70538D01*
X102270Y70448D01*
X102199Y70360D01*
X102124Y70274D01*
X102047Y70191D01*
X101967Y70111D01*
X101884Y70034D01*
X101798Y69959D01*
X101710Y69888D01*
X101620Y69820D01*
X101527Y69755D01*
X101432Y69693D01*
X101335Y69635D01*
X101236Y69580D01*
X101135Y69529D01*
X101032Y69481D01*
X100928Y69436D01*
X100822Y69396D01*
X100715Y69359D01*
X100607Y69326D01*
X100497Y69296D01*
X100387Y69271D01*
X100276Y69249D01*
X100164Y69232D01*
X100051Y69218D01*
X99938Y69208D01*
X99825Y69202D01*
X99712Y69200D01*
X99712Y69201D02*
X96467Y69201D01*
X100361Y69201D02*
X102958Y64008D01*
D13*
X221525Y32275D03*
X221525Y18525D03*
D14*
X217650Y25400D03*
D11*
X248257Y18937D02*
X248257Y16891D01*
X248257Y18937D02*
X248259Y19026D01*
X248265Y19115D01*
X248275Y19204D01*
X248288Y19292D01*
X248305Y19380D01*
X248327Y19467D01*
X248352Y19552D01*
X248380Y19637D01*
X248413Y19720D01*
X248449Y19802D01*
X248488Y19882D01*
X248531Y19960D01*
X248577Y20036D01*
X248627Y20111D01*
X248680Y20183D01*
X248736Y20252D01*
X248795Y20319D01*
X248856Y20384D01*
X248921Y20445D01*
X248988Y20504D01*
X249057Y20560D01*
X249129Y20613D01*
X249204Y20663D01*
X249280Y20709D01*
X249358Y20752D01*
X249438Y20791D01*
X249520Y20827D01*
X249603Y20860D01*
X249688Y20888D01*
X249773Y20913D01*
X249860Y20935D01*
X249948Y20952D01*
X250036Y20965D01*
X250125Y20975D01*
X250214Y20981D01*
X250303Y20983D01*
X250392Y20981D01*
X250481Y20975D01*
X250570Y20965D01*
X250658Y20952D01*
X250746Y20935D01*
X250833Y20913D01*
X250918Y20888D01*
X251003Y20860D01*
X251086Y20827D01*
X251168Y20791D01*
X251248Y20752D01*
X251326Y20709D01*
X251402Y20663D01*
X251477Y20613D01*
X251549Y20560D01*
X251618Y20504D01*
X251685Y20445D01*
X251750Y20384D01*
X251811Y20319D01*
X251870Y20252D01*
X251926Y20183D01*
X251979Y20111D01*
X252029Y20036D01*
X252075Y19960D01*
X252118Y19882D01*
X252157Y19802D01*
X252193Y19720D01*
X252226Y19637D01*
X252254Y19552D01*
X252279Y19467D01*
X252301Y19380D01*
X252318Y19292D01*
X252331Y19204D01*
X252341Y19115D01*
X252347Y19026D01*
X252349Y18937D01*
X252349Y16891D01*
X244983Y16891D01*
X244983Y18937D01*
X244985Y19016D01*
X244991Y19095D01*
X245000Y19174D01*
X245013Y19252D01*
X245031Y19329D01*
X245051Y19405D01*
X245076Y19480D01*
X245104Y19554D01*
X245135Y19627D01*
X245171Y19698D01*
X245209Y19767D01*
X245251Y19834D01*
X245296Y19899D01*
X245344Y19962D01*
X245395Y20023D01*
X245449Y20080D01*
X245505Y20136D01*
X245564Y20188D01*
X245626Y20238D01*
X245690Y20284D01*
X245756Y20328D01*
X245824Y20368D01*
X245894Y20404D01*
X245966Y20438D01*
X246040Y20468D01*
X246114Y20494D01*
X246190Y20517D01*
X246267Y20535D01*
X246344Y20551D01*
X246423Y20562D01*
X246501Y20570D01*
X246580Y20574D01*
X246660Y20574D01*
X246739Y20570D01*
X246817Y20562D01*
X246896Y20551D01*
X246973Y20535D01*
X247050Y20517D01*
X247126Y20494D01*
X247200Y20468D01*
X247274Y20438D01*
X247346Y20404D01*
X247416Y20368D01*
X247484Y20328D01*
X247550Y20284D01*
X247614Y20238D01*
X247676Y20188D01*
X247735Y20136D01*
X247791Y20080D01*
X247845Y20023D01*
X247896Y19962D01*
X247944Y19899D01*
X247989Y19834D01*
X248031Y19767D01*
X248069Y19698D01*
X248105Y19627D01*
X248136Y19554D01*
X248164Y19480D01*
X248189Y19405D01*
X248209Y19329D01*
X248227Y19252D01*
X248240Y19174D01*
X248249Y19095D01*
X248255Y19016D01*
X248257Y18937D01*
X244983Y24104D02*
X252349Y24104D01*
X252349Y27378D01*
X252349Y30444D02*
X252349Y33718D01*
X252349Y30444D02*
X244983Y30444D01*
X244983Y33718D01*
X248257Y32899D02*
X248257Y30444D01*
X253167Y36202D02*
X253167Y39476D01*
X252349Y44588D02*
X252347Y44666D01*
X252342Y44744D01*
X252332Y44821D01*
X252319Y44898D01*
X252303Y44974D01*
X252283Y45049D01*
X252259Y45123D01*
X252232Y45196D01*
X252201Y45268D01*
X252167Y45338D01*
X252130Y45407D01*
X252089Y45473D01*
X252045Y45538D01*
X251999Y45600D01*
X251949Y45660D01*
X251897Y45718D01*
X251842Y45773D01*
X251784Y45825D01*
X251724Y45875D01*
X251662Y45921D01*
X251597Y45965D01*
X251531Y46006D01*
X251462Y46043D01*
X251392Y46077D01*
X251320Y46108D01*
X251247Y46135D01*
X251173Y46159D01*
X251098Y46179D01*
X251022Y46195D01*
X250945Y46208D01*
X250868Y46218D01*
X250790Y46223D01*
X250712Y46225D01*
X252349Y44588D02*
X252347Y44474D01*
X252342Y44361D01*
X252332Y44247D01*
X252319Y44134D01*
X252302Y44022D01*
X252282Y43910D01*
X252258Y43799D01*
X252230Y43688D01*
X252199Y43579D01*
X252164Y43471D01*
X252125Y43364D01*
X252083Y43258D01*
X252038Y43154D01*
X251989Y43051D01*
X251936Y42950D01*
X251881Y42851D01*
X251822Y42753D01*
X251760Y42658D01*
X251695Y42565D01*
X251627Y42473D01*
X251556Y42385D01*
X251482Y42298D01*
X251405Y42214D01*
X251326Y42133D01*
X246620Y42337D02*
X246542Y42339D01*
X246464Y42344D01*
X246387Y42354D01*
X246310Y42367D01*
X246234Y42383D01*
X246159Y42403D01*
X246085Y42427D01*
X246012Y42454D01*
X245940Y42485D01*
X245870Y42519D01*
X245802Y42556D01*
X245735Y42597D01*
X245670Y42641D01*
X245608Y42687D01*
X245548Y42737D01*
X245490Y42789D01*
X245435Y42844D01*
X245383Y42902D01*
X245333Y42962D01*
X245287Y43024D01*
X245243Y43089D01*
X245202Y43156D01*
X245165Y43224D01*
X245131Y43294D01*
X245100Y43366D01*
X245073Y43439D01*
X245049Y43513D01*
X245029Y43588D01*
X245013Y43664D01*
X245000Y43741D01*
X244990Y43818D01*
X244985Y43896D01*
X244983Y43974D01*
X244985Y44084D01*
X244991Y44193D01*
X245001Y44303D01*
X245014Y44411D01*
X245032Y44520D01*
X245053Y44627D01*
X245079Y44734D01*
X245108Y44840D01*
X245140Y44945D01*
X245177Y45048D01*
X245217Y45150D01*
X245261Y45251D01*
X245309Y45350D01*
X245359Y45447D01*
X245414Y45542D01*
X245472Y45635D01*
X245533Y45726D01*
X245597Y45815D01*
X248052Y43156D02*
X248010Y43090D01*
X247966Y43025D01*
X247918Y42963D01*
X247868Y42903D01*
X247815Y42845D01*
X247759Y42790D01*
X247701Y42737D01*
X247640Y42688D01*
X247577Y42641D01*
X247512Y42597D01*
X247445Y42557D01*
X247376Y42520D01*
X247305Y42486D01*
X247233Y42455D01*
X247159Y42428D01*
X247084Y42404D01*
X247009Y42384D01*
X246932Y42368D01*
X246855Y42355D01*
X246777Y42345D01*
X246698Y42340D01*
X246620Y42338D01*
X249279Y45406D02*
X249321Y45473D01*
X249365Y45538D01*
X249413Y45600D01*
X249463Y45660D01*
X249516Y45718D01*
X249572Y45773D01*
X249631Y45825D01*
X249691Y45875D01*
X249755Y45922D01*
X249820Y45965D01*
X249887Y46006D01*
X249956Y46043D01*
X250027Y46077D01*
X250099Y46108D01*
X250173Y46135D01*
X250247Y46159D01*
X250323Y46179D01*
X250400Y46195D01*
X250477Y46208D01*
X250555Y46218D01*
X250634Y46223D01*
X250712Y46225D01*
X249280Y45406D02*
X248052Y43156D01*
X244983Y50762D02*
X252349Y50762D01*
X244983Y48716D02*
X244983Y52809D01*
X244983Y57590D02*
X252349Y55135D01*
X252349Y60045D02*
X244983Y57590D01*
X250508Y59431D02*
X250508Y55748D01*
X252349Y64417D02*
X244983Y64417D01*
X244983Y62371D02*
X244983Y66464D01*
X244983Y69443D02*
X250303Y69443D01*
X250392Y69445D01*
X250481Y69451D01*
X250570Y69461D01*
X250658Y69474D01*
X250746Y69491D01*
X250833Y69513D01*
X250918Y69538D01*
X251003Y69566D01*
X251086Y69599D01*
X251168Y69635D01*
X251248Y69674D01*
X251326Y69717D01*
X251402Y69763D01*
X251477Y69813D01*
X251549Y69866D01*
X251618Y69922D01*
X251685Y69981D01*
X251750Y70042D01*
X251811Y70107D01*
X251870Y70174D01*
X251926Y70243D01*
X251979Y70315D01*
X252029Y70390D01*
X252075Y70466D01*
X252118Y70544D01*
X252157Y70624D01*
X252193Y70706D01*
X252226Y70789D01*
X252254Y70874D01*
X252279Y70959D01*
X252301Y71046D01*
X252318Y71134D01*
X252331Y71222D01*
X252341Y71311D01*
X252347Y71400D01*
X252349Y71489D01*
X252347Y71578D01*
X252341Y71667D01*
X252331Y71756D01*
X252318Y71844D01*
X252301Y71932D01*
X252279Y72019D01*
X252254Y72104D01*
X252226Y72189D01*
X252193Y72272D01*
X252157Y72354D01*
X252118Y72434D01*
X252075Y72512D01*
X252029Y72588D01*
X251979Y72663D01*
X251926Y72735D01*
X251870Y72804D01*
X251811Y72871D01*
X251750Y72936D01*
X251685Y72997D01*
X251618Y73056D01*
X251549Y73112D01*
X251477Y73165D01*
X251402Y73215D01*
X251326Y73261D01*
X251248Y73304D01*
X251168Y73343D01*
X251086Y73379D01*
X251003Y73412D01*
X250918Y73440D01*
X250833Y73465D01*
X250746Y73487D01*
X250658Y73504D01*
X250570Y73517D01*
X250481Y73527D01*
X250392Y73533D01*
X250303Y73535D01*
X244983Y73535D01*
X250712Y80850D02*
X250790Y80848D01*
X250868Y80843D01*
X250945Y80833D01*
X251022Y80820D01*
X251098Y80804D01*
X251173Y80784D01*
X251247Y80760D01*
X251320Y80733D01*
X251392Y80702D01*
X251462Y80668D01*
X251531Y80631D01*
X251597Y80590D01*
X251662Y80546D01*
X251724Y80500D01*
X251784Y80450D01*
X251842Y80398D01*
X251897Y80343D01*
X251949Y80285D01*
X251999Y80225D01*
X252045Y80163D01*
X252089Y80098D01*
X252130Y80032D01*
X252167Y79963D01*
X252201Y79893D01*
X252232Y79821D01*
X252259Y79748D01*
X252283Y79674D01*
X252303Y79599D01*
X252319Y79523D01*
X252332Y79446D01*
X252342Y79369D01*
X252347Y79291D01*
X252349Y79213D01*
X252347Y79099D01*
X252342Y78986D01*
X252332Y78872D01*
X252319Y78759D01*
X252302Y78647D01*
X252282Y78535D01*
X252258Y78424D01*
X252230Y78313D01*
X252199Y78204D01*
X252164Y78096D01*
X252125Y77989D01*
X252083Y77883D01*
X252038Y77779D01*
X251989Y77676D01*
X251936Y77575D01*
X251881Y77476D01*
X251822Y77378D01*
X251760Y77283D01*
X251695Y77190D01*
X251627Y77098D01*
X251556Y77010D01*
X251482Y76923D01*
X251405Y76839D01*
X251326Y76758D01*
X246620Y76962D02*
X246542Y76964D01*
X246464Y76969D01*
X246387Y76979D01*
X246310Y76992D01*
X246234Y77008D01*
X246159Y77028D01*
X246085Y77052D01*
X246012Y77079D01*
X245940Y77110D01*
X245870Y77144D01*
X245802Y77181D01*
X245735Y77222D01*
X245670Y77266D01*
X245608Y77312D01*
X245548Y77362D01*
X245490Y77414D01*
X245435Y77469D01*
X245383Y77527D01*
X245333Y77587D01*
X245287Y77649D01*
X245243Y77714D01*
X245202Y77781D01*
X245165Y77849D01*
X245131Y77919D01*
X245100Y77991D01*
X245073Y78064D01*
X245049Y78138D01*
X245029Y78213D01*
X245013Y78289D01*
X245000Y78366D01*
X244990Y78443D01*
X244985Y78521D01*
X244983Y78599D01*
X244985Y78709D01*
X244991Y78818D01*
X245001Y78928D01*
X245014Y79036D01*
X245032Y79145D01*
X245053Y79252D01*
X245079Y79359D01*
X245108Y79465D01*
X245140Y79570D01*
X245177Y79673D01*
X245217Y79775D01*
X245261Y79876D01*
X245309Y79975D01*
X245359Y80072D01*
X245414Y80167D01*
X245472Y80260D01*
X245533Y80351D01*
X245597Y80440D01*
X248052Y77781D02*
X248010Y77715D01*
X247966Y77650D01*
X247918Y77588D01*
X247868Y77528D01*
X247815Y77470D01*
X247759Y77415D01*
X247701Y77362D01*
X247640Y77313D01*
X247577Y77266D01*
X247512Y77222D01*
X247445Y77182D01*
X247376Y77145D01*
X247305Y77111D01*
X247233Y77080D01*
X247159Y77053D01*
X247084Y77029D01*
X247009Y77009D01*
X246932Y76993D01*
X246855Y76980D01*
X246777Y76970D01*
X246698Y76965D01*
X246620Y76963D01*
X249279Y80032D02*
X249321Y80099D01*
X249365Y80164D01*
X249413Y80226D01*
X249463Y80286D01*
X249516Y80344D01*
X249572Y80399D01*
X249631Y80451D01*
X249691Y80501D01*
X249755Y80548D01*
X249820Y80591D01*
X249887Y80632D01*
X249956Y80669D01*
X250027Y80703D01*
X250099Y80734D01*
X250173Y80761D01*
X250247Y80785D01*
X250323Y80805D01*
X250400Y80821D01*
X250477Y80834D01*
X250555Y80844D01*
X250634Y80849D01*
X250712Y80851D01*
X249280Y80032D02*
X248052Y77781D01*
D15*
X241300Y123000D02*
X10300Y123000D01*
X10300Y537000D02*
X241300Y537000D01*
X241300Y123000D01*
X10300Y123000D02*
X10300Y537000D01*
D12*
X89408Y292608D02*
X101092Y292608D01*
X101092Y297801D01*
X101092Y304674D02*
X101092Y307270D01*
X101092Y304674D02*
X101090Y304575D01*
X101084Y304475D01*
X101075Y304376D01*
X101062Y304278D01*
X101045Y304180D01*
X101024Y304082D01*
X100999Y303986D01*
X100971Y303891D01*
X100939Y303797D01*
X100904Y303704D01*
X100865Y303612D01*
X100822Y303522D01*
X100777Y303434D01*
X100727Y303347D01*
X100675Y303263D01*
X100619Y303180D01*
X100561Y303100D01*
X100499Y303022D01*
X100434Y302947D01*
X100366Y302874D01*
X100296Y302804D01*
X100223Y302736D01*
X100148Y302671D01*
X100070Y302609D01*
X99990Y302551D01*
X99907Y302495D01*
X99823Y302443D01*
X99736Y302393D01*
X99648Y302348D01*
X99558Y302305D01*
X99466Y302266D01*
X99373Y302231D01*
X99279Y302199D01*
X99184Y302171D01*
X99088Y302146D01*
X98990Y302125D01*
X98892Y302108D01*
X98794Y302095D01*
X98695Y302086D01*
X98595Y302080D01*
X98496Y302078D01*
X98496Y302077D02*
X92004Y302077D01*
X91905Y302079D01*
X91805Y302085D01*
X91706Y302094D01*
X91608Y302107D01*
X91510Y302125D01*
X91412Y302145D01*
X91316Y302170D01*
X91220Y302198D01*
X91126Y302230D01*
X91033Y302265D01*
X90942Y302304D01*
X90852Y302347D01*
X90763Y302392D01*
X90677Y302442D01*
X90592Y302494D01*
X90510Y302550D01*
X90430Y302609D01*
X90352Y302670D01*
X90276Y302735D01*
X90203Y302803D01*
X90133Y302873D01*
X90065Y302946D01*
X90000Y303022D01*
X89939Y303100D01*
X89880Y303180D01*
X89824Y303262D01*
X89772Y303347D01*
X89723Y303433D01*
X89677Y303522D01*
X89634Y303612D01*
X89595Y303703D01*
X89560Y303796D01*
X89528Y303890D01*
X89500Y303986D01*
X89475Y304082D01*
X89455Y304180D01*
X89437Y304278D01*
X89424Y304376D01*
X89415Y304475D01*
X89409Y304574D01*
X89407Y304674D01*
X89408Y304674D02*
X89408Y307270D01*
X89408Y312016D02*
X101092Y312016D01*
X89408Y312016D02*
X89408Y315262D01*
X89410Y315375D01*
X89416Y315488D01*
X89426Y315601D01*
X89440Y315714D01*
X89457Y315826D01*
X89479Y315937D01*
X89504Y316047D01*
X89534Y316157D01*
X89567Y316265D01*
X89604Y316372D01*
X89644Y316478D01*
X89689Y316582D01*
X89737Y316685D01*
X89788Y316786D01*
X89843Y316885D01*
X89901Y316982D01*
X89963Y317077D01*
X90028Y317170D01*
X90096Y317260D01*
X90167Y317348D01*
X90242Y317434D01*
X90319Y317517D01*
X90399Y317597D01*
X90482Y317674D01*
X90568Y317749D01*
X90656Y317820D01*
X90746Y317888D01*
X90839Y317953D01*
X90934Y318015D01*
X91031Y318073D01*
X91130Y318128D01*
X91231Y318179D01*
X91334Y318227D01*
X91438Y318272D01*
X91544Y318312D01*
X91651Y318349D01*
X91759Y318382D01*
X91869Y318412D01*
X91979Y318437D01*
X92090Y318459D01*
X92202Y318476D01*
X92315Y318490D01*
X92428Y318500D01*
X92541Y318506D01*
X92654Y318508D01*
X97846Y318508D01*
X97959Y318506D01*
X98072Y318500D01*
X98185Y318490D01*
X98298Y318476D01*
X98410Y318459D01*
X98521Y318437D01*
X98631Y318412D01*
X98741Y318382D01*
X98849Y318349D01*
X98956Y318312D01*
X99062Y318272D01*
X99166Y318227D01*
X99269Y318179D01*
X99370Y318128D01*
X99469Y318073D01*
X99566Y318015D01*
X99661Y317953D01*
X99754Y317888D01*
X99844Y317820D01*
X99932Y317749D01*
X100018Y317674D01*
X100101Y317597D01*
X100181Y317517D01*
X100258Y317434D01*
X100333Y317348D01*
X100404Y317260D01*
X100472Y317170D01*
X100537Y317077D01*
X100599Y316982D01*
X100657Y316885D01*
X100712Y316786D01*
X100763Y316685D01*
X100811Y316582D01*
X100856Y316478D01*
X100896Y316372D01*
X100933Y316265D01*
X100966Y316157D01*
X100996Y316047D01*
X101021Y315937D01*
X101043Y315826D01*
X101060Y315714D01*
X101074Y315601D01*
X101084Y315488D01*
X101090Y315375D01*
X101092Y315262D01*
X101092Y312016D01*
D10*
X244729Y305435D02*
X249555Y305435D01*
X244729Y305435D02*
X244729Y306776D01*
X244731Y306847D01*
X244737Y306919D01*
X244746Y306989D01*
X244759Y307059D01*
X244776Y307129D01*
X244797Y307197D01*
X244821Y307264D01*
X244849Y307330D01*
X244880Y307394D01*
X244915Y307457D01*
X244953Y307517D01*
X244994Y307576D01*
X245038Y307632D01*
X245085Y307686D01*
X245134Y307737D01*
X245187Y307785D01*
X245242Y307831D01*
X245299Y307873D01*
X245359Y307913D01*
X245420Y307949D01*
X245484Y307982D01*
X245549Y308011D01*
X245615Y308037D01*
X245683Y308060D01*
X245752Y308079D01*
X245822Y308094D01*
X245892Y308105D01*
X245963Y308113D01*
X246034Y308117D01*
X246106Y308117D01*
X246177Y308113D01*
X246248Y308105D01*
X246318Y308094D01*
X246388Y308079D01*
X246457Y308060D01*
X246525Y308037D01*
X246591Y308011D01*
X246656Y307982D01*
X246720Y307949D01*
X246781Y307913D01*
X246841Y307873D01*
X246898Y307831D01*
X246953Y307785D01*
X247006Y307737D01*
X247055Y307686D01*
X247102Y307632D01*
X247146Y307576D01*
X247187Y307517D01*
X247225Y307457D01*
X247260Y307394D01*
X247291Y307330D01*
X247319Y307264D01*
X247343Y307197D01*
X247364Y307129D01*
X247381Y307059D01*
X247394Y306989D01*
X247403Y306919D01*
X247409Y306847D01*
X247411Y306776D01*
X247410Y306776D02*
X247410Y305435D01*
X249555Y310839D02*
X244729Y310839D01*
X244729Y312179D01*
X244731Y312250D01*
X244737Y312322D01*
X244746Y312392D01*
X244759Y312462D01*
X244776Y312532D01*
X244797Y312600D01*
X244821Y312667D01*
X244849Y312733D01*
X244880Y312797D01*
X244915Y312860D01*
X244953Y312920D01*
X244994Y312979D01*
X245038Y313035D01*
X245085Y313089D01*
X245134Y313140D01*
X245187Y313188D01*
X245242Y313234D01*
X245299Y313276D01*
X245359Y313316D01*
X245420Y313352D01*
X245484Y313385D01*
X245549Y313414D01*
X245615Y313440D01*
X245683Y313463D01*
X245752Y313482D01*
X245822Y313497D01*
X245892Y313508D01*
X245963Y313516D01*
X246034Y313520D01*
X246106Y313520D01*
X246177Y313516D01*
X246248Y313508D01*
X246318Y313497D01*
X246388Y313482D01*
X246457Y313463D01*
X246525Y313440D01*
X246591Y313414D01*
X246656Y313385D01*
X246720Y313352D01*
X246781Y313316D01*
X246841Y313276D01*
X246898Y313234D01*
X246953Y313188D01*
X247006Y313140D01*
X247055Y313089D01*
X247102Y313035D01*
X247146Y312979D01*
X247187Y312920D01*
X247225Y312860D01*
X247260Y312797D01*
X247291Y312733D01*
X247319Y312667D01*
X247343Y312600D01*
X247364Y312532D01*
X247381Y312462D01*
X247394Y312392D01*
X247403Y312322D01*
X247409Y312250D01*
X247411Y312179D01*
X247410Y312179D02*
X247410Y310839D01*
X247410Y312447D02*
X249555Y313520D01*
X248214Y316261D02*
X246070Y316261D01*
X245999Y316263D01*
X245927Y316269D01*
X245857Y316278D01*
X245787Y316291D01*
X245717Y316308D01*
X245649Y316329D01*
X245582Y316353D01*
X245516Y316381D01*
X245452Y316412D01*
X245389Y316447D01*
X245329Y316485D01*
X245270Y316526D01*
X245214Y316570D01*
X245160Y316617D01*
X245109Y316666D01*
X245061Y316719D01*
X245015Y316774D01*
X244973Y316831D01*
X244933Y316891D01*
X244897Y316952D01*
X244864Y317016D01*
X244835Y317081D01*
X244809Y317147D01*
X244786Y317215D01*
X244767Y317284D01*
X244752Y317354D01*
X244741Y317424D01*
X244733Y317495D01*
X244729Y317566D01*
X244729Y317638D01*
X244733Y317709D01*
X244741Y317780D01*
X244752Y317850D01*
X244767Y317920D01*
X244786Y317989D01*
X244809Y318057D01*
X244835Y318123D01*
X244864Y318188D01*
X244897Y318252D01*
X244933Y318313D01*
X244973Y318373D01*
X245015Y318430D01*
X245061Y318485D01*
X245109Y318538D01*
X245160Y318587D01*
X245214Y318634D01*
X245270Y318678D01*
X245329Y318719D01*
X245389Y318757D01*
X245452Y318792D01*
X245516Y318823D01*
X245582Y318851D01*
X245649Y318875D01*
X245717Y318896D01*
X245787Y318913D01*
X245857Y318926D01*
X245927Y318935D01*
X245999Y318941D01*
X246070Y318943D01*
X246070Y318942D02*
X248214Y318942D01*
X248214Y318943D02*
X248285Y318941D01*
X248357Y318935D01*
X248427Y318926D01*
X248497Y318913D01*
X248567Y318896D01*
X248635Y318875D01*
X248702Y318851D01*
X248768Y318823D01*
X248832Y318792D01*
X248895Y318757D01*
X248955Y318719D01*
X249014Y318678D01*
X249070Y318634D01*
X249124Y318587D01*
X249175Y318538D01*
X249223Y318485D01*
X249269Y318430D01*
X249311Y318373D01*
X249351Y318313D01*
X249387Y318252D01*
X249420Y318188D01*
X249449Y318123D01*
X249475Y318057D01*
X249498Y317989D01*
X249517Y317920D01*
X249532Y317850D01*
X249543Y317780D01*
X249551Y317709D01*
X249555Y317638D01*
X249555Y317566D01*
X249551Y317495D01*
X249543Y317424D01*
X249532Y317354D01*
X249517Y317284D01*
X249498Y317215D01*
X249475Y317147D01*
X249449Y317081D01*
X249420Y317016D01*
X249387Y316952D01*
X249351Y316891D01*
X249311Y316831D01*
X249269Y316774D01*
X249223Y316719D01*
X249175Y316666D01*
X249124Y316617D01*
X249070Y316570D01*
X249014Y316526D01*
X248955Y316485D01*
X248895Y316447D01*
X248832Y316412D01*
X248768Y316381D01*
X248702Y316353D01*
X248635Y316329D01*
X248567Y316308D01*
X248497Y316291D01*
X248427Y316278D01*
X248357Y316269D01*
X248285Y316263D01*
X248214Y316261D01*
X246874Y323807D02*
X246874Y324612D01*
X249555Y324612D01*
X249555Y323003D01*
X249553Y322938D01*
X249547Y322874D01*
X249537Y322810D01*
X249524Y322746D01*
X249506Y322684D01*
X249485Y322623D01*
X249461Y322563D01*
X249432Y322505D01*
X249400Y322448D01*
X249365Y322394D01*
X249327Y322342D01*
X249285Y322292D01*
X249241Y322245D01*
X249194Y322201D01*
X249144Y322159D01*
X249092Y322121D01*
X249038Y322086D01*
X248981Y322054D01*
X248923Y322025D01*
X248863Y322001D01*
X248802Y321980D01*
X248740Y321962D01*
X248676Y321949D01*
X248612Y321939D01*
X248548Y321933D01*
X248483Y321931D01*
X245801Y321931D01*
X245801Y321930D02*
X245736Y321932D01*
X245672Y321938D01*
X245608Y321948D01*
X245544Y321961D01*
X245482Y321979D01*
X245421Y322000D01*
X245361Y322025D01*
X245302Y322053D01*
X245246Y322085D01*
X245191Y322120D01*
X245139Y322158D01*
X245089Y322200D01*
X245042Y322244D01*
X244998Y322291D01*
X244956Y322341D01*
X244918Y322393D01*
X244883Y322448D01*
X244851Y322504D01*
X244823Y322563D01*
X244798Y322622D01*
X244777Y322684D01*
X244759Y322746D01*
X244746Y322810D01*
X244736Y322874D01*
X244730Y322938D01*
X244728Y323003D01*
X244729Y323003D02*
X244729Y324612D01*
X244729Y327846D02*
X249555Y327846D01*
X244729Y327846D02*
X244729Y329187D01*
X244731Y329258D01*
X244737Y329330D01*
X244746Y329400D01*
X244759Y329470D01*
X244776Y329540D01*
X244797Y329608D01*
X244821Y329675D01*
X244849Y329741D01*
X244880Y329805D01*
X244915Y329868D01*
X244953Y329928D01*
X244994Y329987D01*
X245038Y330043D01*
X245085Y330097D01*
X245134Y330148D01*
X245187Y330196D01*
X245242Y330242D01*
X245299Y330284D01*
X245359Y330324D01*
X245420Y330360D01*
X245484Y330393D01*
X245549Y330422D01*
X245615Y330448D01*
X245683Y330471D01*
X245752Y330490D01*
X245822Y330505D01*
X245892Y330516D01*
X245963Y330524D01*
X246034Y330528D01*
X246106Y330528D01*
X246177Y330524D01*
X246248Y330516D01*
X246318Y330505D01*
X246388Y330490D01*
X246457Y330471D01*
X246525Y330448D01*
X246591Y330422D01*
X246656Y330393D01*
X246720Y330360D01*
X246781Y330324D01*
X246841Y330284D01*
X246898Y330242D01*
X246953Y330196D01*
X247006Y330148D01*
X247055Y330097D01*
X247102Y330043D01*
X247146Y329987D01*
X247187Y329928D01*
X247225Y329868D01*
X247260Y329805D01*
X247291Y329741D01*
X247319Y329675D01*
X247343Y329608D01*
X247364Y329540D01*
X247381Y329470D01*
X247394Y329400D01*
X247403Y329330D01*
X247409Y329258D01*
X247411Y329187D01*
X247410Y329187D02*
X247410Y327846D01*
X247410Y329455D02*
X249555Y330527D01*
X249555Y333001D02*
X244729Y334610D01*
X249555Y336218D01*
X248349Y335816D02*
X248349Y333403D01*
X249555Y339036D02*
X244729Y339036D01*
X247410Y340645D01*
X244729Y342253D01*
X249555Y342253D01*
X249555Y345620D02*
X244729Y345620D01*
X247410Y347228D01*
X244729Y348837D01*
X249555Y348837D01*
X196200Y111600D02*
X196200Y41600D01*
X234200Y41600D01*
X234200Y111600D01*
X196200Y111600D01*
D11*
X230947Y71219D02*
X230947Y69582D01*
X230945Y69504D01*
X230940Y69426D01*
X230930Y69349D01*
X230917Y69272D01*
X230901Y69196D01*
X230881Y69121D01*
X230857Y69047D01*
X230830Y68974D01*
X230799Y68902D01*
X230765Y68832D01*
X230728Y68764D01*
X230687Y68697D01*
X230643Y68632D01*
X230597Y68570D01*
X230547Y68510D01*
X230495Y68452D01*
X230440Y68397D01*
X230382Y68345D01*
X230322Y68295D01*
X230260Y68249D01*
X230195Y68205D01*
X230129Y68164D01*
X230060Y68127D01*
X229990Y68093D01*
X229918Y68062D01*
X229845Y68035D01*
X229771Y68011D01*
X229696Y67991D01*
X229620Y67975D01*
X229543Y67962D01*
X229466Y67952D01*
X229388Y67947D01*
X229310Y67945D01*
X225218Y67945D01*
X225138Y67947D01*
X225058Y67953D01*
X224978Y67963D01*
X224899Y67976D01*
X224820Y67994D01*
X224743Y68015D01*
X224667Y68041D01*
X224592Y68070D01*
X224518Y68102D01*
X224446Y68138D01*
X224376Y68178D01*
X224309Y68221D01*
X224243Y68267D01*
X224180Y68317D01*
X224119Y68369D01*
X224060Y68424D01*
X224005Y68483D01*
X223953Y68543D01*
X223903Y68607D01*
X223857Y68672D01*
X223814Y68740D01*
X223774Y68810D01*
X223738Y68882D01*
X223706Y68956D01*
X223677Y69030D01*
X223652Y69107D01*
X223630Y69184D01*
X223612Y69263D01*
X223599Y69342D01*
X223589Y69421D01*
X223583Y69502D01*
X223581Y69582D01*
X223581Y71219D01*
X243647Y91883D02*
X243645Y91961D01*
X243640Y92039D01*
X243630Y92116D01*
X243617Y92193D01*
X243601Y92269D01*
X243581Y92344D01*
X243557Y92418D01*
X243530Y92491D01*
X243499Y92563D01*
X243465Y92633D01*
X243428Y92702D01*
X243387Y92768D01*
X243343Y92833D01*
X243297Y92895D01*
X243247Y92955D01*
X243195Y93013D01*
X243140Y93068D01*
X243082Y93120D01*
X243022Y93170D01*
X242960Y93216D01*
X242895Y93260D01*
X242829Y93301D01*
X242760Y93338D01*
X242690Y93372D01*
X242618Y93403D01*
X242545Y93430D01*
X242471Y93454D01*
X242396Y93474D01*
X242320Y93490D01*
X242243Y93503D01*
X242166Y93513D01*
X242088Y93518D01*
X242010Y93520D01*
X243647Y91883D02*
X243645Y91769D01*
X243640Y91656D01*
X243630Y91542D01*
X243617Y91429D01*
X243600Y91317D01*
X243580Y91205D01*
X243556Y91094D01*
X243528Y90983D01*
X243497Y90874D01*
X243462Y90766D01*
X243423Y90659D01*
X243381Y90553D01*
X243336Y90449D01*
X243287Y90346D01*
X243234Y90245D01*
X243179Y90146D01*
X243120Y90048D01*
X243058Y89953D01*
X242993Y89860D01*
X242925Y89768D01*
X242854Y89680D01*
X242780Y89593D01*
X242703Y89509D01*
X242624Y89428D01*
X237918Y89632D02*
X237840Y89634D01*
X237762Y89639D01*
X237685Y89649D01*
X237608Y89662D01*
X237532Y89678D01*
X237457Y89698D01*
X237383Y89722D01*
X237310Y89749D01*
X237238Y89780D01*
X237168Y89814D01*
X237100Y89851D01*
X237033Y89892D01*
X236968Y89936D01*
X236906Y89982D01*
X236846Y90032D01*
X236788Y90084D01*
X236733Y90139D01*
X236681Y90197D01*
X236631Y90257D01*
X236585Y90319D01*
X236541Y90384D01*
X236500Y90451D01*
X236463Y90519D01*
X236429Y90589D01*
X236398Y90661D01*
X236371Y90734D01*
X236347Y90808D01*
X236327Y90883D01*
X236311Y90959D01*
X236298Y91036D01*
X236288Y91113D01*
X236283Y91191D01*
X236281Y91269D01*
X236283Y91379D01*
X236289Y91488D01*
X236299Y91598D01*
X236312Y91706D01*
X236330Y91815D01*
X236351Y91922D01*
X236377Y92029D01*
X236406Y92135D01*
X236438Y92240D01*
X236475Y92343D01*
X236515Y92445D01*
X236559Y92546D01*
X236607Y92645D01*
X236657Y92742D01*
X236712Y92837D01*
X236770Y92930D01*
X236831Y93021D01*
X236895Y93110D01*
X239350Y90451D02*
X239308Y90385D01*
X239264Y90320D01*
X239216Y90258D01*
X239166Y90198D01*
X239113Y90140D01*
X239057Y90085D01*
X238999Y90032D01*
X238938Y89983D01*
X238875Y89936D01*
X238810Y89892D01*
X238743Y89852D01*
X238674Y89815D01*
X238603Y89781D01*
X238531Y89750D01*
X238457Y89723D01*
X238382Y89699D01*
X238307Y89679D01*
X238230Y89663D01*
X238153Y89650D01*
X238075Y89640D01*
X237996Y89635D01*
X237918Y89633D01*
X240577Y92702D02*
X240619Y92769D01*
X240663Y92834D01*
X240711Y92896D01*
X240761Y92956D01*
X240814Y93014D01*
X240870Y93069D01*
X240929Y93121D01*
X240989Y93171D01*
X241053Y93218D01*
X241118Y93261D01*
X241185Y93302D01*
X241254Y93339D01*
X241325Y93373D01*
X241397Y93404D01*
X241471Y93431D01*
X241545Y93455D01*
X241621Y93475D01*
X241698Y93491D01*
X241775Y93504D01*
X241853Y93514D01*
X241932Y93519D01*
X242010Y93521D01*
X240578Y92702D02*
X239350Y90451D01*
X243647Y98711D02*
X243645Y98789D01*
X243640Y98867D01*
X243630Y98944D01*
X243617Y99021D01*
X243601Y99097D01*
X243581Y99172D01*
X243557Y99246D01*
X243530Y99319D01*
X243499Y99391D01*
X243465Y99461D01*
X243428Y99530D01*
X243387Y99596D01*
X243343Y99661D01*
X243297Y99723D01*
X243247Y99783D01*
X243195Y99841D01*
X243140Y99896D01*
X243082Y99948D01*
X243022Y99998D01*
X242960Y100044D01*
X242895Y100088D01*
X242829Y100129D01*
X242760Y100166D01*
X242690Y100200D01*
X242618Y100231D01*
X242545Y100258D01*
X242471Y100282D01*
X242396Y100302D01*
X242320Y100318D01*
X242243Y100331D01*
X242166Y100341D01*
X242088Y100346D01*
X242010Y100348D01*
X243647Y98711D02*
X243645Y98597D01*
X243640Y98484D01*
X243630Y98370D01*
X243617Y98257D01*
X243600Y98145D01*
X243580Y98033D01*
X243556Y97922D01*
X243528Y97811D01*
X243497Y97702D01*
X243462Y97594D01*
X243423Y97487D01*
X243381Y97381D01*
X243336Y97277D01*
X243287Y97174D01*
X243234Y97073D01*
X243179Y96974D01*
X243120Y96876D01*
X243058Y96781D01*
X242993Y96688D01*
X242925Y96596D01*
X242854Y96508D01*
X242780Y96421D01*
X242703Y96337D01*
X242624Y96256D01*
X237918Y96460D02*
X237840Y96462D01*
X237762Y96467D01*
X237685Y96477D01*
X237608Y96490D01*
X237532Y96506D01*
X237457Y96526D01*
X237383Y96550D01*
X237310Y96577D01*
X237238Y96608D01*
X237168Y96642D01*
X237100Y96679D01*
X237033Y96720D01*
X236968Y96764D01*
X236906Y96810D01*
X236846Y96860D01*
X236788Y96912D01*
X236733Y96967D01*
X236681Y97025D01*
X236631Y97085D01*
X236585Y97147D01*
X236541Y97212D01*
X236500Y97279D01*
X236463Y97347D01*
X236429Y97417D01*
X236398Y97489D01*
X236371Y97562D01*
X236347Y97636D01*
X236327Y97711D01*
X236311Y97787D01*
X236298Y97864D01*
X236288Y97941D01*
X236283Y98019D01*
X236281Y98097D01*
X236283Y98207D01*
X236289Y98316D01*
X236299Y98426D01*
X236312Y98534D01*
X236330Y98643D01*
X236351Y98750D01*
X236377Y98857D01*
X236406Y98963D01*
X236438Y99068D01*
X236475Y99171D01*
X236515Y99273D01*
X236559Y99374D01*
X236607Y99473D01*
X236657Y99570D01*
X236712Y99665D01*
X236770Y99758D01*
X236831Y99849D01*
X236895Y99938D01*
X239350Y97278D02*
X239308Y97212D01*
X239264Y97147D01*
X239216Y97085D01*
X239166Y97025D01*
X239113Y96967D01*
X239057Y96912D01*
X238999Y96859D01*
X238938Y96810D01*
X238875Y96763D01*
X238810Y96719D01*
X238743Y96679D01*
X238674Y96642D01*
X238603Y96608D01*
X238531Y96577D01*
X238457Y96550D01*
X238382Y96526D01*
X238307Y96506D01*
X238230Y96490D01*
X238153Y96477D01*
X238075Y96467D01*
X237996Y96462D01*
X237918Y96460D01*
X240577Y99529D02*
X240619Y99596D01*
X240663Y99661D01*
X240711Y99723D01*
X240761Y99783D01*
X240814Y99841D01*
X240870Y99896D01*
X240929Y99948D01*
X240989Y99998D01*
X241053Y100045D01*
X241118Y100088D01*
X241185Y100129D01*
X241254Y100166D01*
X241325Y100200D01*
X241397Y100231D01*
X241471Y100258D01*
X241545Y100282D01*
X241621Y100302D01*
X241698Y100318D01*
X241775Y100331D01*
X241853Y100341D01*
X241932Y100346D01*
X242010Y100348D01*
X240578Y99529D02*
X239350Y97278D01*
X237918Y103327D02*
X236281Y105373D01*
X243647Y105373D01*
X243647Y103327D02*
X243647Y107419D01*
D10*
X129700Y108100D02*
X129700Y38100D01*
X189700Y38100D02*
X189700Y108100D01*
X129700Y108100D01*
X129700Y38100D02*
X189700Y38100D01*
D11*
X161059Y18937D02*
X153693Y18937D01*
X153693Y16891D02*
X153693Y20983D01*
X159422Y27567D02*
X159500Y27565D01*
X159578Y27560D01*
X159655Y27550D01*
X159732Y27537D01*
X159808Y27521D01*
X159883Y27501D01*
X159957Y27477D01*
X160030Y27450D01*
X160102Y27419D01*
X160172Y27385D01*
X160241Y27348D01*
X160307Y27307D01*
X160372Y27263D01*
X160434Y27217D01*
X160494Y27167D01*
X160552Y27115D01*
X160607Y27060D01*
X160659Y27002D01*
X160709Y26942D01*
X160755Y26880D01*
X160799Y26815D01*
X160840Y26749D01*
X160877Y26680D01*
X160911Y26610D01*
X160942Y26538D01*
X160969Y26465D01*
X160993Y26391D01*
X161013Y26316D01*
X161029Y26240D01*
X161042Y26163D01*
X161052Y26086D01*
X161057Y26008D01*
X161059Y25930D01*
X161057Y25816D01*
X161052Y25703D01*
X161042Y25589D01*
X161029Y25476D01*
X161012Y25364D01*
X160992Y25252D01*
X160968Y25141D01*
X160940Y25030D01*
X160909Y24921D01*
X160874Y24813D01*
X160835Y24706D01*
X160793Y24600D01*
X160748Y24496D01*
X160699Y24393D01*
X160646Y24292D01*
X160591Y24193D01*
X160532Y24095D01*
X160470Y24000D01*
X160405Y23907D01*
X160337Y23815D01*
X160266Y23727D01*
X160192Y23640D01*
X160115Y23556D01*
X160036Y23475D01*
X155330Y23679D02*
X155252Y23681D01*
X155174Y23686D01*
X155097Y23696D01*
X155020Y23709D01*
X154944Y23725D01*
X154869Y23745D01*
X154795Y23769D01*
X154722Y23796D01*
X154650Y23827D01*
X154580Y23861D01*
X154512Y23898D01*
X154445Y23939D01*
X154380Y23983D01*
X154318Y24029D01*
X154258Y24079D01*
X154200Y24131D01*
X154145Y24186D01*
X154093Y24244D01*
X154043Y24304D01*
X153997Y24366D01*
X153953Y24431D01*
X153912Y24498D01*
X153875Y24566D01*
X153841Y24636D01*
X153810Y24708D01*
X153783Y24781D01*
X153759Y24855D01*
X153739Y24930D01*
X153723Y25006D01*
X153710Y25083D01*
X153700Y25160D01*
X153695Y25238D01*
X153693Y25316D01*
X153695Y25426D01*
X153701Y25535D01*
X153711Y25645D01*
X153724Y25753D01*
X153742Y25862D01*
X153763Y25969D01*
X153789Y26076D01*
X153818Y26182D01*
X153850Y26287D01*
X153887Y26390D01*
X153927Y26492D01*
X153971Y26593D01*
X154019Y26692D01*
X154069Y26789D01*
X154124Y26884D01*
X154182Y26977D01*
X154243Y27068D01*
X154307Y27157D01*
X156762Y24498D02*
X156720Y24432D01*
X156676Y24367D01*
X156628Y24305D01*
X156578Y24245D01*
X156525Y24187D01*
X156469Y24132D01*
X156411Y24079D01*
X156350Y24030D01*
X156287Y23983D01*
X156222Y23939D01*
X156155Y23899D01*
X156086Y23862D01*
X156015Y23828D01*
X155943Y23797D01*
X155869Y23770D01*
X155794Y23746D01*
X155719Y23726D01*
X155642Y23710D01*
X155565Y23697D01*
X155487Y23687D01*
X155408Y23682D01*
X155330Y23680D01*
X157989Y26748D02*
X158031Y26815D01*
X158075Y26880D01*
X158123Y26942D01*
X158173Y27002D01*
X158226Y27060D01*
X158282Y27115D01*
X158341Y27167D01*
X158401Y27217D01*
X158465Y27264D01*
X158530Y27307D01*
X158597Y27348D01*
X158666Y27385D01*
X158737Y27419D01*
X158809Y27450D01*
X158883Y27477D01*
X158957Y27501D01*
X159033Y27521D01*
X159110Y27537D01*
X159187Y27550D01*
X159265Y27560D01*
X159344Y27565D01*
X159422Y27567D01*
X157990Y26748D02*
X156762Y24498D01*
X155330Y30546D02*
X153693Y32592D01*
X161059Y32592D01*
X161059Y30546D02*
X161059Y34638D01*
M02*
