G04 EAGLE Gerber RS-274X export*
G75*
%MOMM*%
%FSLAX34Y34*%
%LPD*%
%INSoldermask Top*%
%IPNEG*%
%AMOC8*
5,1,8,0,0,1.08239X$1,22.5*%
G01*
%ADD10R,0.503200X0.903200*%
%ADD11C,1.853200*%
%ADD12R,1.703200X1.703200*%
%ADD13C,2.453200*%
%ADD14C,1.411200*%
%ADD15C,2.082800*%
%ADD16R,1.803200X1.203200*%
%ADD17R,1.203200X3.403200*%
%ADD18C,0.959600*%


D10*
X38100Y88900D03*
X43100Y88900D03*
X48100Y88900D03*
X53100Y88900D03*
X58100Y88900D03*
X63100Y88900D03*
X68100Y88900D03*
X73100Y88900D03*
X78100Y88900D03*
X83100Y88900D03*
X88100Y88900D03*
X93100Y88900D03*
X40600Y105900D03*
X45600Y105900D03*
X50600Y105900D03*
X55600Y105900D03*
X60600Y105900D03*
X65600Y105900D03*
X70600Y105900D03*
X75600Y105900D03*
X80600Y105900D03*
X85600Y105900D03*
X90600Y105900D03*
X95600Y105900D03*
D11*
X109400Y86800D03*
X26800Y86800D03*
X113000Y27300D03*
X23200Y27300D03*
D12*
X233400Y25400D03*
X198400Y25400D03*
D13*
X215800Y157000D03*
D14*
X233800Y210000D03*
X233800Y225000D03*
X233800Y240000D03*
X233800Y255000D03*
X233800Y270000D03*
X233800Y285000D03*
X233800Y300000D03*
X233800Y315000D03*
X233800Y330000D03*
X233800Y345000D03*
X233800Y360000D03*
X233800Y375000D03*
X233800Y390000D03*
X233800Y405000D03*
X233800Y420000D03*
X233800Y435000D03*
X233800Y450000D03*
D13*
X215800Y503000D03*
D15*
X252730Y364490D03*
X252730Y389890D03*
X252730Y415290D03*
X252730Y440690D03*
X252730Y466090D03*
X252730Y491490D03*
D16*
X203200Y101600D03*
X227200Y76600D03*
X203200Y51600D03*
D17*
X139700Y38100D03*
X179700Y38100D03*
X139700Y106100D03*
X179700Y106100D03*
D18*
X50800Y127000D03*
X219206Y381000D03*
X38100Y381000D03*
X38100Y279400D03*
X38100Y152400D03*
X25400Y152400D03*
X25400Y190500D03*
X152400Y76200D03*
X172110Y193700D03*
X171450Y214630D03*
X172720Y234950D03*
X172720Y252730D03*
X63500Y127000D03*
X177800Y368300D03*
X25400Y127000D03*
X25400Y139700D03*
X63500Y139700D03*
X101600Y419100D03*
X139700Y177800D03*
X63500Y520746D03*
X190500Y381000D03*
X114300Y152400D03*
X50800Y533400D03*
M02*
