G04 EAGLE Gerber RS-274X export*
G75*
%MOMM*%
%FSLAX34Y34*%
%LPD*%
%INSoldermask Bottom*%
%IPNEG*%
%AMOC8*
5,1,8,0,0,1.08239X$1,22.5*%
G01*
%ADD10C,1.853200*%
%ADD11R,1.703200X0.903200*%
%ADD12R,0.903200X1.703200*%
%ADD13R,1.503200X1.703200*%
%ADD14R,1.703200X1.503200*%
%ADD15C,2.453200*%
%ADD16C,1.411200*%
%ADD17C,2.082800*%
%ADD18R,1.703200X0.803200*%
%ADD19R,0.703200X1.003200*%
%ADD20C,0.959600*%


D10*
X109400Y86800D03*
X26800Y86800D03*
X113000Y27300D03*
X23200Y27300D03*
D11*
X162600Y536900D03*
X162600Y524900D03*
X162600Y512900D03*
X162600Y500900D03*
X162600Y488900D03*
D12*
X150100Y472400D03*
X138100Y472400D03*
X126100Y472400D03*
X114100Y472400D03*
X102100Y472400D03*
X90100Y472400D03*
D11*
X77600Y488900D03*
X77600Y500900D03*
X77600Y512900D03*
X77600Y524900D03*
X77600Y536900D03*
D13*
X206350Y331470D03*
X187350Y331470D03*
D14*
X25400Y346100D03*
X25400Y365100D03*
X38100Y295300D03*
X38100Y314300D03*
D13*
X206350Y303530D03*
X187350Y303530D03*
X187350Y275590D03*
X206350Y275590D03*
X206350Y255270D03*
X187350Y255270D03*
X206350Y234950D03*
X187350Y234950D03*
X206350Y214630D03*
X187350Y214630D03*
X206350Y194310D03*
X187350Y194310D03*
X196190Y173990D03*
X177190Y173990D03*
X168300Y351790D03*
X187300Y351790D03*
D15*
X215800Y157000D03*
D16*
X233800Y210000D03*
X233800Y225000D03*
X233800Y240000D03*
X233800Y255000D03*
X233800Y270000D03*
X233800Y285000D03*
X233800Y300000D03*
X233800Y315000D03*
X233800Y330000D03*
X233800Y345000D03*
X233800Y360000D03*
X233800Y375000D03*
X233800Y390000D03*
X233800Y405000D03*
X233800Y420000D03*
X233800Y435000D03*
X233800Y450000D03*
D15*
X215800Y503000D03*
D17*
X252730Y364490D03*
X252730Y389890D03*
X252730Y415290D03*
X252730Y440690D03*
X252730Y466090D03*
X252730Y491490D03*
D18*
X152400Y368300D03*
X152400Y381000D03*
X152400Y393700D03*
X152400Y406400D03*
X152400Y419100D03*
X152400Y431800D03*
X152400Y444500D03*
X206400Y444500D03*
X206400Y431800D03*
X206400Y419100D03*
X206400Y406400D03*
X206400Y393700D03*
X206400Y381000D03*
X206400Y368300D03*
D19*
X63500Y330200D03*
X54000Y330200D03*
X44500Y330200D03*
X63500Y351200D03*
X44500Y351200D03*
D20*
X50800Y127000D03*
X219206Y381000D03*
X38100Y381000D03*
X38100Y279400D03*
X38100Y152400D03*
X25400Y152400D03*
X25400Y190500D03*
X152400Y76200D03*
X172110Y193700D03*
X171450Y214630D03*
X172720Y234950D03*
X172720Y252730D03*
X63500Y127000D03*
X177800Y368300D03*
X25400Y127000D03*
X25400Y139700D03*
X63500Y139700D03*
X101600Y419100D03*
X139700Y177800D03*
X63500Y520746D03*
X190500Y381000D03*
X114300Y152400D03*
X50800Y533400D03*
M02*
